%TF.GenerationSoftware,Altium Limited,Altium Designer,22.5.1 (42)*%
G04 Layer_Color=32768*
%FSLAX45Y45*%
%MOMM*%
%TF.SameCoordinates,ADDB7551-072C-4BAF-947E-D85C9ED3ECA7*%
%TF.FilePolarity,Positive*%
%TF.FileFunction,Other,Mechanical_15*%
%TF.Part,Single*%
G01*
G75*
%TA.AperFunction,NonConductor*%
%ADD31C,0.15240*%
%ADD50C,0.20000*%
%ADD55C,0.00254*%
%ADD56C,0.05080*%
G36*
X3011343Y5279507D02*
X2970703D01*
Y5287127D01*
X3011343D01*
Y5279507D01*
D02*
G37*
G36*
X2104461D02*
X2063821D01*
Y5287127D01*
X2104461D01*
Y5279507D01*
D02*
G37*
G36*
X3082783Y5287937D02*
X3098023D01*
Y5280317D01*
X3082783D01*
Y5263807D01*
X3075163D01*
Y5280317D01*
X3057383D01*
Y5287937D01*
X3075163D01*
Y5304447D01*
X3082783D01*
Y5287937D01*
D02*
G37*
G36*
X2175901D02*
X2191141D01*
Y5280317D01*
X2175901D01*
Y5263807D01*
X2168281D01*
Y5280317D01*
X2150501D01*
Y5287937D01*
X2168281D01*
Y5304447D01*
X2175901D01*
Y5287937D01*
D02*
G37*
G36*
X1400807Y5260292D02*
X1360808D01*
X1360802Y5285092D01*
X1400807D01*
Y5260292D01*
D02*
G37*
G36*
X1280805D02*
X1240805D01*
X1240800Y5285100D01*
X1280805D01*
Y5260292D01*
D02*
G37*
G36*
X1280810Y5205100D02*
X1240805D01*
Y5229908D01*
X1280805D01*
X1280810Y5205100D01*
D02*
G37*
G36*
X1400799Y5211101D02*
X1403294D01*
X1406809Y5207585D01*
Y5205100D01*
Y5202614D01*
X1403294Y5199099D01*
X1398323D01*
X1394808Y5202614D01*
Y5205100D01*
X1360795D01*
Y5229908D01*
X1400795D01*
X1400799Y5211101D01*
D02*
G37*
G36*
X2098115Y3081256D02*
Y3070735D01*
X2090676Y3063296D01*
X1827118D01*
Y2658697D01*
X3879712D01*
Y3045297D01*
X3610152D01*
X3602712Y3052737D01*
Y3063258D01*
X3610152Y3070697D01*
X3894938D01*
X3899606Y3068764D01*
X3903178Y3065191D01*
X3905112Y3060523D01*
Y3057997D01*
Y2645997D01*
Y2643470D01*
X3903178Y2638803D01*
X3899606Y2635230D01*
X3894938Y2633297D01*
X1811891D01*
X1807224Y2635230D01*
X1803651Y2638803D01*
X1801718Y2643470D01*
Y2645997D01*
Y3075996D01*
Y3078522D01*
X1803651Y3083190D01*
X1807224Y3086762D01*
X1811891Y3088696D01*
X2090676D01*
X2098115Y3081256D01*
D02*
G37*
G36*
X3905115Y2617262D02*
Y2612001D01*
Y2564257D01*
X3908112Y2561260D01*
Y2550739D01*
X3900672Y2543299D01*
X1809157D01*
X1801718Y2550739D01*
Y2555999D01*
Y2561260D01*
Y2605999D01*
Y2611260D01*
X1809157Y2618699D01*
X1819678D01*
X1827118Y2611260D01*
Y2605999D01*
Y2568699D01*
X3879715D01*
Y2612001D01*
Y2617262D01*
X3887154Y2624701D01*
X3897675D01*
X3905115Y2617262D01*
D02*
G37*
G36*
X4735017Y367698D02*
X4715020D01*
Y447698D01*
X4735017D01*
Y367698D01*
D02*
G37*
G36*
X4685007D02*
X4665007D01*
Y447698D01*
X4685007D01*
Y367698D01*
D02*
G37*
G36*
X4635017D02*
X4615017D01*
Y447698D01*
X4635017D01*
Y367698D01*
D02*
G37*
G36*
X4585007D02*
X4565007D01*
Y447698D01*
X4585007D01*
Y367698D01*
D02*
G37*
G36*
X4455990Y79154D02*
X4355996D01*
Y229156D01*
X4455990D01*
Y79154D01*
D02*
G37*
G36*
X8125000Y4791395D02*
X8235395D01*
Y4069805D01*
X8125000D01*
Y3805200D01*
X6874200D01*
Y4069805D01*
X6763805D01*
Y4791395D01*
X6874200D01*
Y5056000D01*
X8125000D01*
Y4791395D01*
D02*
G37*
G36*
X9185395Y3731000D02*
X9450000D01*
Y2480200D01*
X9185395D01*
Y2369805D01*
X8463805D01*
Y2480200D01*
X8199200D01*
Y3731000D01*
X8463805D01*
Y3841395D01*
X9185395D01*
Y3731000D01*
D02*
G37*
G36*
X6535395D02*
X6800000D01*
Y2480200D01*
X6535395D01*
Y2369805D01*
X5813805D01*
Y2480200D01*
X5549200D01*
Y3731000D01*
X5813805D01*
Y3841395D01*
X6535395D01*
Y3731000D01*
D02*
G37*
G36*
X8125000Y2141395D02*
X8235395D01*
Y1419805D01*
X8125000D01*
Y1155200D01*
X6874200D01*
Y1419805D01*
X6763805D01*
Y2141395D01*
X6874200D01*
Y2406000D01*
X8125000D01*
Y2141395D01*
D02*
G37*
G36*
X5672412Y453452D02*
X5675892Y450109D01*
X5675990Y447698D01*
X5675890Y445287D01*
X5672406Y441947D01*
X5667580Y441949D01*
X5664100Y445292D01*
X5664001Y447703D01*
X5664002Y447703D01*
X5664102Y450114D01*
X5667585Y453454D01*
X5672412Y453452D01*
D02*
G37*
G36*
X4885009Y367703D02*
X4865009D01*
Y447703D01*
X4885009D01*
Y367703D01*
D02*
G37*
G36*
X5434995Y367701D02*
X5414995D01*
Y447700D01*
X5434995D01*
Y367701D01*
D02*
G37*
G36*
X5385008D02*
X5365008D01*
Y447700D01*
X5385008D01*
Y367701D01*
D02*
G37*
G36*
X5334995D02*
X5314995D01*
Y447700D01*
X5334995D01*
Y367701D01*
D02*
G37*
G36*
X5285008D02*
X5265008D01*
Y447700D01*
X5285008D01*
Y367701D01*
D02*
G37*
G36*
X5234996D02*
X5214996D01*
Y447700D01*
X5234996D01*
Y367701D01*
D02*
G37*
G36*
X5185008D02*
X5165008D01*
Y447700D01*
X5185008D01*
Y367701D01*
D02*
G37*
G36*
X5134996D02*
X5114996D01*
Y447700D01*
X5134996D01*
Y367701D01*
D02*
G37*
G36*
X5085009D02*
X5065009D01*
Y447700D01*
X5085009D01*
Y367701D01*
D02*
G37*
G36*
X5034996D02*
X5014996D01*
Y447700D01*
X5034996D01*
Y367701D01*
D02*
G37*
G36*
X4985009D02*
X4965009D01*
Y447700D01*
X4985009D01*
Y367701D01*
D02*
G37*
G36*
X4934996D02*
X4914996D01*
Y447700D01*
X4934996D01*
Y367701D01*
D02*
G37*
G36*
X4835017Y367698D02*
X4815017D01*
Y447698D01*
X4835017D01*
Y367698D01*
D02*
G37*
G36*
X4785007D02*
X4765007D01*
Y447698D01*
X4785007D01*
Y367698D01*
D02*
G37*
G36*
X5644002Y75646D02*
X5544004D01*
Y225649D01*
X5644002D01*
Y75646D01*
D02*
G37*
D31*
X6763805Y1419805D02*
Y2141395D01*
X6874200D01*
X8125000D02*
X8235395D01*
Y1419805D02*
Y2141395D01*
X8125000Y1419805D02*
X8235395D01*
X6763805D02*
X6874200D01*
Y2141395D02*
Y2406000D01*
X8125000D01*
Y2141395D02*
Y2406000D01*
Y1155200D02*
Y1419805D01*
X6874200Y1155200D02*
X8125000D01*
X6874200D02*
Y1419805D01*
X5813805Y2369805D02*
X6535395D01*
X5813805D02*
Y2480200D01*
Y3731000D02*
Y3841395D01*
X6535395D01*
Y3731000D02*
Y3841395D01*
Y2369805D02*
Y2480200D01*
X5549200D02*
X5813805D01*
X5549200D02*
Y3731000D01*
X5813805D01*
X6535395D02*
X6800000D01*
Y2480200D02*
Y3731000D01*
X6535395Y2480200D02*
X6800000D01*
X8463805Y2369805D02*
X9185395D01*
X8463805D02*
Y2480200D01*
Y3731000D02*
Y3841395D01*
X9185395D01*
Y3731000D02*
Y3841395D01*
Y2369805D02*
Y2480200D01*
X8199200D02*
X8463805D01*
X8199200D02*
Y3731000D01*
X8463805D01*
X9185395D02*
X9450000D01*
Y2480200D02*
Y3731000D01*
X9185395Y2480200D02*
X9450000D01*
X6763805Y4069805D02*
Y4791395D01*
X6874200D01*
X8125000D02*
X8235395D01*
Y4069805D02*
Y4791395D01*
X8125000Y4069805D02*
X8235395D01*
X6763805D02*
X6874200D01*
Y4791395D02*
Y5056000D01*
X8125000D01*
Y4791395D02*
Y5056000D01*
Y3805200D02*
Y4069805D01*
X6874200Y3805200D02*
X8125000D01*
X6874200D02*
Y4069805D01*
D50*
X1165809Y3842004D02*
G03*
X1165809Y3842004I-10008J0D01*
G01*
Y3207004D02*
G03*
X1165809Y3207004I-10008J0D01*
G01*
Y2597404D02*
G03*
X1165809Y2597404I-10008J0D01*
G01*
X1171037Y4819904D02*
G03*
X1171037Y4819904I-10008J0D01*
G01*
X1165809Y4350004D02*
G03*
X1165809Y4350004I-10008J0D01*
G01*
X3943701Y488803D02*
G03*
X3943701Y488803I-10008J0D01*
G01*
D55*
X6650340Y1422375D02*
X6650391Y1422425D01*
X6485240Y1423251D02*
X6485291Y1423302D01*
X6332840Y1422375D02*
X6332891Y1422425D01*
X6193140Y1422375D02*
X6193191Y1422425D01*
D56*
X1240800Y5285100D02*
X1400800D01*
X1240800Y5205100D02*
Y5285100D01*
Y5205100D02*
X1400800D01*
Y5285100D01*
X4329999Y-134300D02*
X5670001D01*
X4329999D02*
Y377701D01*
X5670001D01*
Y-134300D02*
Y377701D01*
%TF.MD5,af5529426bcb226ec8dd07b3bf8d6d88*%
M02*
