%TF.GenerationSoftware,Altium Limited,Altium Designer,22.5.1 (42)*%
G04 Layer_Color=32896*
%FSLAX45Y45*%
%MOMM*%
%TF.SameCoordinates,ADDB7551-072C-4BAF-947E-D85C9ED3ECA7*%
%TF.FilePolarity,Positive*%
%TF.FileFunction,Legend,Bot*%
%TF.Part,Single*%
G01*
G75*
%TA.AperFunction,NonConductor*%
%ADD30C,0.25400*%
%ADD31C,0.15240*%
%ADD32C,0.12700*%
D30*
X6887300Y2538600D02*
G03*
X6887300Y2538600I-12700J0D01*
G01*
X5429300Y2480600D02*
G03*
X5429300Y2480600I-12700J0D01*
G01*
X8079300D02*
G03*
X8079300Y2480600I-12700J0D01*
G01*
X6887300Y5188600D02*
G03*
X6887300Y5188600I-12700J0D01*
G01*
X5495404Y444500D02*
G03*
X5495404Y444500I-12700J0D01*
G01*
D02*
G03*
X5495404Y444500I-12700J0D01*
G01*
X3265820Y3569398D02*
G03*
X3296803Y3600381I0J30983D01*
G01*
X3154837D02*
G03*
X3185823Y3569398I30983J0D01*
G01*
X3296221Y3817968D02*
G03*
X3265236Y3848951I-30983J0D01*
G01*
X3185239D02*
G03*
X3154256Y3817968I0J-30983D01*
G01*
X3845639Y3848951D02*
G03*
X3814656Y3817968I0J-30983D01*
G01*
X3956621D02*
G03*
X3925636Y3848951I-30983J0D01*
G01*
X3815237Y3600381D02*
G03*
X3846223Y3569398I30983J0D01*
G01*
X3926220D02*
G03*
X3957203Y3600381I0J30983D01*
G01*
X3680539Y3848951D02*
G03*
X3649556Y3817968I0J-30983D01*
G01*
X3791521D02*
G03*
X3760536Y3848951I-30983J0D01*
G01*
X3650137Y3600381D02*
G03*
X3681123Y3569398I30983J0D01*
G01*
X3761120D02*
G03*
X3792103Y3600381I0J30983D01*
G01*
X3515439Y3848951D02*
G03*
X3484456Y3817968I0J-30983D01*
G01*
X3626421D02*
G03*
X3595436Y3848951I-30983J0D01*
G01*
X3485037Y3600381D02*
G03*
X3516023Y3569398I30983J0D01*
G01*
X3596020D02*
G03*
X3627003Y3600381I0J30983D01*
G01*
X3350339Y3848951D02*
G03*
X3319356Y3817968I0J-30983D01*
G01*
X3461321D02*
G03*
X3430336Y3848951I-30983J0D01*
G01*
X3319937Y3600381D02*
G03*
X3350923Y3569398I30983J0D01*
G01*
X3430920D02*
G03*
X3461903Y3600381I0J30983D01*
G01*
X3094371Y3563188D02*
G03*
X3125354Y3594171I0J30983D01*
G01*
X2983388D02*
G03*
X3014374Y3563188I30983J0D01*
G01*
X3124772Y3811758D02*
G03*
X3093787Y3842741I-30983J0D01*
G01*
X3013790D02*
G03*
X2982807Y3811758I0J-30983D01*
G01*
X2910221Y3563188D02*
G03*
X2941204Y3594171I0J30983D01*
G01*
X2799238D02*
G03*
X2830224Y3563188I30983J0D01*
G01*
X2940623Y3811758D02*
G03*
X2909637Y3842741I-30983J0D01*
G01*
X2829640D02*
G03*
X2798657Y3811758I0J-30983D01*
G01*
X2726072Y3563188D02*
G03*
X2757054Y3594171I0J30983D01*
G01*
X2615089D02*
G03*
X2646074Y3563188I30983J0D01*
G01*
X2756473Y3811758D02*
G03*
X2725487Y3842741I-30983J0D01*
G01*
X2645490D02*
G03*
X2614507Y3811758I0J-30983D01*
G01*
X2461340Y3842741D02*
G03*
X2430357Y3811758I0J-30983D01*
G01*
X2572323D02*
G03*
X2541338Y3842741I-30983J0D01*
G01*
X2430939Y3594171D02*
G03*
X2461924Y3563188I30983J0D01*
G01*
X2541922D02*
G03*
X2572905Y3594171I0J30983D01*
G01*
X4333001Y302265D02*
Y381399D01*
X4547001D01*
X5676999Y-142598D02*
Y2532D01*
X4333001Y-142598D02*
X5676999D01*
X4333001D02*
Y6035D01*
X5463113Y381399D02*
X5676999D01*
Y298762D02*
Y381399D01*
X3296216Y3737963D02*
Y3817963D01*
X3185239Y3848946D02*
X3265236D01*
X3154256Y3737963D02*
Y3817963D01*
X3296803Y3600376D02*
Y3680374D01*
X3154837Y3600376D02*
Y3680374D01*
X3185823Y3569398D02*
X3265825D01*
X3846223D02*
X3926225D01*
X3815237Y3600376D02*
Y3680374D01*
X3957203Y3600376D02*
Y3680374D01*
X3814656Y3737963D02*
Y3817963D01*
X3845639Y3848946D02*
X3925636D01*
X3956616Y3737963D02*
Y3817963D01*
X3681123Y3569398D02*
X3761125D01*
X3650137Y3600376D02*
Y3680374D01*
X3792103Y3600376D02*
Y3680374D01*
X3649556Y3737963D02*
Y3817963D01*
X3680539Y3848946D02*
X3760536D01*
X3791516Y3737963D02*
Y3817963D01*
X3516023Y3569398D02*
X3596025D01*
X3485037Y3600376D02*
Y3680374D01*
X3627003Y3600376D02*
Y3680374D01*
X3484456Y3737963D02*
Y3817963D01*
X3515439Y3848946D02*
X3595436D01*
X3626416Y3737963D02*
Y3817963D01*
X3350923Y3569398D02*
X3430925D01*
X3319937Y3600376D02*
Y3680374D01*
X3461903Y3600376D02*
Y3680374D01*
X3319356Y3737963D02*
Y3817963D01*
X3350339Y3848946D02*
X3430336D01*
X3461316Y3737963D02*
Y3817963D01*
X3013784Y3842741D02*
X3093787D01*
X3124772Y3731765D02*
Y3811763D01*
X2982807Y3731765D02*
Y3811763D01*
X3125354Y3594176D02*
Y3674176D01*
X3014374Y3563193D02*
X3094371D01*
X2983393Y3594176D02*
Y3674176D01*
X2829635Y3842741D02*
X2909637D01*
X2940623Y3731765D02*
Y3811763D01*
X2798657Y3731765D02*
Y3811763D01*
X2941204Y3594176D02*
Y3674176D01*
X2830224Y3563193D02*
X2910221D01*
X2799244Y3594176D02*
Y3674176D01*
X2645485Y3842741D02*
X2725487D01*
X2756473Y3731765D02*
Y3811763D01*
X2614507Y3731765D02*
Y3811763D01*
X2757054Y3594176D02*
Y3674176D01*
X2646074Y3563193D02*
X2726072D01*
X2615094Y3594176D02*
Y3674176D01*
X2461924Y3563188D02*
X2541927D01*
X2430939Y3594166D02*
Y3674163D01*
X2572905Y3594166D02*
Y3674163D01*
X2430357Y3731753D02*
Y3811753D01*
X2461340Y3842736D02*
X2541338D01*
X2572318Y3731753D02*
Y3811753D01*
D31*
X6626840Y1465021D02*
Y1560909D01*
X6758960D01*
Y1465021D02*
Y1560909D01*
X6626840Y1283891D02*
Y1379779D01*
Y1283891D02*
X6758960D01*
Y1379779D01*
X6461740Y1465897D02*
Y1561785D01*
X6593860D01*
Y1465897D02*
Y1561785D01*
X6461740Y1284768D02*
Y1380655D01*
Y1284768D02*
X6593860D01*
Y1380655D01*
X6309340Y1465021D02*
Y1560909D01*
X6441460D01*
Y1465021D02*
Y1560909D01*
X6309340Y1283891D02*
Y1379779D01*
Y1283891D02*
X6441460D01*
Y1379779D01*
X6169640Y1465021D02*
Y1560909D01*
X6301760D01*
Y1465021D02*
Y1560909D01*
X6169640Y1283891D02*
Y1379779D01*
Y1283891D02*
X6301760D01*
Y1379779D01*
X1018403Y3988740D02*
X1090206D01*
Y4088460D01*
X1018403D02*
X1090206D01*
X901357Y3988740D02*
X973160D01*
X901357D02*
Y4088460D01*
X973160D01*
X1018403Y3328340D02*
X1090206D01*
Y3428060D01*
X1018403D02*
X1090206D01*
X901357Y3328340D02*
X973160D01*
X901357D02*
Y3428060D01*
X973160D01*
X1018403Y3798240D02*
X1090206D01*
Y3897960D01*
X1018403D02*
X1090206D01*
X901357Y3798240D02*
X973160D01*
X901357D02*
Y3897960D01*
X973160D01*
X1018403Y3150540D02*
X1090206D01*
Y3250260D01*
X1018403D02*
X1090206D01*
X901357Y3150540D02*
X973160D01*
X901357D02*
Y3250260D01*
X973160D01*
X1018403Y2553640D02*
X1090206D01*
Y2653360D01*
X1018403D02*
X1090206D01*
X901357Y2553640D02*
X973160D01*
X901357D02*
Y2653360D01*
X973160D01*
X1018403Y2731440D02*
X1090206D01*
Y2831160D01*
X1018403D02*
X1090206D01*
X901357Y2731440D02*
X973160D01*
X901357D02*
Y2831160D01*
X973160D01*
X1234930Y3891460D02*
Y3982540D01*
X1406670Y3784379D02*
Y3887541D01*
X1234930Y3784379D02*
X1406670D01*
Y3986459D02*
Y4089621D01*
X1234930D02*
X1406670D01*
X1234930Y3256460D02*
Y3347540D01*
X1406670Y3149379D02*
Y3252541D01*
X1234930Y3149379D02*
X1406670D01*
Y3351459D02*
Y3454621D01*
X1234930D02*
X1406670D01*
X1234930Y2646860D02*
Y2737940D01*
X1406670Y2539779D02*
Y2642941D01*
X1234930Y2539779D02*
X1406670D01*
Y2741859D02*
Y2845021D01*
X1234930D02*
X1406670D01*
X908876Y4596460D02*
X980679D01*
X908876Y4496740D02*
Y4596460D01*
Y4496740D02*
X980679D01*
X1025921Y4596460D02*
X1097724D01*
Y4496740D02*
Y4596460D01*
X1025921Y4496740D02*
X1097724D01*
X901357Y4405960D02*
X973160D01*
X901357Y4306240D02*
Y4405960D01*
Y4306240D02*
X973160D01*
X1018403Y4405960D02*
X1090206D01*
Y4306240D02*
Y4405960D01*
X1018403Y4306240D02*
X1090206D01*
X883475Y5066360D02*
X955279D01*
X883475Y4966640D02*
Y5066360D01*
Y4966640D02*
X955279D01*
X1000521Y5066360D02*
X1072325D01*
Y4966640D02*
Y5066360D01*
X1000521Y4966640D02*
X1072325D01*
X883475Y4875860D02*
X955279D01*
X883475Y4776140D02*
Y4875860D01*
Y4776140D02*
X955279D01*
X1000521Y4875860D02*
X1072325D01*
Y4776140D02*
Y4875860D01*
X1000521Y4776140D02*
X1072325D01*
X1240158Y5067521D02*
X1411897D01*
Y4964359D02*
Y5067521D01*
X1240158Y4762279D02*
X1411897D01*
Y4865441D01*
X1240158Y4869360D02*
Y4960440D01*
X1234930Y4597621D02*
X1406670D01*
Y4494459D02*
Y4597621D01*
X1234930Y4292379D02*
X1406670D01*
Y4395541D01*
X1234930Y4399460D02*
Y4490540D01*
X3994975Y1091260D02*
X4066779D01*
X3994975Y991540D02*
Y1091260D01*
Y991540D02*
X4066779D01*
X4112021Y1091260D02*
X4183825D01*
Y991540D02*
Y1091260D01*
X4112021Y991540D02*
X4183825D01*
X3686076Y567931D02*
Y739671D01*
X3789238D01*
X3991318Y567931D02*
Y739671D01*
X3888156D02*
X3991318D01*
X3793157Y567931D02*
X3884237D01*
X4113860Y652440D02*
Y724243D01*
X4014140D02*
X4113860D01*
X4014140Y652440D02*
Y724243D01*
X4113860Y535394D02*
Y607197D01*
X4014140Y535394D02*
X4113860D01*
X4014140D02*
Y607197D01*
X4228160Y652440D02*
Y724243D01*
X4128440D02*
X4228160D01*
X4128440Y652440D02*
Y724243D01*
X4228160Y535394D02*
Y607197D01*
X4128440Y535394D02*
X4228160D01*
X4128440D02*
Y607197D01*
D32*
X834456Y3995910D02*
Y4055890D01*
X804465D01*
X794469Y4045893D01*
Y4025900D01*
X804465Y4015903D01*
X834456D01*
X814462D02*
X794469Y3995910D01*
X734488D02*
X774475D01*
X734488Y4035897D01*
Y4045893D01*
X744485Y4055890D01*
X764478D01*
X774475Y4045893D01*
X714494D02*
X704498Y4055890D01*
X684504D01*
X674507Y4045893D01*
Y4035897D01*
X684504Y4025900D01*
X694501D01*
X684504D01*
X674507Y4015903D01*
Y4005906D01*
X684504Y3995910D01*
X704498D01*
X714494Y4005906D01*
X834456Y3335510D02*
Y3395490D01*
X804465D01*
X794469Y3385493D01*
Y3365500D01*
X804465Y3355503D01*
X834456D01*
X814462D02*
X794469Y3335510D01*
X734488D02*
X774475D01*
X734488Y3375497D01*
Y3385493D01*
X744485Y3395490D01*
X764478D01*
X774475Y3385493D01*
X674507Y3335510D02*
X714494D01*
X674507Y3375497D01*
Y3385493D01*
X684504Y3395490D01*
X704498D01*
X714494Y3385493D01*
X834456Y2751310D02*
Y2811290D01*
X804465D01*
X794469Y2801293D01*
Y2781300D01*
X804465Y2771303D01*
X834456D01*
X814462D02*
X794469Y2751310D01*
X734488D02*
X774475D01*
X734488Y2791297D01*
Y2801293D01*
X744485Y2811290D01*
X764478D01*
X774475Y2801293D01*
X714494Y2751310D02*
X694501D01*
X704498D01*
Y2811290D01*
X714494Y2801293D01*
X834456Y3805410D02*
Y3865390D01*
X804465D01*
X794469Y3855393D01*
Y3835400D01*
X804465Y3825403D01*
X834456D01*
X814462D02*
X794469Y3805410D01*
X734488D02*
X774475D01*
X734488Y3845397D01*
Y3855393D01*
X744485Y3865390D01*
X764478D01*
X774475Y3855393D01*
X714494D02*
X704498Y3865390D01*
X684504D01*
X674507Y3855393D01*
Y3815406D01*
X684504Y3805410D01*
X704498D01*
X714494Y3815406D01*
Y3855393D01*
X834456Y3157710D02*
Y3217690D01*
X804465D01*
X794469Y3207693D01*
Y3187700D01*
X804465Y3177703D01*
X834456D01*
X814462D02*
X794469Y3157710D01*
X774475D02*
X754481D01*
X764478D01*
Y3217690D01*
X774475Y3207693D01*
X724491Y3167706D02*
X714495Y3157710D01*
X694501D01*
X684504Y3167706D01*
Y3207693D01*
X694501Y3217690D01*
X714495D01*
X724491Y3207693D01*
Y3197697D01*
X714495Y3187700D01*
X684504D01*
X834456Y2560810D02*
Y2620790D01*
X804465D01*
X794469Y2610793D01*
Y2590800D01*
X804465Y2580803D01*
X834456D01*
X814462D02*
X794469Y2560810D01*
X774475D02*
X754481D01*
X764478D01*
Y2620790D01*
X774475Y2610793D01*
X724491D02*
X714495Y2620790D01*
X694501D01*
X684504Y2610793D01*
Y2600797D01*
X694501Y2590800D01*
X684504Y2580803D01*
Y2570806D01*
X694501Y2560810D01*
X714495D01*
X724491Y2570806D01*
Y2580803D01*
X714495Y2590800D01*
X724491Y2600797D01*
Y2610793D01*
X714495Y2590800D02*
X694501D01*
X1318097Y4145606D02*
Y4185593D01*
X1328093Y4195590D01*
X1348087D01*
X1358084Y4185593D01*
Y4145606D01*
X1348087Y4135610D01*
X1328093D01*
X1338090Y4155603D02*
X1318097Y4135610D01*
X1328093D02*
X1318097Y4145606D01*
X1258116Y4195590D02*
X1278109Y4185593D01*
X1298103Y4165600D01*
Y4145606D01*
X1288106Y4135610D01*
X1268113D01*
X1258116Y4145606D01*
Y4155603D01*
X1268113Y4165600D01*
X1298103D01*
X1209693Y3535517D02*
Y3575504D01*
X1219690Y3585501D01*
X1239683D01*
X1249680Y3575504D01*
Y3535517D01*
X1239683Y3525520D01*
X1219690D01*
X1229686Y3545514D02*
X1209693Y3525520D01*
X1219690D02*
X1209693Y3535517D01*
X1149712Y3585501D02*
X1189699D01*
Y3555510D01*
X1169706Y3565507D01*
X1159709D01*
X1149712Y3555510D01*
Y3535517D01*
X1159709Y3525520D01*
X1179703D01*
X1189699Y3535517D01*
X1209693Y2925917D02*
Y2965904D01*
X1219690Y2975901D01*
X1239683D01*
X1249680Y2965904D01*
Y2925917D01*
X1239683Y2915920D01*
X1219690D01*
X1229686Y2935914D02*
X1209693Y2915920D01*
X1219690D02*
X1209693Y2925917D01*
X1159709Y2915920D02*
Y2975901D01*
X1189699Y2945910D01*
X1149712D01*
X4034010Y788624D02*
X4093991D01*
Y818615D01*
X4083994Y828611D01*
X4064000D01*
X4054004Y818615D01*
Y788624D01*
Y808618D02*
X4034010Y828611D01*
Y848605D02*
Y868598D01*
Y858602D01*
X4093991D01*
X4083994Y848605D01*
X4034010Y928579D02*
X4093991D01*
X4064000Y898588D01*
Y938575D01*
X4148310Y788624D02*
X4208291D01*
Y818615D01*
X4198294Y828611D01*
X4178300D01*
X4168304Y818615D01*
Y788624D01*
Y808618D02*
X4148310Y828611D01*
Y848605D02*
Y868598D01*
Y858602D01*
X4208291D01*
X4198294Y848605D01*
Y898588D02*
X4208291Y908585D01*
Y928579D01*
X4198294Y938575D01*
X4188297D01*
X4178300Y928579D01*
Y918582D01*
Y928579D01*
X4168304Y938575D01*
X4158307D01*
X4148310Y928579D01*
Y908585D01*
X4158307Y898588D01*
X834456Y4503910D02*
Y4563890D01*
X804465D01*
X794469Y4553893D01*
Y4533900D01*
X804465Y4523903D01*
X834456D01*
X814462D02*
X794469Y4503910D01*
X774475D02*
X754481D01*
X764478D01*
Y4563890D01*
X774475Y4553893D01*
X684504Y4503910D02*
X724491D01*
X684504Y4543897D01*
Y4553893D01*
X694501Y4563890D01*
X714495D01*
X724491Y4553893D01*
X834456Y4973810D02*
Y5033790D01*
X804465D01*
X794469Y5023793D01*
Y5003800D01*
X804465Y4993803D01*
X834456D01*
X814462D02*
X794469Y4973810D01*
X774475D02*
X754481D01*
X764478D01*
Y5033790D01*
X774475Y5023793D01*
X724491Y4973810D02*
X704498D01*
X714495D01*
Y5033790D01*
X724491Y5023793D01*
X3961175Y998710D02*
Y1058690D01*
X3931185D01*
X3921188Y1048693D01*
Y1028700D01*
X3931185Y1018703D01*
X3961175D01*
X3941182D02*
X3921188Y998710D01*
X3901195D02*
X3881201D01*
X3891198D01*
Y1058690D01*
X3901195Y1048693D01*
X3851211D02*
X3841215Y1058690D01*
X3821221D01*
X3811224Y1048693D01*
Y1008706D01*
X3821221Y998710D01*
X3841215D01*
X3851211Y1008706D01*
Y1048693D01*
X834456Y4300710D02*
Y4360690D01*
X804465D01*
X794469Y4350693D01*
Y4330700D01*
X804465Y4320703D01*
X834456D01*
X814462D02*
X794469Y4300710D01*
X774475Y4310706D02*
X764478Y4300710D01*
X744485D01*
X734488Y4310706D01*
Y4350693D01*
X744485Y4360690D01*
X764478D01*
X774475Y4350693D01*
Y4340697D01*
X764478Y4330700D01*
X734488D01*
X834456Y4783310D02*
Y4843290D01*
X804465D01*
X794469Y4833293D01*
Y4813300D01*
X804465Y4803303D01*
X834456D01*
X814462D02*
X794469Y4783310D01*
X774475Y4833293D02*
X764478Y4843290D01*
X744485D01*
X734488Y4833293D01*
Y4823297D01*
X744485Y4813300D01*
X734488Y4803303D01*
Y4793306D01*
X744485Y4783310D01*
X764478D01*
X774475Y4793306D01*
Y4803303D01*
X764478Y4813300D01*
X774475Y4823297D01*
Y4833293D01*
X764478Y4813300D02*
X744485D01*
X3904307Y840903D02*
X3944294D01*
X3954291Y830906D01*
Y810913D01*
X3944294Y800916D01*
X3904307D01*
X3894310Y810913D01*
Y830906D01*
X3914304Y820910D02*
X3894310Y840903D01*
Y830906D02*
X3904307Y840903D01*
X3944294Y860897D02*
X3954291Y870893D01*
Y890887D01*
X3944294Y900884D01*
X3934297D01*
X3924300Y890887D01*
Y880890D01*
Y890887D01*
X3914304Y900884D01*
X3904307D01*
X3894310Y890887D01*
Y870893D01*
X3904307Y860897D01*
X1300806Y4663603D02*
X1340793D01*
X1350790Y4653607D01*
Y4633613D01*
X1340793Y4623616D01*
X1300806D01*
X1290810Y4633613D01*
Y4653607D01*
X1310803Y4643610D02*
X1290810Y4663603D01*
Y4653607D02*
X1300806Y4663603D01*
X1290810Y4723584D02*
Y4683597D01*
X1330797Y4723584D01*
X1340793D01*
X1350790Y4713587D01*
Y4693594D01*
X1340793Y4683597D01*
X1326027Y5098106D02*
Y5138093D01*
X1336024Y5148090D01*
X1356018D01*
X1366014Y5138093D01*
Y5098106D01*
X1356018Y5088110D01*
X1336024D01*
X1346021Y5108103D02*
X1326027Y5088110D01*
X1336024D02*
X1326027Y5098106D01*
X1306034Y5088110D02*
X1286040D01*
X1296037D01*
Y5148090D01*
X1306034Y5138093D01*
X6413500Y1671320D02*
Y1731301D01*
X6383510D01*
X6373513Y1721304D01*
Y1701310D01*
X6383510Y1691314D01*
X6413500D01*
X6393506D02*
X6373513Y1671320D01*
X6323529D02*
Y1731301D01*
X6353519Y1701310D01*
X6313532D01*
X6273800Y1671320D02*
Y1731301D01*
X6243810D01*
X6233813Y1721304D01*
Y1701310D01*
X6243810Y1691314D01*
X6273800D01*
X6253806D02*
X6233813Y1671320D01*
X6213819Y1721304D02*
X6203823Y1731301D01*
X6183829D01*
X6173832Y1721304D01*
Y1711307D01*
X6183829Y1701310D01*
X6193826D01*
X6183829D01*
X6173832Y1691314D01*
Y1681317D01*
X6183829Y1671320D01*
X6203823D01*
X6213819Y1681317D01*
X6565900Y1671320D02*
Y1731301D01*
X6535910D01*
X6525913Y1721304D01*
Y1701310D01*
X6535910Y1691314D01*
X6565900D01*
X6545906D02*
X6525913Y1671320D01*
X6465932D02*
X6505919D01*
X6465932Y1711307D01*
Y1721304D01*
X6475929Y1731301D01*
X6495923D01*
X6505919Y1721304D01*
X6710680Y1671320D02*
Y1731301D01*
X6680690D01*
X6670693Y1721304D01*
Y1701310D01*
X6680690Y1691314D01*
X6710680D01*
X6690686D02*
X6670693Y1671320D01*
X6650699D02*
X6630706D01*
X6640703D01*
Y1731301D01*
X6650699Y1721304D01*
X5555280Y525290D02*
X5595267D01*
Y495300D01*
X5575274D01*
X5595267D01*
Y465310D01*
X5535287D02*
Y525290D01*
X5505297D01*
X5495300Y515293D01*
Y495300D01*
X5505297Y485303D01*
X5535287D01*
X5435319Y515293D02*
X5445316Y525290D01*
X5465310D01*
X5475306Y515293D01*
Y475306D01*
X5465310Y465310D01*
X5445316D01*
X5435319Y475306D01*
X5415326Y465310D02*
X5395332D01*
X5405329D01*
Y525290D01*
X5415326Y515293D01*
X2694882Y4012302D02*
X2704879Y4022299D01*
X2724872D01*
X2734869Y4012302D01*
Y3972315D01*
X2724872Y3962318D01*
X2704879D01*
X2694882Y3972315D01*
X2674888D02*
X2664892Y3962318D01*
X2644898D01*
X2634902Y3972315D01*
Y4012302D01*
X2644898Y4022299D01*
X2664892D01*
X2674888Y4012302D01*
Y4002305D01*
X2664892Y3992309D01*
X2634902D01*
X2512002Y4012302D02*
X2521999Y4022299D01*
X2541992D01*
X2551989Y4012302D01*
Y3972315D01*
X2541992Y3962318D01*
X2521999D01*
X2512002Y3972315D01*
X2492008Y4012302D02*
X2482012Y4022299D01*
X2462018D01*
X2452022Y4012302D01*
Y4002305D01*
X2462018Y3992309D01*
X2452022Y3982312D01*
Y3972315D01*
X2462018Y3962318D01*
X2482012D01*
X2492008Y3972315D01*
Y3982312D01*
X2482012Y3992309D01*
X2492008Y4002305D01*
Y4012302D01*
X2482012Y3992309D02*
X2462018D01*
X2879762Y4011591D02*
X2889759Y4021588D01*
X2909752D01*
X2919749Y4011591D01*
Y3971604D01*
X2909752Y3961607D01*
X2889759D01*
X2879762Y3971604D01*
X2859768Y4021588D02*
X2819782D01*
Y4011591D01*
X2859768Y3971604D01*
Y3961607D01*
X3896303Y4018512D02*
X3906299Y4028509D01*
X3926293D01*
X3936290Y4018512D01*
Y3978525D01*
X3926293Y3968529D01*
X3906299D01*
X3896303Y3978525D01*
X3836322Y4028509D02*
X3856315Y4018512D01*
X3876309Y3998519D01*
Y3978525D01*
X3866312Y3968529D01*
X3846319D01*
X3836322Y3978525D01*
Y3988522D01*
X3846319Y3998519D01*
X3876309D01*
X3729932Y4018512D02*
X3739929Y4028509D01*
X3759923D01*
X3769919Y4018512D01*
Y3978525D01*
X3759923Y3968529D01*
X3739929D01*
X3729932Y3978525D01*
X3669952Y4028509D02*
X3709939D01*
Y3998519D01*
X3689945Y4008516D01*
X3679948D01*
X3669952Y3998519D01*
Y3978525D01*
X3679948Y3968529D01*
X3699942D01*
X3709939Y3978525D01*
X3566102Y4018512D02*
X3576099Y4028509D01*
X3596092D01*
X3606089Y4018512D01*
Y3978525D01*
X3596092Y3968529D01*
X3576099D01*
X3566102Y3978525D01*
X3516118Y3968529D02*
Y4028509D01*
X3546108Y3998519D01*
X3506122D01*
X3399732Y4018512D02*
X3409729Y4028509D01*
X3429722D01*
X3439719Y4018512D01*
Y3978525D01*
X3429722Y3968529D01*
X3409729D01*
X3399732Y3978525D01*
X3379738Y4018512D02*
X3369742Y4028509D01*
X3349748D01*
X3339751Y4018512D01*
Y4008516D01*
X3349748Y3998519D01*
X3359745D01*
X3349748D01*
X3339751Y3988522D01*
Y3978525D01*
X3349748Y3968529D01*
X3369742D01*
X3379738Y3978525D01*
X3235902Y4018512D02*
X3245898Y4028509D01*
X3265892D01*
X3275889Y4018512D01*
Y3978525D01*
X3265892Y3968529D01*
X3245898D01*
X3235902Y3978525D01*
X3175921Y3968529D02*
X3215908D01*
X3175921Y4008516D01*
Y4018512D01*
X3185918Y4028509D01*
X3205911D01*
X3215908Y4018512D01*
X3065578Y4011591D02*
X3075575Y4021588D01*
X3095568D01*
X3105565Y4011591D01*
Y3971604D01*
X3095568Y3961607D01*
X3075575D01*
X3065578Y3971604D01*
X3045584Y3961607D02*
X3025591D01*
X3035588D01*
Y4021588D01*
X3045584Y4011591D01*
%TF.MD5,4a1f1255d5928919b14ecb315899c37e*%
M02*
