%TF.GenerationSoftware,Altium Limited,Altium Designer,22.5.1 (42)*%
G04 Layer_Color=8421504*
%FSLAX45Y45*%
%MOMM*%
%TF.SameCoordinates,ADDB7551-072C-4BAF-947E-D85C9ED3ECA7*%
%TF.FilePolarity,Positive*%
%TF.FileFunction,Paste,Top*%
%TF.Part,Single*%
G01*
G75*
%TA.AperFunction,SMDPad,CuDef*%
%ADD11R,0.50000X0.40000*%
G36*
X909764Y5357000D02*
Y5311000D01*
X905764Y5307000D01*
X855701D01*
X851700Y5311000D01*
Y5357000D01*
X855701Y5361000D01*
X905764D01*
X909764Y5357000D01*
D02*
G37*
G36*
X824700D02*
Y5311000D01*
X820699Y5307000D01*
X770636D01*
X766636Y5311000D01*
Y5357000D01*
X770636Y5361000D01*
X820699D01*
X824700Y5357000D01*
D02*
G37*
G36*
X909764Y5255400D02*
Y5209400D01*
X905764Y5205400D01*
X855701D01*
X851700Y5209400D01*
Y5255400D01*
X855701Y5259400D01*
X905764D01*
X909764Y5255400D01*
D02*
G37*
G36*
X824700D02*
Y5209400D01*
X820699Y5205400D01*
X770636D01*
X766636Y5209400D01*
Y5255400D01*
X770636Y5259400D01*
X820699D01*
X824700Y5255400D01*
D02*
G37*
G36*
X3106865Y5153800D02*
Y5107800D01*
X3102864Y5103800D01*
X3052801D01*
X3048800Y5107800D01*
Y5153800D01*
X3052801Y5157800D01*
X3102864D01*
X3106865Y5153800D01*
D02*
G37*
G36*
X3021800D02*
Y5107800D01*
X3017799Y5103800D01*
X2967736D01*
X2963735Y5107800D01*
Y5153800D01*
X2967736Y5157800D01*
X3017799D01*
X3021800Y5153800D01*
D02*
G37*
G36*
X2199983D02*
Y5107800D01*
X2195982Y5103800D01*
X2145919D01*
X2141918Y5107800D01*
Y5153800D01*
X2145919Y5157800D01*
X2195982D01*
X2199983Y5153800D01*
D02*
G37*
G36*
X2114918D02*
Y5107800D01*
X2110918Y5103800D01*
X2060854D01*
X2056854Y5107800D01*
Y5153800D01*
X2060854Y5157800D01*
X2110918D01*
X2114918Y5153800D01*
D02*
G37*
G36*
X909764D02*
Y5107800D01*
X905764Y5103800D01*
X855701D01*
X851700Y5107800D01*
Y5153800D01*
X855701Y5157800D01*
X905764D01*
X909764Y5153800D01*
D02*
G37*
G36*
X824700D02*
Y5107800D01*
X820699Y5103800D01*
X770636D01*
X766636Y5107800D01*
Y5153800D01*
X770636Y5157800D01*
X820699D01*
X824700Y5153800D01*
D02*
G37*
D11*
X1380795Y5280101D02*
D03*
Y5210099D02*
D03*
X1260805D02*
D03*
Y5280101D02*
D03*
%TF.MD5,c5d979260066fad16ce2b176198a1626*%
M02*
