%TF.GenerationSoftware,Altium Limited,Altium Designer,22.5.1 (42)*%
G04 Layer_Color=0*
%FSLAX45Y45*%
%MOMM*%
%TF.SameCoordinates,ADDB7551-072C-4BAF-947E-D85C9ED3ECA7*%
%TF.FilePolarity,Positive*%
%TF.FileFunction,Plated,1,2,PTH,Drill*%
%TF.Part,Single*%
G01*
G75*
%TA.AperFunction,ComponentDrill*%
%ADD60R,2.10000X1.20000*%
%ADD61C,1.70000*%
%ADD62C,1.19990*%
%ADD63C,1.19990*%
%TA.AperFunction,OtherDrill,Pad Free-1 (3mm,3mm)*%
%ADD64C,2.20000*%
%TA.AperFunction,OtherDrill,Pad Free-1 (97mm,3mm)*%
%ADD65C,2.20000*%
%TA.AperFunction,OtherDrill,Pad Free-1 (97mm,52mm)*%
%ADD66C,2.20000*%
%TA.AperFunction,OtherDrill,Pad Free-1 (3mm,52mm)*%
%ADD67C,2.20000*%
%TA.AperFunction,ViaDrill,NotFilled*%
%ADD68C,0.30000*%
%ADD69C,0.20000*%
D60*
X4376700Y1037737D02*
D03*
X1296700D02*
D03*
D61*
X5241700Y1002737D02*
D03*
Y4712737D02*
D03*
X431700Y1002737D02*
D03*
Y4712737D02*
D03*
D62*
X6874600Y2030600D02*
D03*
Y1530600D02*
D03*
X8124600D02*
D03*
Y2030600D02*
D03*
X6874600Y4680600D02*
D03*
Y4180600D02*
D03*
X8124600D02*
D03*
Y4680600D02*
D03*
D63*
X5924600Y2480600D02*
D03*
X6424600D02*
D03*
Y3730600D02*
D03*
X5924600D02*
D03*
X8574600Y2480600D02*
D03*
X9074600D02*
D03*
Y3730600D02*
D03*
X8574600D02*
D03*
D64*
X300000Y300000D02*
D03*
D65*
X9700000D02*
D03*
D66*
Y5200000D02*
D03*
D67*
X300000D02*
D03*
D68*
X203200Y2087034D02*
D03*
Y2840567D02*
D03*
Y3594100D02*
D03*
Y4347633D02*
D03*
X2048934Y4572000D02*
D03*
X2802467D02*
D03*
X3556000D02*
D03*
X4309533D02*
D03*
X3382434Y2070100D02*
D03*
X4135967D02*
D03*
X4889500D02*
D03*
X5643033D02*
D03*
X6722534Y914400D02*
D03*
X7476067D02*
D03*
X8229600D02*
D03*
X8983133D02*
D03*
X8962721Y314032D02*
D03*
X8209188D02*
D03*
X7455654D02*
D03*
X6702121D02*
D03*
X6997700Y2438400D02*
D03*
X5372100Y279400D02*
D03*
X5029200Y177800D02*
D03*
X6527800Y1625600D02*
D03*
X6235700D02*
D03*
X6375400D02*
D03*
X6083300D02*
D03*
X6692900D02*
D03*
X4279900Y622300D02*
D03*
X2692400Y3263900D02*
D03*
X2794000D02*
D03*
X3478309Y2985991D02*
D03*
X3886200Y3886200D02*
D03*
X3390900D02*
D03*
X3225800D02*
D03*
X2908300Y2946400D02*
D03*
X3517900Y3238500D02*
D03*
X3721100Y3886200D02*
D03*
X3556000D02*
D03*
X2501900Y3898900D02*
D03*
D69*
X1133093Y4035807D02*
D03*
X1301099Y5006851D02*
D03*
X1305307Y3393693D02*
D03*
X4064000Y749300D02*
D03*
X5461000Y317500D02*
D03*
X1295400Y2730500D02*
D03*
X863600Y5016500D02*
D03*
X1292607Y4536693D02*
D03*
X889000Y4546600D02*
D03*
X3746500Y444500D02*
D03*
X876300Y2781300D02*
D03*
X2022204Y5278585D02*
D03*
X2921000Y5283200D02*
D03*
X889000Y3378200D02*
D03*
Y4038600D02*
D03*
X685800Y5118100D02*
D03*
X635000Y5232400D02*
D03*
X571500Y5283200D02*
D03*
%TF.MD5,ff908a01230b3803f2ebeb2a8e90b1a6*%
M02*
