%TF.GenerationSoftware,Altium Limited,Altium Designer,22.5.1 (42)*%
G04 Layer_Color=0*
%FSLAX45Y45*%
%MOMM*%
%TF.SameCoordinates,ADDB7551-072C-4BAF-947E-D85C9ED3ECA7*%
%TF.FilePolarity,Positive*%
%TF.FileFunction,Profile,NP*%
%TF.Part,Single*%
G01*
G75*
%TA.AperFunction,Profile*%
%ADD57C,0.02540*%
G36*
X3641855Y469900D02*
X1790700D01*
Y734230D01*
X3638804D01*
X3641855Y469900D01*
D02*
G37*
D57*
X9999998Y5200000D02*
X9994235Y5258527D01*
X9977163Y5314805D01*
X9949440Y5366671D01*
X9912131Y5412132D01*
X9866670Y5449441D01*
X9814804Y5477164D01*
X9758526Y5494235D01*
X9699999Y5500000D01*
X299999Y5499999D01*
X241472Y5494234D01*
X185193Y5477163D01*
X133328Y5449440D01*
X87867Y5412131D01*
X50558Y5366670D01*
X22835Y5314804D01*
X5764Y5258526D01*
X-1Y5199999D01*
X-1Y299999D01*
X5764Y241472D01*
X22835Y185194D01*
X50559Y133328D01*
X87867Y87867D01*
X133328Y50558D01*
X185194Y22835D01*
X241472Y5764D01*
X300000Y-1D01*
X9699999Y0D01*
X9758527Y5764D01*
X9814804Y22836D01*
X9866671Y50559D01*
X9912132Y87868D01*
X9949440Y133329D01*
X9977163Y185194D01*
X9994235Y241473D01*
X9999999Y299999D01*
X9999998Y5200000D01*
%TF.MD5,a265f6581ca394632c20c360210031da*%
M02*
