%TF.GenerationSoftware,Altium Limited,Altium Designer,22.5.1 (42)*%
G04 Layer_Color=16711935*
%FSLAX45Y45*%
%MOMM*%
%TF.SameCoordinates,ADDB7551-072C-4BAF-947E-D85C9ED3ECA7*%
%TF.FilePolarity,Negative*%
%TF.FileFunction,Soldermask,Bot*%
%TF.Part,Single*%
G01*
G75*
%TA.AperFunction,ComponentPad*%
%ADD16C,1.70790*%
%TA.AperFunction,SMDPad,CuDef*%
%ADD33R,0.96561X0.90808*%
%ADD34R,0.50320X1.50320*%
%ADD35R,2.20320X3.20319*%
%ADD36R,0.66726X0.64160*%
%ADD37R,1.13909X0.63360*%
%ADD38R,0.63360X1.13909*%
%ADD39R,0.64160X0.66726*%
%TA.AperFunction,ConnectorPad*%
%ADD40R,2.10002X2.60002*%
%ADD41R,0.40002X1.35004*%
%TA.AperFunction,SMDPad,CuDef*%
%ADD42R,1.00160X0.90160*%
%TA.AperFunction,ComponentPad*%
G04:AMPARAMS|DCode=43|XSize=3.2032mm|YSize=2.2032mm|CornerRadius=0.6016mm|HoleSize=0mm|Usage=FLASHONLY|Rotation=0.000|XOffset=0mm|YOffset=0mm|HoleType=Round|Shape=RoundedRectangle|*
%AMROUNDEDRECTD43*
21,1,3.20320,1.00000,0,0,0.0*
21,1,2.00000,2.20320,0,0,0.0*
1,1,1.20320,1.00000,-0.50000*
1,1,1.20320,-1.00000,-0.50000*
1,1,1.20320,-1.00000,0.50000*
1,1,1.20320,1.00000,0.50000*
%
%ADD43ROUNDEDRECTD43*%
%ADD44C,1.90320*%
%TA.AperFunction,ViaPad*%
%ADD45C,4.20320*%
%ADD46C,0.80320*%
%ADD47C,0.60320*%
D16*
X6874600Y2030600D02*
D03*
Y1530600D02*
D03*
X8124600D02*
D03*
Y2030600D02*
D03*
X5924600Y2480600D02*
D03*
X6424600D02*
D03*
Y3730600D02*
D03*
X5924600D02*
D03*
X8574600Y2480600D02*
D03*
X9074600D02*
D03*
Y3730600D02*
D03*
X8574600D02*
D03*
X6874600Y4680600D02*
D03*
Y4180600D02*
D03*
X8124600D02*
D03*
Y4680600D02*
D03*
D33*
X6692900Y1497724D02*
D03*
Y1347076D02*
D03*
X6527800Y1498600D02*
D03*
Y1347953D02*
D03*
X6375400Y1497724D02*
D03*
Y1347076D02*
D03*
X6235700Y1497724D02*
D03*
Y1347076D02*
D03*
D34*
X2231407Y3111500D02*
D03*
X2181420D02*
D03*
X2131407D02*
D03*
X2481419D02*
D03*
X2331407D02*
D03*
X2281420D02*
D03*
X2531406D02*
D03*
X2381419D02*
D03*
X2581419D02*
D03*
X2431407D02*
D03*
X3231405D02*
D03*
X3131405D02*
D03*
X3181418D02*
D03*
X3081418D02*
D03*
X3031405D02*
D03*
X2981418D02*
D03*
X2881418D02*
D03*
X2831406D02*
D03*
X2781419D02*
D03*
X2731406D02*
D03*
X2931406D02*
D03*
X2681419D02*
D03*
X2631406D02*
D03*
X3281418D02*
D03*
X3481417D02*
D03*
X3431405D02*
D03*
X3381417D02*
D03*
X3331405D02*
D03*
X3531404D02*
D03*
X3581417D02*
D03*
D35*
X1966424Y2876512D02*
D03*
X3746428D02*
D03*
D36*
X952500Y4038600D02*
D03*
X1039063D02*
D03*
X952500Y3378200D02*
D03*
X1039063D02*
D03*
X952500Y3848100D02*
D03*
X1039063D02*
D03*
X952500Y3200400D02*
D03*
X1039063D02*
D03*
X952500Y2603500D02*
D03*
X1039063D02*
D03*
X952500Y2781300D02*
D03*
X1039063D02*
D03*
X1046582Y4546600D02*
D03*
X960018D02*
D03*
X1039063Y4356100D02*
D03*
X952500D02*
D03*
X1021182Y5016500D02*
D03*
X934618D02*
D03*
X1021182Y4826000D02*
D03*
X934618D02*
D03*
X4132682Y1041400D02*
D03*
X4046118D02*
D03*
D37*
X1430924Y3937000D02*
D03*
X1210676Y4032001D02*
D03*
Y3841999D02*
D03*
X1430924Y3302000D02*
D03*
X1210676Y3397001D02*
D03*
Y3206999D02*
D03*
X1430924Y2692400D02*
D03*
X1210676Y2787401D02*
D03*
Y2597399D02*
D03*
X1215903Y4819899D02*
D03*
Y5009901D02*
D03*
X1436152Y4914900D02*
D03*
X1210676Y4349999D02*
D03*
Y4540001D02*
D03*
X1430924Y4445000D02*
D03*
D38*
X3933698Y543677D02*
D03*
X3743696D02*
D03*
X3838697Y763925D02*
D03*
D39*
X4064000Y586537D02*
D03*
Y673100D02*
D03*
X4178300Y586537D02*
D03*
Y673100D02*
D03*
D40*
X4406001Y154150D02*
D03*
X5593999Y150647D02*
D03*
D41*
X4575007Y408148D02*
D03*
X4625020D02*
D03*
X4675007D02*
D03*
X4725020D02*
D03*
X4775007D02*
D03*
X4825019D02*
D03*
X5424995Y408153D02*
D03*
X5375008D02*
D03*
X5324995D02*
D03*
X5275008D02*
D03*
X5224996D02*
D03*
X5175008D02*
D03*
X5124996D02*
D03*
X5075009D02*
D03*
X5024996D02*
D03*
X4975009D02*
D03*
X4924996D02*
D03*
X4875009D02*
D03*
D42*
X3225800Y3778390D02*
D03*
Y3638410D02*
D03*
X3886200D02*
D03*
Y3778390D02*
D03*
X3721100Y3638410D02*
D03*
Y3778390D02*
D03*
X3556000Y3638410D02*
D03*
Y3778390D02*
D03*
X3390900Y3638410D02*
D03*
Y3778390D02*
D03*
X3053810Y3773729D02*
D03*
Y3633749D02*
D03*
X2869660Y3773729D02*
D03*
Y3633749D02*
D03*
X2685510Y3773729D02*
D03*
Y3633749D02*
D03*
X2501902Y3632200D02*
D03*
Y3772179D02*
D03*
D43*
X4376700Y1037737D02*
D03*
X1296700D02*
D03*
D44*
X5241700Y1002737D02*
D03*
Y4712737D02*
D03*
X431700Y1002737D02*
D03*
Y4712737D02*
D03*
D45*
X300000Y300000D02*
D03*
X9700000D02*
D03*
Y5200000D02*
D03*
X300000D02*
D03*
D46*
X203200Y2087034D02*
D03*
Y2840567D02*
D03*
Y3594100D02*
D03*
Y4347633D02*
D03*
X2048934Y4572000D02*
D03*
X2802467D02*
D03*
X3556000D02*
D03*
X4309533D02*
D03*
X3382434Y2070100D02*
D03*
X4135967D02*
D03*
X4889500D02*
D03*
X5643033D02*
D03*
X6722534Y914400D02*
D03*
X7476067D02*
D03*
X8229600D02*
D03*
X8983133D02*
D03*
X8962721Y314032D02*
D03*
X8209188D02*
D03*
X7455654D02*
D03*
X6702121D02*
D03*
X6997700Y2438400D02*
D03*
X5372100Y279400D02*
D03*
X5029200Y177800D02*
D03*
X6527800Y1625600D02*
D03*
X6235700D02*
D03*
X6375400D02*
D03*
X6083300D02*
D03*
X6692900D02*
D03*
X4279900Y622300D02*
D03*
X2692400Y3263900D02*
D03*
X2794000D02*
D03*
X3478309Y2985991D02*
D03*
X3886200Y3886200D02*
D03*
X3390900D02*
D03*
X3225800D02*
D03*
X2908300Y2946400D02*
D03*
X3517900Y3238500D02*
D03*
X3721100Y3886200D02*
D03*
X3556000D02*
D03*
X2501900Y3898900D02*
D03*
D47*
X1133093Y4035807D02*
D03*
X1301099Y5006851D02*
D03*
X1305307Y3393693D02*
D03*
X4064000Y749300D02*
D03*
X5461000Y317500D02*
D03*
X1295400Y2730500D02*
D03*
X863600Y5016500D02*
D03*
X1292607Y4536693D02*
D03*
X889000Y4546600D02*
D03*
X3746500Y444500D02*
D03*
X876300Y2781300D02*
D03*
X2022204Y5278585D02*
D03*
X2921000Y5283200D02*
D03*
X889000Y3378200D02*
D03*
Y4038600D02*
D03*
X685800Y5118100D02*
D03*
X635000Y5232400D02*
D03*
X571500Y5283200D02*
D03*
%TF.MD5,e205b9d9e64e6b335ab37077555f792f*%
M02*
