%TF.GenerationSoftware,Altium Limited,Altium Designer,22.5.1 (42)*%
G04 Layer_Color=255*
%FSLAX45Y45*%
%MOMM*%
%TF.SameCoordinates,ADDB7551-072C-4BAF-947E-D85C9ED3ECA7*%
%TF.FilePolarity,Positive*%
%TF.FileFunction,Pads,Top*%
%TF.Part,Single*%
G01*
G75*
%TA.AperFunction,SMDPad,CuDef*%
%ADD10R,0.56566X0.54000*%
%ADD11R,0.50000X0.40000*%
%TA.AperFunction,ComponentPad*%
G04:AMPARAMS|DCode=14|XSize=3mm|YSize=2mm|CornerRadius=0.5mm|HoleSize=0mm|Usage=FLASHONLY|Rotation=0.000|XOffset=0mm|YOffset=0mm|HoleType=Round|Shape=RoundedRectangle|*
%AMROUNDEDRECTD14*
21,1,3.00000,1.00000,0,0,0.0*
21,1,2.00000,2.00000,0,0,0.0*
1,1,1.00000,1.00000,-0.50000*
1,1,1.00000,-1.00000,-0.50000*
1,1,1.00000,-1.00000,0.50000*
1,1,1.00000,1.00000,0.50000*
%
%ADD14ROUNDEDRECTD14*%
%ADD15C,1.70000*%
%ADD16C,1.70790*%
%ADD17C,1.80000*%
%TA.AperFunction,ViaPad*%
%ADD18C,4.00000*%
D10*
X2992018Y5283200D02*
D03*
X3078582D02*
D03*
Y5130800D02*
D03*
X2992018D02*
D03*
X881482D02*
D03*
X794918D02*
D03*
X881482Y5232400D02*
D03*
X794918D02*
D03*
X881482Y5334000D02*
D03*
X794918D02*
D03*
X2085137Y5130800D02*
D03*
X2171700D02*
D03*
Y5283200D02*
D03*
X2085137D02*
D03*
D11*
X1380795Y5280101D02*
D03*
Y5210099D02*
D03*
X1260805D02*
D03*
Y5280101D02*
D03*
D14*
X4376700Y1037737D02*
D03*
X1296700D02*
D03*
D15*
X5241700Y1002737D02*
D03*
Y4712737D02*
D03*
X431700Y1002737D02*
D03*
Y4712737D02*
D03*
D16*
X6874600Y2030600D02*
D03*
Y1530600D02*
D03*
X8124600D02*
D03*
Y2030600D02*
D03*
X5924600Y2480600D02*
D03*
X6424600D02*
D03*
Y3730600D02*
D03*
X5924600D02*
D03*
X8574600Y2480600D02*
D03*
X9074600D02*
D03*
Y3730600D02*
D03*
X8574600D02*
D03*
X6874600Y4680600D02*
D03*
Y4180600D02*
D03*
X8124600D02*
D03*
Y4680600D02*
D03*
D17*
X7499600Y2230600D02*
D03*
Y1330600D02*
D03*
X5724600Y3105600D02*
D03*
X6624600D02*
D03*
X8374600D02*
D03*
X9274600D02*
D03*
X7499600Y4880600D02*
D03*
Y3980600D02*
D03*
D18*
X300000Y300000D02*
D03*
X9700000D02*
D03*
Y5200000D02*
D03*
X300000D02*
D03*
%TF.MD5,a352b97b2d35cb8c8d22a9683ef980c1*%
M02*
