%TF.GenerationSoftware,Altium Limited,Altium Designer,22.5.1 (42)*%
G04 Layer_Physical_Order=2*
G04 Layer_Color=16711680*
%FSLAX45Y45*%
%MOMM*%
%TF.SameCoordinates,ADDB7551-072C-4BAF-947E-D85C9ED3ECA7*%
%TF.FilePolarity,Positive*%
%TF.FileFunction,Copper,L2,Bot,Signal*%
%TF.Part,Single*%
G01*
G75*
%TA.AperFunction,SMDPad,CuDef*%
%ADD10R,0.56566X0.54000*%
%TA.AperFunction,Conductor*%
%ADD12C,0.25400*%
%ADD13C,0.30000*%
%TA.AperFunction,ComponentPad*%
G04:AMPARAMS|DCode=14|XSize=3mm|YSize=2mm|CornerRadius=0.5mm|HoleSize=0mm|Usage=FLASHONLY|Rotation=0.000|XOffset=0mm|YOffset=0mm|HoleType=Round|Shape=RoundedRectangle|*
%AMROUNDEDRECTD14*
21,1,3.00000,1.00000,0,0,0.0*
21,1,2.00000,2.00000,0,0,0.0*
1,1,1.00000,1.00000,-0.50000*
1,1,1.00000,-1.00000,-0.50000*
1,1,1.00000,-1.00000,0.50000*
1,1,1.00000,1.00000,0.50000*
%
%ADD14ROUNDEDRECTD14*%
%ADD15C,1.70000*%
%ADD16C,1.70790*%
%ADD17C,1.80000*%
%TA.AperFunction,ViaPad*%
%ADD18C,4.00000*%
%ADD19C,0.60000*%
%ADD20C,0.40000*%
%TA.AperFunction,SMDPad,CuDef*%
%ADD21R,0.86401X0.80648*%
%ADD22R,0.30000X1.30000*%
%ADD23R,2.00000X2.99999*%
%ADD24R,1.03749X0.53200*%
%ADD25R,0.53200X1.03749*%
%ADD26R,0.54000X0.56566*%
%TA.AperFunction,ConnectorPad*%
%ADD27R,2.00000X2.50000*%
%ADD28R,0.30000X1.25001*%
%TA.AperFunction,SMDPad,CuDef*%
%ADD29R,0.90000X0.80000*%
G36*
X9758526Y5494235D02*
X9814804Y5477164D01*
X9866670Y5449441D01*
X9912131Y5412132D01*
X9949440Y5366671D01*
X9977163Y5314805D01*
X9994235Y5258527D01*
X9999998Y5200000D01*
X9999999Y299999D01*
X9994235Y241473D01*
X9977163Y185194D01*
X9949440Y133329D01*
X9912132Y87868D01*
X9866671Y50559D01*
X9814804Y22836D01*
X9758527Y5764D01*
X9699999Y0D01*
X5713953Y-0D01*
X5708999Y12700D01*
Y290647D01*
X5491647D01*
X5484858Y303347D01*
X5487093Y306692D01*
X5489243Y317500D01*
X5487093Y328308D01*
X5485931Y330047D01*
X5484299Y338249D01*
X5478177Y347412D01*
X5478176Y347412D01*
X5453238Y372351D01*
Y408153D01*
X5451088Y418961D01*
X5444966Y428123D01*
X5435803Y434246D01*
X5424995Y436395D01*
X5417708Y434946D01*
X5407759Y440648D01*
X5405008Y443386D01*
Y485653D01*
X5303251D01*
Y577010D01*
X5412699Y686457D01*
X5854414D01*
X5854415Y686457D01*
X5865223Y688607D01*
X5874386Y694729D01*
X6357914Y1178257D01*
X6549446D01*
X6549447Y1178257D01*
X6560255Y1180407D01*
X6569418Y1186529D01*
X6674641Y1291753D01*
X6751100D01*
Y1318834D01*
X6896975D01*
X6896976Y1318833D01*
X6907785Y1320983D01*
X6916947Y1327106D01*
X7045249Y1455408D01*
X7045250Y1455408D01*
X7051372Y1464571D01*
X7053522Y1475379D01*
Y1991721D01*
X7051372Y2002529D01*
X7045250Y2011692D01*
X7045249Y2011692D01*
X7006371Y2050571D01*
X6997208Y2056693D01*
X6986400Y2058843D01*
X6986399Y2058843D01*
X6970969D01*
X6968153Y2069351D01*
X6954936Y2092244D01*
X6936244Y2110936D01*
X6913351Y2124153D01*
X6887817Y2130995D01*
X6861383D01*
X6835849Y2124153D01*
X6812956Y2110936D01*
X6794264Y2092244D01*
X6781047Y2069351D01*
X6774205Y2043817D01*
Y2017383D01*
X6781047Y1991849D01*
X6794264Y1968956D01*
X6812956Y1950264D01*
X6835849Y1937047D01*
X6861383Y1930205D01*
X6887817D01*
X6913351Y1937047D01*
X6936244Y1950264D01*
X6954936Y1968956D01*
X6967822Y1991276D01*
X6968265Y1991874D01*
X6982127Y1994931D01*
X6997036Y1980022D01*
Y1487078D01*
X6885278Y1375319D01*
X6751100D01*
Y1402400D01*
X6643026D01*
X6637765Y1415100D01*
X6641970Y1419305D01*
X6641970Y1419305D01*
X6648093Y1428468D01*
X6650242Y1439276D01*
Y1442400D01*
X6751100D01*
Y1553047D01*
X6723488D01*
Y1592548D01*
X6731049Y1600110D01*
X6737900Y1616649D01*
Y1634551D01*
X6731049Y1651090D01*
X6718390Y1663749D01*
X6701851Y1670600D01*
X6683949D01*
X6667410Y1663749D01*
X6662942Y1659282D01*
X6650242Y1664543D01*
Y2052842D01*
X6990800Y2393400D01*
X7006651D01*
X7023190Y2400251D01*
X7035849Y2412910D01*
X7042700Y2429449D01*
Y2447351D01*
X7035849Y2463890D01*
X7031882Y2467857D01*
X7037143Y2480557D01*
X7714354D01*
X7734281Y2460630D01*
X7734281Y2460629D01*
X7743444Y2454507D01*
X7754252Y2452357D01*
X8478231D01*
X8481047Y2441849D01*
X8494264Y2418956D01*
X8512956Y2400264D01*
X8535849Y2387047D01*
X8561383Y2380205D01*
X8587817D01*
X8613351Y2387047D01*
X8636244Y2400264D01*
X8654936Y2418956D01*
X8668153Y2441849D01*
X8674995Y2467383D01*
Y2493817D01*
X8668153Y2519351D01*
X8654936Y2542244D01*
X8636244Y2560936D01*
X8613351Y2574153D01*
X8587817Y2580995D01*
X8561383D01*
X8535849Y2574153D01*
X8512956Y2560936D01*
X8494264Y2542244D01*
X8481047Y2519351D01*
X8478231Y2508843D01*
X7765951D01*
X7746023Y2528771D01*
X7736861Y2534893D01*
X7726052Y2537043D01*
X7726051Y2537043D01*
X6972867D01*
X6972866Y2537043D01*
X6962058Y2534893D01*
X6952895Y2528771D01*
X6952895Y2528770D01*
X6431629Y2007505D01*
X6425507Y1998342D01*
X6423357Y1987534D01*
X6423357Y1987533D01*
Y1658072D01*
X6410657Y1653982D01*
X6400890Y1663749D01*
X6384351Y1670600D01*
X6366449D01*
X6349910Y1663749D01*
X6337251Y1651090D01*
X6330400Y1634551D01*
Y1616649D01*
X6337251Y1600110D01*
X6344812Y1592548D01*
Y1553047D01*
X6317200D01*
Y1442400D01*
X6417567D01*
X6420959Y1429700D01*
X6393659Y1402400D01*
X6317200D01*
Y1331694D01*
X6305634Y1320128D01*
X6293900Y1324988D01*
Y1402400D01*
X6207618D01*
X6182343Y1427675D01*
Y1442400D01*
X6293900D01*
Y1553047D01*
X6266288D01*
Y1592548D01*
X6273849Y1600110D01*
X6280700Y1616649D01*
Y1634551D01*
X6273849Y1651090D01*
X6261190Y1663749D01*
X6244651Y1670600D01*
X6226749D01*
X6210210Y1663749D01*
X6197551Y1651090D01*
X6195143Y1645277D01*
X6182443Y1647804D01*
Y2251000D01*
X6180293Y2261808D01*
X6174171Y2270971D01*
X6174170Y2270971D01*
X6012714Y2432428D01*
X6018153Y2441849D01*
X6024995Y2467383D01*
Y2493817D01*
X6018153Y2519351D01*
X6004936Y2542244D01*
X5986244Y2560936D01*
X5963351Y2574153D01*
X5937817Y2580995D01*
X5911383D01*
X5885849Y2574153D01*
X5862956Y2560936D01*
X5844264Y2542244D01*
X5831047Y2519351D01*
X5824205Y2493817D01*
Y2467383D01*
X5831047Y2441849D01*
X5844264Y2418956D01*
X5862956Y2400264D01*
X5885849Y2387047D01*
X5911383Y2380205D01*
X5937817D01*
X5963351Y2387047D01*
X5972772Y2392486D01*
X6125958Y2239301D01*
Y1664543D01*
X6113258Y1659282D01*
X6108790Y1663749D01*
X6092251Y1670600D01*
X6074349D01*
X6057810Y1663749D01*
X6045151Y1651090D01*
X6038300Y1634551D01*
Y1616649D01*
X6045151Y1600110D01*
X6052712Y1592548D01*
Y1498600D01*
X6055041Y1486895D01*
X6061671Y1476971D01*
X6071595Y1470341D01*
X6083300Y1468012D01*
X6095005Y1470341D01*
X6104929Y1476971D01*
X6111559Y1486895D01*
X6113258Y1495432D01*
X6125958Y1494181D01*
Y1447208D01*
X6125857Y1446702D01*
X6125857Y1446701D01*
Y1415978D01*
X6125857Y1415976D01*
X6128007Y1405168D01*
X6134129Y1396006D01*
X6134130Y1396005D01*
X6177500Y1352635D01*
Y1291753D01*
X6193185D01*
X6198445Y1279053D01*
X5783535Y864143D01*
X5325335D01*
X5325334Y864143D01*
X5314526Y861993D01*
X5305363Y855871D01*
X5105025Y655533D01*
X5098903Y646370D01*
X5096753Y635562D01*
X5096753Y635561D01*
Y485653D01*
X5055584D01*
Y1210704D01*
X5053255Y1222410D01*
X5046625Y1232333D01*
X5046624Y1232333D01*
X4695229Y1583729D01*
X4685305Y1590359D01*
X4673600Y1592688D01*
X4673599Y1592688D01*
X3174970D01*
X2861994Y1905664D01*
Y2939191D01*
X2874694Y2945427D01*
X2881097Y2941171D01*
X2882207Y2935592D01*
X2888329Y2926429D01*
X2897492Y2920307D01*
X2908300Y2918157D01*
X2919108Y2920307D01*
X2928271Y2926429D01*
X2934393Y2935592D01*
X2936543Y2946400D01*
Y2955763D01*
X2934393Y2966571D01*
X2928271Y2975733D01*
X2928270Y2975734D01*
X2909661Y2994343D01*
Y3031500D01*
X3453157D01*
Y2998209D01*
X3452216Y2996800D01*
X3450066Y2985991D01*
X3452216Y2975183D01*
X3458338Y2966021D01*
X3467501Y2959899D01*
X3478309Y2957748D01*
X3489117Y2959899D01*
X3498280Y2966021D01*
X3501370Y2969112D01*
X3501371Y2969112D01*
X3507493Y2978275D01*
X3509643Y2989083D01*
Y3077440D01*
X3517666Y3083285D01*
X3522343Y3085056D01*
X3531387Y3083257D01*
X3538717Y3084715D01*
X3548626Y3079052D01*
X3551417Y3076295D01*
Y3031500D01*
X3611417D01*
Y3191500D01*
X3559630D01*
Y3215649D01*
X3559630Y3215650D01*
X3557480Y3226458D01*
X3551358Y3235621D01*
X3551357Y3235621D01*
X3545563Y3241416D01*
X3543993Y3249308D01*
X3537871Y3258471D01*
X3528708Y3264593D01*
X3517900Y3266743D01*
X3507092Y3264593D01*
X3497929Y3258471D01*
X3491807Y3249308D01*
X3489657Y3238500D01*
Y3229139D01*
X3489657Y3229137D01*
X3491807Y3218329D01*
X3497929Y3209167D01*
X3503145Y3203951D01*
Y3145560D01*
X3495122Y3139715D01*
X3490444Y3137944D01*
X3481400Y3139743D01*
X3474105Y3138292D01*
X3464163Y3143986D01*
X3461405Y3146728D01*
Y3191500D01*
X3459630D01*
Y3324455D01*
X3548633Y3413457D01*
X3689488D01*
X3689490Y3413457D01*
X3700298Y3415607D01*
X3709460Y3421729D01*
X3871141Y3583410D01*
X3946200D01*
Y3693410D01*
X3826200D01*
Y3618352D01*
X3793800Y3585952D01*
X3781100Y3591212D01*
Y3693410D01*
X3661100D01*
Y3618352D01*
X3628700Y3585952D01*
X3616000Y3591212D01*
Y3693410D01*
X3496000D01*
Y3613840D01*
X3495457Y3611110D01*
X3495457Y3611109D01*
Y3560799D01*
X3431293Y3496635D01*
X3418593Y3501895D01*
Y3583410D01*
X3450900D01*
Y3693410D01*
X3330900D01*
Y3583410D01*
X3362108D01*
Y3503649D01*
X3272331Y3413872D01*
X3259631Y3419133D01*
Y3583410D01*
X3285800D01*
Y3693410D01*
X3177549D01*
X3165323Y3695606D01*
X3163269Y3705062D01*
X3162993Y3706446D01*
X3156871Y3715609D01*
X3156870Y3715610D01*
X3113810Y3758670D01*
Y3828729D01*
X2993810D01*
Y3718729D01*
X3073868D01*
X3092114Y3700483D01*
X3087254Y3688749D01*
X2995084D01*
X2994723Y3690567D01*
X2988601Y3699729D01*
X2929660Y3758670D01*
Y3828729D01*
X2809660D01*
Y3718729D01*
X2800061Y3711243D01*
X2792938D01*
X2745510Y3758670D01*
Y3828729D01*
X2625510D01*
Y3718729D01*
X2705569D01*
X2723815Y3700483D01*
X2718955Y3688749D01*
X2625510D01*
Y3615925D01*
X2613777Y3611065D01*
X2590093Y3634749D01*
X2580931Y3640871D01*
X2570123Y3643021D01*
X2561901Y3651640D01*
Y3687200D01*
X2441902D01*
Y3577200D01*
X2561901D01*
X2561901Y3577200D01*
Y3577200D01*
X2572660Y3572299D01*
X2903146Y3241813D01*
Y3191500D01*
X2901406D01*
Y3146734D01*
X2898655Y3143995D01*
X2888705Y3138293D01*
X2881418Y3139743D01*
X2874694Y3138405D01*
X2861994Y3145947D01*
Y3221499D01*
X2861994Y3221500D01*
X2859665Y3233205D01*
X2853035Y3243129D01*
X2839000Y3257163D01*
Y3272851D01*
X2832149Y3289390D01*
X2819490Y3302049D01*
X2802951Y3308900D01*
X2785049D01*
X2768510Y3302049D01*
X2755851Y3289390D01*
X2749000Y3272851D01*
Y3254949D01*
X2755851Y3238410D01*
X2768510Y3225751D01*
X2785049Y3218900D01*
X2790748D01*
X2800818Y3208830D01*
Y3191500D01*
X2101407D01*
Y3031500D01*
X2153160D01*
Y1810008D01*
X2140460Y1804748D01*
X1730043Y2215165D01*
Y3949699D01*
X1730043Y3949700D01*
X1727893Y3960508D01*
X1721771Y3969671D01*
X1442371Y4249071D01*
X1433208Y4255193D01*
X1422400Y4257343D01*
X1422399Y4257343D01*
X1053098D01*
X1008075Y4302367D01*
X1012935Y4314100D01*
X1082346D01*
Y4321756D01*
X1143801D01*
Y4308399D01*
X1277550D01*
Y4391599D01*
X1143801D01*
Y4378242D01*
X1082346D01*
Y4398100D01*
X1071065D01*
Y4504600D01*
X1089864D01*
Y4588600D01*
X1003299D01*
Y4504600D01*
X1014580D01*
Y4398100D01*
X909217D01*
Y4314100D01*
X938424D01*
X939840Y4302417D01*
X941990Y4291609D01*
X948112Y4282446D01*
X1011316Y4219243D01*
X1006055Y4206543D01*
X824499D01*
X675943Y4355099D01*
Y5068301D01*
X690742Y5083100D01*
X692762D01*
X705626Y5088428D01*
X715472Y5098274D01*
X720800Y5111138D01*
Y5125062D01*
X715472Y5137926D01*
X705626Y5147772D01*
X692762Y5153100D01*
X678838D01*
X675943Y5151901D01*
X663243Y5160387D01*
Y5211145D01*
X664672Y5212574D01*
X670000Y5225438D01*
Y5239362D01*
X664672Y5252226D01*
X654826Y5262072D01*
X641962Y5267400D01*
X628038D01*
X615174Y5262072D01*
X613816Y5260713D01*
X603049Y5267907D01*
X606500Y5276238D01*
Y5290162D01*
X601172Y5303026D01*
X591326Y5312872D01*
X578462Y5318200D01*
X564538D01*
X551674Y5312872D01*
X541828Y5303026D01*
X536500Y5290162D01*
Y5276238D01*
X541828Y5263374D01*
X543257Y5261945D01*
Y5127943D01*
X540807Y5124276D01*
X538657Y5113468D01*
X538657Y5113467D01*
Y4749005D01*
X525957Y4747333D01*
X524885Y4751335D01*
X511720Y4774138D01*
X493101Y4792756D01*
X470298Y4805922D01*
X444865Y4812737D01*
X418535D01*
X393102Y4805922D01*
X370299Y4792756D01*
X351680Y4774138D01*
X338515Y4751335D01*
X331700Y4725902D01*
Y4699571D01*
X338515Y4674138D01*
X351680Y4651336D01*
X370299Y4632717D01*
X393102Y4619552D01*
X418535Y4612737D01*
X444865D01*
X470298Y4619552D01*
X493101Y4632717D01*
X511720Y4651336D01*
X524885Y4674138D01*
X525957Y4678141D01*
X538657Y4676468D01*
Y3293901D01*
X538657Y3293900D01*
X540807Y3283092D01*
X546929Y3273929D01*
X919829Y2901029D01*
X928992Y2894907D01*
X939800Y2892757D01*
X1220201D01*
X1363507Y2749451D01*
Y2706301D01*
X1363507Y2706300D01*
X1364050Y2703570D01*
Y2650800D01*
X1497799D01*
Y2734000D01*
X1419993D01*
Y2761149D01*
X1419993Y2761150D01*
X1417843Y2771958D01*
X1411721Y2781121D01*
X1251871Y2940971D01*
X1242708Y2947093D01*
X1231900Y2949243D01*
X1231899Y2949243D01*
X951499D01*
X595143Y3305599D01*
Y4053688D01*
X606876Y4058549D01*
X1015096Y3650329D01*
X1024258Y3644207D01*
X1035066Y3642057D01*
X1035068Y3642057D01*
X1158192D01*
X1343357Y3456893D01*
Y3413846D01*
X1341275Y3412378D01*
X1325277Y3413664D01*
X1316114Y3419786D01*
X1305307Y3421936D01*
X1223217D01*
X1221484Y3423094D01*
X1210676Y3425244D01*
X1199868Y3423094D01*
X1190705Y3416972D01*
X1184583Y3407809D01*
X1182433Y3397001D01*
X1184583Y3386193D01*
X1190705Y3377030D01*
X1194013Y3373723D01*
X1203175Y3367601D01*
X1213983Y3365450D01*
X1213985Y3365451D01*
X1305307D01*
X1316114Y3367601D01*
X1325277Y3373723D01*
X1341275Y3375008D01*
X1343357Y3373541D01*
Y3330780D01*
X1343357Y3330779D01*
X1345507Y3319971D01*
X1351629Y3310808D01*
X1364050Y3298388D01*
Y3260400D01*
X1497799D01*
Y3343600D01*
X1419754D01*
X1417024Y3344143D01*
X1417023Y3344143D01*
X1399843D01*
Y3445822D01*
X1411576Y3450682D01*
X1633157Y3229101D01*
Y3008078D01*
X1621424Y3003218D01*
X1458971Y3165671D01*
X1449808Y3171793D01*
X1439000Y3173943D01*
X1438999Y3173943D01*
X1277550D01*
Y3248599D01*
X1143801D01*
Y3231942D01*
X1082346D01*
Y3242400D01*
X1067306D01*
Y3336200D01*
X1082346D01*
Y3420200D01*
X995780D01*
Y3336200D01*
X1010820D01*
Y3242400D01*
X909217D01*
Y3158400D01*
X955539D01*
X956987Y3151118D01*
X963110Y3141955D01*
X979335Y3125730D01*
X979336Y3125729D01*
X988498Y3119607D01*
X999307Y3117457D01*
X1427301D01*
X1592757Y2952001D01*
Y2451578D01*
X1581024Y2446717D01*
X1531271Y2496471D01*
X1522108Y2502593D01*
X1511300Y2504743D01*
X1511299Y2504743D01*
X1083305D01*
X1038281Y2549767D01*
X1043142Y2561500D01*
X1082346D01*
Y2572207D01*
X1143801D01*
Y2555799D01*
X1277550D01*
Y2638999D01*
X1143801D01*
Y2628692D01*
X1082346D01*
Y2645500D01*
X1067306D01*
Y2739300D01*
X1082346D01*
Y2823300D01*
X995780D01*
Y2739300D01*
X1010820D01*
Y2645500D01*
X909217D01*
Y2561500D01*
X955539D01*
X956987Y2554218D01*
X963110Y2545055D01*
X1051636Y2456529D01*
X1060798Y2450407D01*
X1071606Y2448257D01*
X1071608Y2448257D01*
X1499601D01*
X1552357Y2395501D01*
Y2153265D01*
X1552357Y2153264D01*
X1554507Y2142456D01*
X1560629Y2133293D01*
X2528093Y1165830D01*
X2528093Y1165830D01*
X2537256Y1159707D01*
X2548064Y1157558D01*
X4242221D01*
X4244748Y1144858D01*
X4243919Y1144514D01*
X4230342Y1134096D01*
X4219923Y1120517D01*
X4213373Y1104706D01*
X4211139Y1087737D01*
Y1069643D01*
X4175964D01*
Y1083400D01*
X4002836D01*
Y999400D01*
X4015531D01*
Y970383D01*
X4015530Y970382D01*
X4017859Y958677D01*
X4024490Y948753D01*
X4294562Y678681D01*
X4290029Y669647D01*
X4287982Y667300D01*
X4274841D01*
X4249071Y693071D01*
X4239908Y699193D01*
X4229100Y701343D01*
X4220300Y709575D01*
Y716383D01*
X4136300D01*
Y614780D01*
X4106000D01*
Y629820D01*
X4022000D01*
Y614780D01*
X3976558D01*
X3965750Y612630D01*
X3963452Y611094D01*
X3947599D01*
X3947598Y611094D01*
X3944868Y610551D01*
X3892098D01*
Y476802D01*
X3975298D01*
Y555091D01*
X3983681Y556758D01*
X3985979Y558294D01*
X4022000D01*
Y543254D01*
X4106000D01*
Y558294D01*
X4136300D01*
Y543254D01*
X4220300D01*
Y610780D01*
X4233000Y617568D01*
X4234900Y616299D01*
Y613349D01*
X4241751Y596810D01*
X4254410Y584151D01*
X4270949Y577300D01*
X4288851D01*
X4305390Y584151D01*
X4318049Y596810D01*
X4324900Y613349D01*
Y630382D01*
X4327247Y632429D01*
X4336281Y636962D01*
X4363612Y609630D01*
Y444502D01*
X4363612Y444500D01*
X4365941Y432795D01*
X4372571Y422871D01*
X4489559Y305883D01*
X4484699Y294150D01*
X4291001D01*
Y14150D01*
X4521000D01*
Y257850D01*
X4533700Y264639D01*
X4534895Y263841D01*
X4546600Y261512D01*
X4546602Y261512D01*
X4978882D01*
X4978883Y261512D01*
X4981708Y262074D01*
X4994408Y252281D01*
Y206648D01*
X4991051Y203290D01*
X4984200Y186751D01*
Y168849D01*
X4991051Y152310D01*
X5003710Y139651D01*
X5020249Y132800D01*
X5038151D01*
X5054690Y139651D01*
X5067349Y152310D01*
X5074200Y168849D01*
Y186751D01*
X5067349Y203290D01*
X5055584Y215056D01*
Y330652D01*
X5345311D01*
Y316251D01*
X5333951Y304890D01*
X5327100Y288351D01*
Y270449D01*
X5333951Y253910D01*
X5346610Y241251D01*
X5363149Y234400D01*
X5381051D01*
X5397590Y241251D01*
X5410249Y253910D01*
X5417100Y270449D01*
Y288351D01*
X5410249Y304890D01*
X5405162Y309978D01*
X5406025Y324291D01*
X5413075Y329382D01*
X5416931Y328775D01*
X5431094Y314612D01*
X5432114Y309485D01*
X5438236Y300323D01*
X5441030Y297529D01*
X5450192Y291407D01*
X5461000Y289257D01*
X5466299Y290311D01*
X5477563Y283029D01*
X5478999Y280938D01*
Y12700D01*
X5478999Y10648D01*
X5474045Y-0D01*
X300000Y-1D01*
X241472Y5764D01*
X185194Y22835D01*
X133328Y50558D01*
X87867Y87867D01*
X50559Y133328D01*
X22835Y185194D01*
X5764Y241472D01*
X-1Y299999D01*
X-1Y5199999D01*
X5764Y5258526D01*
X22835Y5314804D01*
X50558Y5366670D01*
X87867Y5412131D01*
X133328Y5449440D01*
X185193Y5477163D01*
X241472Y5494234D01*
X299999Y5499999D01*
X9699999Y5500000D01*
X9758526Y5494235D01*
D02*
G37*
G36*
X792829Y4158330D02*
X792830Y4158329D01*
X801992Y4152207D01*
X812800Y4150057D01*
X1372601D01*
X1444957Y4077701D01*
Y3978600D01*
X1364050D01*
Y3895400D01*
X1497799D01*
Y3948170D01*
X1498342Y3950900D01*
X1498341Y3950901D01*
Y3953547D01*
X1499293Y3954971D01*
X1501443Y3965779D01*
X1501443Y3965780D01*
Y4089400D01*
X1500758Y4092839D01*
X1512463Y4099095D01*
X1673557Y3938001D01*
Y3285178D01*
X1661824Y3280318D01*
X1211471Y3730671D01*
X1202308Y3736793D01*
X1191500Y3738943D01*
X1191499Y3738943D01*
X1063499D01*
X1009042Y3793400D01*
X1014303Y3806100D01*
X1082346D01*
Y3816807D01*
X1143801D01*
Y3800399D01*
X1277550D01*
Y3883599D01*
X1143801D01*
Y3873292D01*
X1082346D01*
Y3890100D01*
X1067306D01*
Y3996600D01*
X1082346D01*
Y4080600D01*
X995780D01*
Y3996600D01*
X1010820D01*
Y3890100D01*
X909217D01*
Y3852684D01*
X897484Y3847824D01*
X635543Y4109765D01*
Y4299022D01*
X647276Y4303883D01*
X792829Y4158330D01*
D02*
G37*
G36*
X6582975Y2075436D02*
X6593757Y2064541D01*
X6593757Y2064540D01*
Y1563411D01*
X6586000Y1553924D01*
X6558388D01*
Y1592548D01*
X6565949Y1600110D01*
X6572800Y1616649D01*
Y1634551D01*
X6565949Y1651090D01*
X6553290Y1663749D01*
X6536751Y1670600D01*
X6518849D01*
X6502310Y1663749D01*
X6492543Y1653982D01*
X6479843Y1658072D01*
Y1975835D01*
X6579769Y2075761D01*
X6582975Y2075436D01*
D02*
G37*
G36*
X2703146Y1827912D02*
X2703146Y1827911D01*
X2705296Y1817103D01*
X2711418Y1807940D01*
X3051183Y1468176D01*
X3046322Y1456443D01*
X2723699D01*
X2309645Y1870496D01*
Y3031500D01*
X2703146D01*
Y1827912D01*
D02*
G37*
G36*
X4211139Y987737D02*
X4213373Y970768D01*
X4219923Y954957D01*
X4230342Y941379D01*
X4243919Y930960D01*
X4259731Y924410D01*
X4276700Y922176D01*
X4476700D01*
X4493668Y924410D01*
X4509480Y930960D01*
X4523058Y941379D01*
X4533477Y954957D01*
X4534064Y956374D01*
X4546764Y953848D01*
Y485648D01*
X4545007D01*
Y353544D01*
X4533274Y348684D01*
X4424788Y457170D01*
Y622300D01*
X4422459Y634006D01*
X4415829Y643929D01*
X4415828Y643930D01*
X4076706Y983052D01*
Y999400D01*
X4175964D01*
Y1013157D01*
X4211139D01*
Y987737D01*
D02*
G37*
%LPC*%
G36*
X2857500Y5374943D02*
X2857499Y5374943D01*
X1663700D01*
X1652892Y5372793D01*
X1643729Y5366671D01*
X1643729Y5366670D01*
X1455355Y5178297D01*
X1449233Y5169134D01*
X1447083Y5158326D01*
X1447083Y5158325D01*
Y4956500D01*
X1369277D01*
Y4873300D01*
X1503026D01*
Y4926070D01*
X1503569Y4928800D01*
X1503569Y4928801D01*
Y5142703D01*
X1508828Y5146618D01*
X1513161Y5145522D01*
X1521157Y5139963D01*
Y4558298D01*
X1450128Y4487269D01*
X1449681Y4486600D01*
X1364050D01*
Y4403400D01*
X1497799D01*
Y4455057D01*
X1569370Y4526629D01*
X1569371Y4526629D01*
X1575493Y4535792D01*
X1577643Y4546600D01*
X1577643Y4546601D01*
Y5131801D01*
X1695543Y5249701D01*
X2001590D01*
X2002378Y5248914D01*
X2015242Y5243585D01*
X2029166D01*
X2042030Y5248914D01*
X2051875Y5258759D01*
X2057204Y5271623D01*
Y5285547D01*
X2051875Y5298411D01*
X2044529Y5305757D01*
X2047778Y5317429D01*
X2048423Y5318457D01*
X2845801D01*
X2886000Y5278259D01*
Y5276238D01*
X2891328Y5263374D01*
X2901174Y5253528D01*
X2914038Y5248200D01*
X2927962D01*
X2940826Y5253528D01*
X2950672Y5263374D01*
X2956000Y5276238D01*
Y5290162D01*
X2950672Y5303026D01*
X2940826Y5312872D01*
X2927962Y5318200D01*
X2925941D01*
X2877471Y5366671D01*
X2868308Y5372793D01*
X2857500Y5374943D01*
D02*
G37*
G36*
X934618Y5044743D02*
X863600D01*
X852792Y5042593D01*
X843629Y5036471D01*
X837507Y5027308D01*
X835357Y5016500D01*
X837507Y5005692D01*
X843629Y4996529D01*
X852792Y4990407D01*
X863600Y4988257D01*
X934618D01*
X945426Y4990407D01*
X954589Y4996529D01*
X960711Y5005692D01*
X962861Y5016500D01*
X960711Y5027308D01*
X954589Y5036471D01*
X945426Y5042593D01*
X934618Y5044743D01*
D02*
G37*
G36*
X9721176Y5415000D02*
X9678824D01*
X9637287Y5406738D01*
X9598159Y5390530D01*
X9562946Y5367001D01*
X9532998Y5337054D01*
X9509469Y5301841D01*
X9493262Y5262713D01*
X9485000Y5221176D01*
Y5178824D01*
X9493262Y5137287D01*
X9509469Y5098159D01*
X9532998Y5062946D01*
X9562946Y5032999D01*
X9598159Y5009470D01*
X9637287Y4993262D01*
X9678824Y4985000D01*
X9721176D01*
X9762713Y4993262D01*
X9801840Y5009470D01*
X9837054Y5032999D01*
X9867001Y5062946D01*
X9890530Y5098159D01*
X9906738Y5137287D01*
X9915000Y5178824D01*
Y5221176D01*
X9906738Y5262713D01*
X9890530Y5301841D01*
X9867001Y5337054D01*
X9837054Y5367001D01*
X9801840Y5390530D01*
X9762713Y5406738D01*
X9721176Y5415000D01*
D02*
G37*
G36*
X321176D02*
X278824D01*
X237287Y5406738D01*
X198159Y5390530D01*
X162946Y5367001D01*
X132998Y5337054D01*
X109469Y5301841D01*
X93262Y5262713D01*
X85000Y5221176D01*
Y5178824D01*
X93262Y5137287D01*
X109469Y5098159D01*
X132998Y5062946D01*
X162946Y5032999D01*
X198159Y5009470D01*
X237287Y4993262D01*
X278824Y4985000D01*
X321176D01*
X362713Y4993262D01*
X401840Y5009470D01*
X437054Y5032999D01*
X467001Y5062946D01*
X490530Y5098159D01*
X506738Y5137287D01*
X515000Y5178824D01*
Y5221176D01*
X506738Y5262713D01*
X490530Y5301841D01*
X467001Y5337054D01*
X437054Y5367001D01*
X401840Y5390530D01*
X362713Y5406738D01*
X321176Y5415000D01*
D02*
G37*
G36*
X1215903Y5038144D02*
X1205095Y5035994D01*
X1195932Y5029872D01*
X1189810Y5020709D01*
X1187660Y5009901D01*
X1189810Y4999093D01*
X1195932Y4989930D01*
X1197457Y4988406D01*
X1197458Y4988405D01*
X1206620Y4982283D01*
X1217428Y4980133D01*
X1293430D01*
X1301099Y4978608D01*
X1311907Y4980758D01*
X1321069Y4986880D01*
X1327192Y4996043D01*
X1329342Y5006851D01*
X1327192Y5017659D01*
X1321069Y5026821D01*
X1319544Y5028347D01*
X1310382Y5034469D01*
X1299573Y5036619D01*
X1299572Y5036619D01*
X1223572D01*
X1215903Y5038144D01*
D02*
G37*
G36*
X1064464Y5058500D02*
X977899D01*
Y4974500D01*
X992939D01*
Y4868000D01*
X891336D01*
Y4784000D01*
X1064464D01*
Y4794707D01*
X1149029D01*
Y4778299D01*
X1282777D01*
Y4861499D01*
X1149029D01*
Y4851192D01*
X1064464D01*
Y4868000D01*
X1049424D01*
Y4974500D01*
X1064464D01*
Y5058500D01*
D02*
G37*
G36*
X7513423Y4985600D02*
X7485776D01*
X7459071Y4978444D01*
X7435129Y4964621D01*
X7415579Y4945072D01*
X7401756Y4921129D01*
X7394600Y4894424D01*
Y4866777D01*
X7401756Y4840072D01*
X7415579Y4816129D01*
X7435129Y4796580D01*
X7459071Y4782756D01*
X7485776Y4775601D01*
X7513423D01*
X7540128Y4782756D01*
X7564071Y4796580D01*
X7583621Y4816129D01*
X7597444Y4840072D01*
X7604600Y4866777D01*
Y4894424D01*
X7597444Y4921129D01*
X7583621Y4945072D01*
X7564071Y4964621D01*
X7540128Y4978444D01*
X7513423Y4985600D01*
D02*
G37*
G36*
X5254865Y4812737D02*
X5228535D01*
X5203102Y4805922D01*
X5180299Y4792756D01*
X5161680Y4774138D01*
X5148515Y4751335D01*
X5141700Y4725902D01*
Y4699571D01*
X5148515Y4674138D01*
X5161680Y4651336D01*
X5180299Y4632717D01*
X5203102Y4619552D01*
X5228535Y4612737D01*
X5254865D01*
X5280298Y4619552D01*
X5303101Y4632717D01*
X5321720Y4651336D01*
X5334885Y4674138D01*
X5341700Y4699571D01*
Y4725902D01*
X5334885Y4751335D01*
X5321720Y4774138D01*
X5303101Y4792756D01*
X5280298Y4805922D01*
X5254865Y4812737D01*
D02*
G37*
G36*
X8137817Y4780995D02*
X8111383D01*
X8085849Y4774153D01*
X8062956Y4760936D01*
X8044264Y4742244D01*
X8031047Y4719351D01*
X8024205Y4693817D01*
Y4667383D01*
X8031047Y4641849D01*
X8044264Y4618956D01*
X8062956Y4600264D01*
X8085849Y4587047D01*
X8111383Y4580205D01*
X8137817D01*
X8163351Y4587047D01*
X8186244Y4600264D01*
X8204936Y4618956D01*
X8218153Y4641849D01*
X8224995Y4667383D01*
Y4693817D01*
X8218153Y4719351D01*
X8204936Y4742244D01*
X8186244Y4760936D01*
X8163351Y4774153D01*
X8137817Y4780995D01*
D02*
G37*
G36*
X6887817D02*
X6861383D01*
X6835849Y4774153D01*
X6812956Y4760936D01*
X6794264Y4742244D01*
X6781047Y4719351D01*
X6774205Y4693817D01*
Y4667383D01*
X6781047Y4641849D01*
X6794264Y4618956D01*
X6812956Y4600264D01*
X6835849Y4587047D01*
X6861383Y4580205D01*
X6887817D01*
X6913351Y4587047D01*
X6936244Y4600264D01*
X6954936Y4618956D01*
X6968153Y4641849D01*
X6974995Y4667383D01*
Y4693817D01*
X6968153Y4719351D01*
X6954936Y4742244D01*
X6936244Y4760936D01*
X6913351Y4774153D01*
X6887817Y4780995D01*
D02*
G37*
G36*
X960018Y4574843D02*
X889000D01*
X878192Y4572693D01*
X869029Y4566571D01*
X862907Y4557408D01*
X860757Y4546600D01*
X862907Y4535792D01*
X869029Y4526629D01*
X878192Y4520507D01*
X889000Y4518357D01*
X960018D01*
X970826Y4520507D01*
X979989Y4526629D01*
X986111Y4535792D01*
X988261Y4546600D01*
X986111Y4557408D01*
X979989Y4566571D01*
X970826Y4572693D01*
X960018Y4574843D01*
D02*
G37*
G36*
X1210676Y4568244D02*
X1199868Y4566094D01*
X1190705Y4559972D01*
X1184583Y4550809D01*
X1182433Y4540001D01*
X1184583Y4529193D01*
X1190705Y4520030D01*
X1194013Y4516723D01*
X1203175Y4510601D01*
X1213983Y4508450D01*
X1213985Y4508451D01*
X1292607D01*
X1303414Y4510601D01*
X1312577Y4516723D01*
X1318699Y4525886D01*
X1320849Y4536693D01*
X1318699Y4547501D01*
X1312577Y4556664D01*
X1303414Y4562786D01*
X1292607Y4564936D01*
X1223217D01*
X1221484Y4566094D01*
X1210676Y4568244D01*
D02*
G37*
G36*
X8137817Y4280995D02*
X8111383D01*
X8085849Y4274153D01*
X8062956Y4260936D01*
X8044264Y4242244D01*
X8031047Y4219351D01*
X8024205Y4193817D01*
Y4167383D01*
X8031047Y4141849D01*
X8044264Y4118956D01*
X8062956Y4100264D01*
X8085849Y4087047D01*
X8111383Y4080205D01*
X8137817D01*
X8163351Y4087047D01*
X8186244Y4100264D01*
X8204936Y4118956D01*
X8218153Y4141849D01*
X8224995Y4167383D01*
Y4193817D01*
X8218153Y4219351D01*
X8204936Y4242244D01*
X8186244Y4260936D01*
X8163351Y4274153D01*
X8137817Y4280995D01*
D02*
G37*
G36*
X7513423Y4085599D02*
X7485776D01*
X7459071Y4078444D01*
X7435129Y4064620D01*
X7415579Y4045071D01*
X7401756Y4021128D01*
X7394600Y3994423D01*
Y3966776D01*
X7401756Y3940071D01*
X7415579Y3916128D01*
X7435129Y3896579D01*
X7459071Y3882756D01*
X7485776Y3875600D01*
X7513423D01*
X7540128Y3882756D01*
X7564071Y3896579D01*
X7583621Y3916128D01*
X7597444Y3940071D01*
X7604600Y3966776D01*
Y3994423D01*
X7597444Y4021128D01*
X7583621Y4045071D01*
X7564071Y4064620D01*
X7540128Y4078444D01*
X7513423Y4085599D01*
D02*
G37*
G36*
X3886200Y3914443D02*
X3875392Y3912293D01*
X3866229Y3906171D01*
X3860107Y3897008D01*
X3857957Y3886200D01*
Y3778390D01*
X3860107Y3767582D01*
X3866229Y3758419D01*
X3875392Y3752297D01*
X3886200Y3750147D01*
X3897008Y3752297D01*
X3906171Y3758419D01*
X3912293Y3767582D01*
X3914443Y3778390D01*
Y3886200D01*
X3912293Y3897008D01*
X3906171Y3906171D01*
X3897008Y3912293D01*
X3886200Y3914443D01*
D02*
G37*
G36*
X3721100D02*
X3710292Y3912293D01*
X3701129Y3906171D01*
X3695007Y3897008D01*
X3692857Y3886200D01*
Y3778390D01*
X3695007Y3767582D01*
X3701129Y3758419D01*
X3710292Y3752297D01*
X3721100Y3750147D01*
X3731908Y3752297D01*
X3741071Y3758419D01*
X3747193Y3767582D01*
X3749343Y3778390D01*
Y3886200D01*
X3747193Y3897008D01*
X3741071Y3906171D01*
X3731908Y3912293D01*
X3721100Y3914443D01*
D02*
G37*
G36*
X3556000D02*
X3545192Y3912293D01*
X3536029Y3906171D01*
X3529907Y3897008D01*
X3527757Y3886200D01*
Y3778390D01*
X3529907Y3767582D01*
X3536029Y3758419D01*
X3545192Y3752297D01*
X3556000Y3750147D01*
X3566808Y3752297D01*
X3575971Y3758419D01*
X3582093Y3767582D01*
X3584243Y3778390D01*
Y3886200D01*
X3582093Y3897008D01*
X3575971Y3906171D01*
X3566808Y3912293D01*
X3556000Y3914443D01*
D02*
G37*
G36*
X3390900D02*
X3380092Y3912293D01*
X3370929Y3906171D01*
X3364807Y3897008D01*
X3362657Y3886200D01*
Y3778390D01*
X3364807Y3767582D01*
X3370929Y3758419D01*
X3380092Y3752297D01*
X3390900Y3750147D01*
X3401708Y3752297D01*
X3410871Y3758419D01*
X3416993Y3767582D01*
X3419143Y3778390D01*
Y3886200D01*
X3416993Y3897008D01*
X3410871Y3906171D01*
X3401708Y3912293D01*
X3390900Y3914443D01*
D02*
G37*
G36*
X3225800D02*
X3214992Y3912293D01*
X3205829Y3906171D01*
X3199707Y3897008D01*
X3197557Y3886200D01*
Y3778390D01*
X3199707Y3767582D01*
X3205829Y3758419D01*
X3214992Y3752297D01*
X3225800Y3750147D01*
X3236608Y3752297D01*
X3245771Y3758419D01*
X3251893Y3767582D01*
X3254043Y3778390D01*
Y3886200D01*
X3251893Y3897008D01*
X3245771Y3906171D01*
X3236608Y3912293D01*
X3225800Y3914443D01*
D02*
G37*
G36*
X2501900Y3927143D02*
X2491092Y3924993D01*
X2481929Y3918871D01*
X2475807Y3909708D01*
X2473657Y3898900D01*
Y3772182D01*
X2473657Y3772181D01*
X2475807Y3761373D01*
X2481929Y3752210D01*
X2481931Y3752209D01*
X2491093Y3746087D01*
X2501902Y3743937D01*
X2512709Y3746087D01*
X2521872Y3752209D01*
X2527994Y3761371D01*
X2530144Y3772179D01*
X2530143Y3772187D01*
Y3898900D01*
X2527993Y3909708D01*
X2521871Y3918871D01*
X2512708Y3924993D01*
X2501900Y3927143D01*
D02*
G37*
G36*
X9087817Y3830995D02*
X9061383D01*
X9035849Y3824153D01*
X9012956Y3810936D01*
X8994264Y3792244D01*
X8981047Y3769351D01*
X8974205Y3743817D01*
Y3717383D01*
X8981047Y3691849D01*
X8994264Y3668956D01*
X9012956Y3650264D01*
X9035849Y3637047D01*
X9061383Y3630205D01*
X9087817D01*
X9113351Y3637047D01*
X9136244Y3650264D01*
X9154936Y3668956D01*
X9168153Y3691849D01*
X9174995Y3717383D01*
Y3743817D01*
X9168153Y3769351D01*
X9154936Y3792244D01*
X9136244Y3810936D01*
X9113351Y3824153D01*
X9087817Y3830995D01*
D02*
G37*
G36*
X8587817D02*
X8561383D01*
X8535849Y3824153D01*
X8512956Y3810936D01*
X8494264Y3792244D01*
X8481047Y3769351D01*
X8474205Y3743817D01*
Y3717383D01*
X8481047Y3691849D01*
X8494264Y3668956D01*
X8512956Y3650264D01*
X8535849Y3637047D01*
X8561383Y3630205D01*
X8587817D01*
X8613351Y3637047D01*
X8636244Y3650264D01*
X8654936Y3668956D01*
X8668153Y3691849D01*
X8674995Y3717383D01*
Y3743817D01*
X8668153Y3769351D01*
X8654936Y3792244D01*
X8636244Y3810936D01*
X8613351Y3824153D01*
X8587817Y3830995D01*
D02*
G37*
G36*
X6437817D02*
X6411383D01*
X6385849Y3824153D01*
X6362956Y3810936D01*
X6344264Y3792244D01*
X6331047Y3769351D01*
X6324205Y3743817D01*
Y3717383D01*
X6331047Y3691849D01*
X6344264Y3668956D01*
X6362956Y3650264D01*
X6385849Y3637047D01*
X6411383Y3630205D01*
X6437817D01*
X6463351Y3637047D01*
X6486244Y3650264D01*
X6504936Y3668956D01*
X6518153Y3691849D01*
X6524995Y3717383D01*
Y3743817D01*
X6518153Y3769351D01*
X6504936Y3792244D01*
X6486244Y3810936D01*
X6463351Y3824153D01*
X6437817Y3830995D01*
D02*
G37*
G36*
X5937817D02*
X5911383D01*
X5885849Y3824153D01*
X5862956Y3810936D01*
X5844264Y3792244D01*
X5831047Y3769351D01*
X5824205Y3743817D01*
Y3717383D01*
X5831047Y3691849D01*
X5844264Y3668956D01*
X5862956Y3650264D01*
X5885849Y3637047D01*
X5911383Y3630205D01*
X5937817D01*
X5963351Y3637047D01*
X5986244Y3650264D01*
X6004936Y3668956D01*
X6018153Y3691849D01*
X6024995Y3717383D01*
Y3743817D01*
X6018153Y3769351D01*
X6004936Y3792244D01*
X5986244Y3810936D01*
X5963351Y3824153D01*
X5937817Y3830995D01*
D02*
G37*
G36*
X952500Y3406443D02*
X889000D01*
X878192Y3404293D01*
X869029Y3398171D01*
X862907Y3389008D01*
X860757Y3378200D01*
X862907Y3367392D01*
X869029Y3358229D01*
X878192Y3352107D01*
X889000Y3349957D01*
X952500D01*
X963308Y3352107D01*
X972471Y3358229D01*
X978593Y3367392D01*
X980743Y3378200D01*
X978593Y3389008D01*
X972471Y3398171D01*
X963308Y3404293D01*
X952500Y3406443D01*
D02*
G37*
G36*
X9288424Y3210600D02*
X9260777D01*
X9234072Y3203444D01*
X9210129Y3189621D01*
X9190580Y3170071D01*
X9176756Y3146129D01*
X9169600Y3119424D01*
Y3091777D01*
X9176756Y3065072D01*
X9190580Y3041129D01*
X9210129Y3021579D01*
X9234072Y3007756D01*
X9260777Y3000600D01*
X9288424D01*
X9315129Y3007756D01*
X9339071Y3021579D01*
X9358621Y3041129D01*
X9372444Y3065072D01*
X9379600Y3091777D01*
Y3119424D01*
X9372444Y3146129D01*
X9358621Y3170071D01*
X9339071Y3189621D01*
X9315129Y3203444D01*
X9288424Y3210600D01*
D02*
G37*
G36*
X8388423D02*
X8360777D01*
X8334071Y3203444D01*
X8310129Y3189621D01*
X8290579Y3170071D01*
X8276756Y3146129D01*
X8269600Y3119424D01*
Y3091777D01*
X8276756Y3065072D01*
X8290579Y3041129D01*
X8310129Y3021579D01*
X8334071Y3007756D01*
X8360777Y3000600D01*
X8388423D01*
X8415128Y3007756D01*
X8439071Y3021579D01*
X8458621Y3041129D01*
X8472444Y3065072D01*
X8479600Y3091777D01*
Y3119424D01*
X8472444Y3146129D01*
X8458621Y3170071D01*
X8439071Y3189621D01*
X8415128Y3203444D01*
X8388423Y3210600D01*
D02*
G37*
G36*
X6638424D02*
X6610777D01*
X6584072Y3203444D01*
X6560129Y3189621D01*
X6540580Y3170071D01*
X6526756Y3146129D01*
X6519600Y3119424D01*
Y3091777D01*
X6526756Y3065072D01*
X6540580Y3041129D01*
X6560129Y3021579D01*
X6584072Y3007756D01*
X6610777Y3000600D01*
X6638424D01*
X6665129Y3007756D01*
X6689071Y3021579D01*
X6708621Y3041129D01*
X6722444Y3065072D01*
X6729600Y3091777D01*
Y3119424D01*
X6722444Y3146129D01*
X6708621Y3170071D01*
X6689071Y3189621D01*
X6665129Y3203444D01*
X6638424Y3210600D01*
D02*
G37*
G36*
X5738423D02*
X5710776D01*
X5684071Y3203444D01*
X5660129Y3189621D01*
X5640579Y3170071D01*
X5626756Y3146129D01*
X5619600Y3119424D01*
Y3091777D01*
X5626756Y3065072D01*
X5640579Y3041129D01*
X5660129Y3021579D01*
X5684071Y3007756D01*
X5710776Y3000600D01*
X5738423D01*
X5765128Y3007756D01*
X5789071Y3021579D01*
X5808621Y3041129D01*
X5822444Y3065072D01*
X5829600Y3091777D01*
Y3119424D01*
X5822444Y3146129D01*
X5808621Y3170071D01*
X5789071Y3189621D01*
X5765128Y3203444D01*
X5738423Y3210600D01*
D02*
G37*
G36*
X952500Y2809543D02*
X876300D01*
X865492Y2807393D01*
X856329Y2801271D01*
X850207Y2792108D01*
X848057Y2781300D01*
X850207Y2770492D01*
X856329Y2761329D01*
X865492Y2755207D01*
X876300Y2753057D01*
X952500D01*
X963308Y2755207D01*
X972471Y2761329D01*
X978593Y2770492D01*
X980743Y2781300D01*
X978593Y2792108D01*
X972471Y2801271D01*
X963308Y2807393D01*
X952500Y2809543D01*
D02*
G37*
G36*
X3861428Y3041512D02*
X3631428D01*
Y2711512D01*
X3861428D01*
Y3041512D01*
D02*
G37*
G36*
X2081424D02*
X1851424D01*
Y2711512D01*
X2081424D01*
Y3041512D01*
D02*
G37*
G36*
X1235950Y2815644D02*
X1235949Y2815644D01*
X1210676D01*
X1199868Y2813494D01*
X1190705Y2807372D01*
X1184583Y2798209D01*
X1182433Y2787401D01*
X1184583Y2776593D01*
X1190705Y2767430D01*
X1199868Y2761308D01*
X1210676Y2759158D01*
X1224251D01*
X1272880Y2710529D01*
X1282043Y2704407D01*
X1292851Y2702257D01*
X1295400D01*
X1306208Y2704407D01*
X1315371Y2710529D01*
X1321493Y2719692D01*
X1323643Y2730500D01*
X1321493Y2741308D01*
X1315371Y2750471D01*
X1307690Y2755603D01*
X1255921Y2807372D01*
X1246758Y2813494D01*
X1235950Y2815644D01*
D02*
G37*
G36*
X7513423Y2335600D02*
X7485776D01*
X7459071Y2328444D01*
X7435129Y2314621D01*
X7415579Y2295071D01*
X7401756Y2271129D01*
X7394600Y2244424D01*
Y2216777D01*
X7401756Y2190072D01*
X7415579Y2166129D01*
X7435129Y2146579D01*
X7459071Y2132756D01*
X7485776Y2125600D01*
X7513423D01*
X7540128Y2132756D01*
X7564071Y2146579D01*
X7583621Y2166129D01*
X7597444Y2190072D01*
X7604600Y2216777D01*
Y2244424D01*
X7597444Y2271129D01*
X7583621Y2295071D01*
X7564071Y2314621D01*
X7540128Y2328444D01*
X7513423Y2335600D01*
D02*
G37*
G36*
X8137817Y2130995D02*
X8111383D01*
X8085849Y2124153D01*
X8062956Y2110936D01*
X8044264Y2092244D01*
X8031047Y2069351D01*
X8024205Y2043817D01*
Y2017383D01*
X8031047Y1991849D01*
X8044264Y1968956D01*
X8062956Y1950264D01*
X8085849Y1937047D01*
X8111383Y1930205D01*
X8137817D01*
X8163351Y1937047D01*
X8186244Y1950264D01*
X8204936Y1968956D01*
X8218153Y1991849D01*
X8224995Y2017383D01*
Y2043817D01*
X8218153Y2069351D01*
X8204936Y2092244D01*
X8186244Y2110936D01*
X8163351Y2124153D01*
X8137817Y2130995D01*
D02*
G37*
G36*
Y1630995D02*
X8111383D01*
X8085849Y1624153D01*
X8062956Y1610936D01*
X8044264Y1592244D01*
X8031047Y1569351D01*
X8024205Y1543817D01*
Y1517383D01*
X8031047Y1491849D01*
X8044264Y1468956D01*
X8062956Y1450264D01*
X8085849Y1437047D01*
X8111383Y1430205D01*
X8137817D01*
X8163351Y1437047D01*
X8186244Y1450264D01*
X8204936Y1468956D01*
X8218153Y1491849D01*
X8224995Y1517383D01*
Y1543817D01*
X8218153Y1569351D01*
X8204936Y1592244D01*
X8186244Y1610936D01*
X8163351Y1624153D01*
X8137817Y1630995D01*
D02*
G37*
G36*
X7513423Y1435600D02*
X7485776D01*
X7459071Y1428444D01*
X7435129Y1414620D01*
X7415579Y1395071D01*
X7401756Y1371128D01*
X7394600Y1344423D01*
Y1316776D01*
X7401756Y1290071D01*
X7415579Y1266129D01*
X7435129Y1246579D01*
X7459071Y1232756D01*
X7485776Y1225600D01*
X7513423D01*
X7540128Y1232756D01*
X7564071Y1246579D01*
X7583621Y1266129D01*
X7597444Y1290071D01*
X7604600Y1316776D01*
Y1344423D01*
X7597444Y1371128D01*
X7583621Y1395071D01*
X7564071Y1414620D01*
X7540128Y1428444D01*
X7513423Y1435600D01*
D02*
G37*
G36*
X5254865Y1102737D02*
X5228535D01*
X5203102Y1095922D01*
X5180299Y1082757D01*
X5161680Y1064138D01*
X5148515Y1041335D01*
X5141700Y1015902D01*
Y989572D01*
X5148515Y964139D01*
X5161680Y941336D01*
X5180299Y922717D01*
X5203102Y909552D01*
X5228535Y902737D01*
X5254865D01*
X5280298Y909552D01*
X5303101Y922717D01*
X5321720Y941336D01*
X5334885Y964139D01*
X5341700Y989572D01*
Y1015902D01*
X5334885Y1041335D01*
X5321720Y1064138D01*
X5303101Y1082757D01*
X5280298Y1095922D01*
X5254865Y1102737D01*
D02*
G37*
G36*
X444865D02*
X418535D01*
X393102Y1095922D01*
X370299Y1082757D01*
X351680Y1064138D01*
X338515Y1041335D01*
X331700Y1015902D01*
Y989572D01*
X338515Y964139D01*
X351680Y941336D01*
X370299Y922717D01*
X393102Y909552D01*
X418535Y902737D01*
X444865D01*
X470298Y909552D01*
X493101Y922717D01*
X511720Y941336D01*
X524885Y964139D01*
X531700Y989572D01*
Y1015902D01*
X524885Y1041335D01*
X511720Y1064138D01*
X493101Y1082757D01*
X470298Y1095922D01*
X444865Y1102737D01*
D02*
G37*
G36*
X1396700Y1153298D02*
X1196700D01*
X1179731Y1151064D01*
X1163919Y1144514D01*
X1150342Y1134096D01*
X1139923Y1120517D01*
X1133373Y1104706D01*
X1131139Y1087737D01*
Y987737D01*
X1133373Y970768D01*
X1139923Y954957D01*
X1150342Y941379D01*
X1163919Y930960D01*
X1179731Y924410D01*
X1196700Y922176D01*
X1396700D01*
X1410911Y924047D01*
X1529429Y805529D01*
X1538592Y799407D01*
X1549400Y797257D01*
X3796554D01*
Y777827D01*
X3796554Y777825D01*
X3797097Y775096D01*
Y697051D01*
X3880297D01*
Y830800D01*
X3844559D01*
X3829888Y845471D01*
X3820726Y851593D01*
X3809918Y853743D01*
X3809916Y853743D01*
X1561099D01*
X1455354Y959488D01*
X1460027Y970768D01*
X1462261Y987737D01*
Y1087737D01*
X1460027Y1104706D01*
X1453477Y1120517D01*
X1443058Y1134096D01*
X1429481Y1144514D01*
X1413668Y1151064D01*
X1396700Y1153298D01*
D02*
G37*
G36*
X4064000Y777543D02*
X4053192Y775393D01*
X4044029Y769271D01*
X4037907Y760108D01*
X4035757Y749300D01*
Y673100D01*
X4037907Y662292D01*
X4044029Y653129D01*
X4053192Y647007D01*
X4064000Y644857D01*
X4074808Y647007D01*
X4083971Y653129D01*
X4090093Y662292D01*
X4092243Y673100D01*
Y749300D01*
X4090093Y760108D01*
X4083971Y769271D01*
X4074808Y775393D01*
X4064000Y777543D01*
D02*
G37*
G36*
X3638804Y750466D02*
X1790700D01*
X1779219Y745711D01*
X1774464Y734230D01*
Y469900D01*
X1779219Y458419D01*
X1790700Y453664D01*
X3641855D01*
X3641948Y453703D01*
X3642042Y453665D01*
X3647667Y456072D01*
X3653335Y458419D01*
X3653374Y458513D01*
X3653467Y458553D01*
X3655747Y464243D01*
X3658090Y469900D01*
X3658052Y469993D01*
X3658089Y470087D01*
X3655039Y734418D01*
X3652628Y740052D01*
X3650284Y745711D01*
X3650191Y745750D01*
X3650151Y745843D01*
X3644461Y748123D01*
X3638804Y750466D01*
D02*
G37*
G36*
X9721176Y515000D02*
X9678824D01*
X9637287Y506738D01*
X9598159Y490530D01*
X9562946Y467001D01*
X9532998Y437054D01*
X9509469Y401840D01*
X9493262Y362713D01*
X9485000Y321176D01*
Y278824D01*
X9493262Y237287D01*
X9509469Y198159D01*
X9532998Y162946D01*
X9562946Y132998D01*
X9598159Y109469D01*
X9637287Y93262D01*
X9678824Y85000D01*
X9721176D01*
X9762713Y93262D01*
X9801840Y109469D01*
X9837054Y132998D01*
X9867001Y162946D01*
X9890530Y198159D01*
X9906738Y237287D01*
X9915000Y278824D01*
Y321176D01*
X9906738Y362713D01*
X9890530Y401840D01*
X9867001Y437054D01*
X9837054Y467001D01*
X9801840Y490530D01*
X9762713Y506738D01*
X9721176Y515000D01*
D02*
G37*
G36*
X321176D02*
X278824D01*
X237287Y506738D01*
X198159Y490530D01*
X162946Y467001D01*
X132998Y437054D01*
X109469Y401840D01*
X93262Y362713D01*
X85000Y321176D01*
Y278824D01*
X93262Y237287D01*
X109469Y198159D01*
X132998Y162946D01*
X162946Y132998D01*
X198159Y109469D01*
X237287Y93262D01*
X278824Y85000D01*
X321176D01*
X362713Y93262D01*
X401840Y109469D01*
X437054Y132998D01*
X467001Y162946D01*
X490530Y198159D01*
X506738Y237287D01*
X515000Y278824D01*
Y321176D01*
X506738Y362713D01*
X490530Y401840D01*
X467001Y437054D01*
X437054Y467001D01*
X401840Y490530D01*
X362713Y506738D01*
X321176Y515000D01*
D02*
G37*
G36*
X952500Y4066843D02*
X889000D01*
X878192Y4064693D01*
X869029Y4058571D01*
X862907Y4049408D01*
X860757Y4038600D01*
X862907Y4027792D01*
X869029Y4018629D01*
X878192Y4012507D01*
X889000Y4010357D01*
X952500D01*
X963308Y4012507D01*
X972471Y4018629D01*
X978593Y4027792D01*
X980743Y4038600D01*
X978593Y4049408D01*
X972471Y4058571D01*
X963308Y4064693D01*
X952500Y4066843D01*
D02*
G37*
G36*
X1206870Y4064050D02*
X1206869Y4064049D01*
X1133093D01*
X1122286Y4061899D01*
X1113123Y4055777D01*
X1107001Y4046614D01*
X1104851Y4035807D01*
X1107001Y4024999D01*
X1113123Y4015836D01*
X1122286Y4009714D01*
X1133093Y4007564D01*
X1197390D01*
X1199868Y4005908D01*
X1210676Y4003758D01*
X1221484Y4005908D01*
X1230647Y4012030D01*
X1236769Y4021193D01*
X1238919Y4032001D01*
X1236769Y4042809D01*
X1230647Y4051972D01*
X1226841Y4055777D01*
X1217679Y4061899D01*
X1206870Y4064050D01*
D02*
G37*
%LPD*%
D10*
X952500Y4038600D02*
D03*
X1039063D02*
D03*
X952500Y3378200D02*
D03*
X1039063D02*
D03*
X952500Y3848100D02*
D03*
X1039063D02*
D03*
X952500Y3200400D02*
D03*
X1039063D02*
D03*
X952500Y2603500D02*
D03*
X1039063D02*
D03*
X952500Y2781300D02*
D03*
X1039063D02*
D03*
X1046582Y4546600D02*
D03*
X960018D02*
D03*
X1039063Y4356100D02*
D03*
X952500D02*
D03*
X1021182Y5016500D02*
D03*
X934618D02*
D03*
X1021182Y4826000D02*
D03*
X934618D02*
D03*
X4132682Y1041400D02*
D03*
X4046118D02*
D03*
D12*
X6622000Y2064541D02*
X6995859Y2438400D01*
X6997700D01*
X6451600Y1987534D02*
X6972866Y2508800D01*
X6451600Y1420400D02*
Y1987534D01*
X8576413Y2480600D02*
X8585013Y2489200D01*
X6972866Y2508800D02*
X7726052D01*
X7754252Y2480600D01*
X8576413D01*
X6622000Y1439276D02*
Y2064541D01*
X4975009Y408153D02*
Y1190857D01*
X4775007Y408148D02*
Y1162324D01*
X4875009Y408153D02*
Y1176589D01*
X4924996Y408153D02*
Y1183736D01*
X2564798Y1226200D02*
X4539728D01*
X4623398Y1428200D02*
X4875009Y1176589D01*
X4625020Y408148D02*
Y1140909D01*
X4539728Y1226200D02*
X4625020Y1140909D01*
X4640132Y1468600D02*
X4924996Y1183736D01*
X4556462Y1266600D02*
X4675007Y1148055D01*
X2581532Y1266600D02*
X4556462D01*
X2615000Y1347400D02*
X4589930D01*
X4825019Y408148D02*
Y1169445D01*
X4589930Y1347400D02*
X4775007Y1162324D01*
X2676200Y1387800D02*
X4606664D01*
X2598266Y1307000D02*
X4573196D01*
X4575007Y408148D02*
Y1131993D01*
X3139200Y1509000D02*
X4656866D01*
X4521200Y1185800D02*
X4575007Y1131993D01*
X2548064Y1185800D02*
X4521200D01*
X3090700Y1468600D02*
X4640132D01*
X4606664Y1387800D02*
X4825019Y1169445D01*
X4725020Y408148D02*
Y1155177D01*
X2712000Y1428200D02*
X4623398D01*
X4573196Y1307000D02*
X4725020Y1155177D01*
X4675007Y408148D02*
Y1148055D01*
X4656866Y1509000D02*
X4975009Y1190857D01*
X1206870Y4035807D02*
X1210676Y4032001D01*
X1133093Y4035807D02*
X1206870D01*
X1217428Y5008376D02*
X1299573D01*
X1215903Y5009901D02*
X1217428Y5008376D01*
X1299573D02*
X1301099Y5006851D01*
X1661400Y2186732D02*
Y3240800D01*
X1191500Y3710700D02*
X1661400Y3240800D01*
X1051800Y3710700D02*
X1191500D01*
X1386479Y3315900D02*
X1417024D01*
X1169891Y3670300D02*
X1371600Y3468591D01*
Y3330779D02*
Y3468591D01*
Y3330779D02*
X1386479Y3315900D01*
X1213983Y3393693D02*
X1305307D01*
X1210676Y3397001D02*
X1213983Y3393693D01*
X1417024Y3315900D02*
X1430924Y3302000D01*
X1035066Y3670300D02*
X1169891D01*
X1701800Y2203466D02*
Y3949700D01*
X1422400Y4229100D02*
X1701800Y3949700D01*
X1041400Y4229100D02*
X1422400D01*
X4064000Y673100D02*
Y749300D01*
X5424995Y360652D02*
X5458207Y327441D01*
X5424995Y360652D02*
Y408153D01*
X5458207Y320293D02*
X5461000Y317500D01*
X5458207Y320293D02*
Y327441D01*
X1292851Y2730500D02*
X1295400D01*
X1235950Y2787401D02*
X1292851Y2730500D01*
X863600Y5016500D02*
X934618D01*
X1213983Y4536693D02*
X1292607D01*
X1210676Y4540001D02*
X1213983Y4536693D01*
X1210676Y2787401D02*
X1235950D01*
X876300Y2781300D02*
X952500D01*
X889000Y4546600D02*
X960018D01*
X939800Y2921000D02*
X1231900D01*
X1391750Y2761150D01*
Y2706300D02*
Y2761150D01*
X5373554Y406698D02*
X5375008Y408153D01*
X5373554Y280854D02*
Y406698D01*
X5372100Y279400D02*
X5373554Y280854D01*
X4178300Y673100D02*
X4229100D01*
X4279900Y622300D01*
X2881418Y2982644D02*
X2908300Y2955763D01*
X2881418Y2982644D02*
Y3111500D01*
X1580600Y2153264D02*
X2548064Y1185800D01*
X1621000Y2169998D02*
X2564798Y1226200D01*
X2276820Y1863381D02*
X2712000Y1428200D01*
X1661400Y2186732D02*
X2581532Y1266600D01*
X2731389Y1827911D02*
X3090700Y1468600D01*
X2781402Y1866799D02*
X3139200Y1509000D01*
X2226807Y1837193D02*
X2676200Y1387800D01*
X1701800Y2203466D02*
X2598266Y1307000D01*
X2176820Y1785580D02*
X2615000Y1347400D01*
X1549400Y5143500D02*
X1683844Y5277944D01*
X2021562D01*
X2022204Y5278585D01*
X1663700Y5346700D02*
X2857500D01*
X1475326Y5158326D02*
X1663700Y5346700D01*
X2857500D02*
X2921000Y5283200D01*
X5924600Y2480600D02*
X6154200Y2251000D01*
Y1446803D02*
Y2251000D01*
X7025279Y1475379D02*
Y1991721D01*
X6530677Y1347953D02*
X6622000Y1439276D01*
X6896976Y1347076D02*
X7025279Y1475379D01*
X6986400Y2030600D02*
X7025279Y1991721D01*
X6692900Y1347076D02*
X6896976D01*
X5325334Y835900D02*
X5795234D01*
X5342068Y795500D02*
X5820947D01*
X5224996Y602196D02*
X5377900Y755100D01*
X5175008Y628440D02*
X5342068Y795500D01*
X5854415Y714700D02*
X6346215Y1206500D01*
X5124996Y635562D02*
X5325334Y835900D01*
X5795234D02*
X6235700Y1276366D01*
X5837681Y755100D02*
X6329481Y1246900D01*
X5401000Y714700D02*
X5854415D01*
X5275008Y588708D02*
X5401000Y714700D01*
X5377900Y755100D02*
X5837681D01*
X5820947Y795500D02*
X6372523Y1347076D01*
X5275008Y408153D02*
Y588708D01*
X5224996Y408153D02*
Y602196D01*
X5175008Y408153D02*
Y628440D01*
X5124996Y408153D02*
Y635562D01*
X2781402Y1866799D02*
Y3111500D01*
X1549400Y825500D02*
X3809918D01*
X6527800Y1347953D02*
X6530677D01*
X6524923D02*
X6527800D01*
X6423871Y1246900D02*
X6524923Y1347953D01*
X6549447Y1206500D02*
X6690023Y1347076D01*
X6346215Y1206500D02*
X6549447D01*
X6329481Y1246900D02*
X6423871D01*
X6690023Y1347076D02*
X6692900D01*
X6372523D02*
X6378277D01*
X6235700Y1276366D02*
Y1347076D01*
X6154100Y1415976D02*
X6227912Y1342164D01*
X4132682Y1041400D02*
X4373020D01*
X4376683Y1037737D01*
X6874600Y2030600D02*
X6986400D01*
X889000Y3378200D02*
X952500D01*
X889000Y4038600D02*
X952500D01*
X607300Y4098066D02*
X1035066Y3670300D01*
X607300Y4098066D02*
Y5096734D01*
X983080Y3779420D02*
X1051800Y3710700D01*
X1045164Y4349999D02*
X1210676D01*
X1039063Y4356100D02*
X1045164Y4349999D01*
X968083Y4302417D02*
X1041400Y4229100D01*
X968083Y4302417D02*
Y4341800D01*
X953783Y4356100D02*
X968083Y4341800D01*
X952500Y4356100D02*
X953783D01*
X1470099Y4467299D02*
X1549400Y4546600D01*
Y5143500D01*
X647700Y5080000D02*
X685800Y5118100D01*
X607300Y5096734D02*
X635000Y5124434D01*
X571500Y5118068D02*
Y5283200D01*
X566900Y5113468D02*
X571500Y5118068D01*
X647700Y4343400D02*
Y5080000D01*
X635000Y5124434D02*
Y5232400D01*
X566900Y3293900D02*
Y5113468D01*
Y3293900D02*
X939800Y2921000D01*
X1436152Y4914900D02*
X1461426D01*
X1475326Y4928800D01*
Y5158326D01*
X812800Y4178300D02*
X1384300D01*
X1473200Y4089400D01*
Y3965779D02*
Y4089400D01*
X1470099Y3962678D02*
X1473200Y3965779D01*
X1456199Y3937000D02*
X1470099Y3950900D01*
X1430924Y3937000D02*
X1456199D01*
X1470099Y3950900D02*
Y3962678D01*
X647700Y4343400D02*
X812800Y4178300D01*
X1443499Y4432300D02*
X1470099Y4458900D01*
Y4467299D01*
X1435100Y4432300D02*
X1443499D01*
X1430924Y4436476D02*
X1435100Y4432300D01*
X1430924Y4436476D02*
Y4445000D01*
X952500Y3848100D02*
X962633Y3837967D01*
Y3799868D02*
Y3837967D01*
X983080Y3779420D02*
Y3779420D01*
X962633Y3799868D02*
X983080Y3779420D01*
X1405650Y2692400D02*
X1430924D01*
X1391750Y2706300D02*
X1405650Y2692400D01*
X1439000Y3145700D02*
X1621000Y2963700D01*
Y2169998D02*
Y2963700D01*
X3824797Y777825D02*
Y810621D01*
X3809918Y825500D02*
X3824797Y810621D01*
Y777825D02*
X3838697Y763925D01*
X1337163Y1037737D02*
X1549400Y825500D01*
X983080Y3161926D02*
X999307Y3145700D01*
X1439000D01*
X2226807Y1837193D02*
X2231390Y1841776D01*
X2276820Y1863381D02*
X2281403Y1867963D01*
X2181403Y1790163D02*
Y3111500D01*
X2281403Y1867963D02*
Y3111500D01*
X2231390Y1841776D02*
Y3111500D01*
X2176820Y1785580D02*
X2181403Y1790163D01*
X1580600Y2153264D02*
Y2407200D01*
X1511300Y2476500D02*
X1580600Y2407200D01*
X1071606Y2476500D02*
X1511300D01*
X983080Y2565026D02*
X1071606Y2476500D01*
X983080Y2565026D02*
Y2574202D01*
X953783Y2603500D02*
X983080Y2574202D01*
X952500Y2603500D02*
X953783D01*
Y3200400D02*
X983080Y3171102D01*
X952500Y3200400D02*
X953783D01*
X983080Y3161926D02*
Y3171102D01*
X1039063Y2603500D02*
X1042114Y2600449D01*
X1207625D01*
X1210676Y2597399D01*
X1039063Y2603500D02*
Y2781300D01*
Y3200400D02*
X1042363Y3203699D01*
X1207376D01*
X1210676Y3206999D01*
X1039063Y3200400D02*
Y3378200D01*
X1042114Y3845049D02*
X1207625D01*
X1039063Y3848100D02*
X1042114Y3845049D01*
X1207625D02*
X1210676Y3841999D01*
X1039063Y3848100D02*
Y4038600D01*
X1212853Y4822949D02*
X1215903Y4819899D01*
X1021182Y4826000D02*
X1024232Y4822949D01*
X1212853D01*
X1021182Y4826000D02*
Y5016500D01*
X1042822Y4542841D02*
X1046582Y4546600D01*
X1042822Y4359859D02*
Y4542841D01*
X6378277Y1347076D02*
X6451600Y1420400D01*
X2731389Y1827911D02*
Y3111500D01*
X6154100Y1415976D02*
Y1446702D01*
X6154200Y1446803D01*
X1296683Y1037737D02*
X1337163D01*
X4064000Y586537D02*
X4178300D01*
X3933698Y568951D02*
X3947598Y582851D01*
X3972872D02*
X3976558Y586537D01*
X3933698Y543677D02*
Y568951D01*
X3947598Y582851D02*
X3972872D01*
X3976558Y586537D02*
X4064000D01*
X3517900Y3229137D02*
X3531387Y3215650D01*
Y3111500D02*
Y3215650D01*
X3517900Y3229137D02*
Y3238500D01*
X3478309Y2985991D02*
X3481400Y2989083D01*
Y3111500D01*
X3543300Y3505200D02*
X3587890D01*
X3381400Y3111500D02*
Y3343300D01*
X3543300Y3505200D01*
X3431388Y3336154D02*
X3536934Y3441700D01*
X3689490D01*
X3431388Y3111500D02*
Y3336154D01*
X3331388Y3356788D02*
X3523700Y3549100D01*
X3390350Y3491950D02*
Y3604900D01*
X3331388Y3111500D02*
Y3356788D01*
X3523700Y3549100D02*
Y3611110D01*
X3551000Y3638410D02*
X3556000D01*
X3281401Y3111500D02*
Y3383001D01*
X3390350Y3491950D01*
X3523700Y3611110D02*
X3551000Y3638410D01*
X3231388Y3625087D02*
X3238501Y3632200D01*
X3231388Y3625087D02*
Y3632822D01*
Y3111500D02*
Y3625087D01*
X3225800Y3638410D02*
X3231388Y3632822D01*
X2570122Y3614778D02*
X2931389Y3253512D01*
Y3111500D02*
Y3253512D01*
X2705644Y3570529D02*
X2981401Y3294772D01*
Y3111500D02*
Y3294772D01*
X2874660Y3475340D02*
X3031388Y3318612D01*
Y3111500D02*
Y3318612D01*
X3081401Y3111500D02*
Y3332099D01*
X2968630Y3444870D02*
X3081401Y3332099D01*
X3053810Y3431304D02*
X3131388Y3353726D01*
Y3111500D02*
Y3353726D01*
X3136900Y3441700D02*
X3181401Y3397199D01*
Y3111500D02*
Y3397199D01*
X2874660Y3475340D02*
Y3633749D01*
X3886200Y3778390D02*
Y3886200D01*
X3721100Y3778390D02*
Y3886200D01*
X3556000Y3778390D02*
Y3886200D01*
X3390900Y3778390D02*
Y3886200D01*
X3225800Y3778390D02*
Y3886200D01*
X2501900Y3772181D02*
Y3898900D01*
Y3772181D02*
X2501902Y3772179D01*
X2908300Y2946400D02*
Y2955763D01*
X3881200Y3638410D02*
X3886200D01*
X3853900Y3611110D02*
X3881200Y3638410D01*
X3689490Y3441700D02*
X3853900Y3606110D01*
Y3611110D01*
X3721100Y3638410D02*
X3721100Y3638411D01*
X3688800Y3606110D02*
Y3611110D01*
X3716100Y3638410D02*
X3721100D01*
X3688800Y3611110D02*
X3716100Y3638410D01*
X3587890Y3505200D02*
X3688800Y3606110D01*
X3417650Y3632200D02*
X3422650D01*
X2501902D02*
X2519324Y3614778D01*
X2570122D01*
X2705644Y3570529D02*
Y3613615D01*
X2685510Y3633749D02*
X2705644Y3613615D01*
X2864660Y3633749D02*
X2874660D01*
X2968630Y3444870D02*
Y3679759D01*
X3136900Y3441700D02*
Y3695639D01*
X3058810Y3773729D02*
X3136900Y3695639D01*
X3053810Y3431304D02*
Y3633749D01*
X3390350Y3604900D02*
X3417650Y3632200D01*
X2815409Y3683000D02*
X2864660Y3633749D01*
X2690510Y3773729D02*
X2781239Y3683000D01*
X2815409D01*
X2685510Y3773729D02*
X2690510D01*
X2869660D02*
X2874660D01*
X2968630Y3679759D01*
X3053810Y3773729D02*
X3058810D01*
D13*
X3162300Y1562100D02*
X4673600D01*
X5024996Y1210704D01*
Y408153D02*
Y1210704D01*
Y182004D02*
X5029200Y177800D01*
X5024996Y182004D02*
Y338213D01*
Y408153D01*
X6692900Y1497724D02*
Y1625600D01*
X6527800Y1498600D02*
Y1625600D01*
X6375400Y1497724D02*
Y1625600D01*
X6235700Y1497724D02*
Y1625600D01*
X6083300Y1498600D02*
Y1625600D01*
X4394200Y444500D02*
X4546600Y292100D01*
X4978883D02*
X5024996Y338213D01*
X4546600Y292100D02*
X4978883D01*
X4046118Y970382D02*
X4394200Y622300D01*
X4046118Y970382D02*
Y1041400D01*
X4394200Y444500D02*
Y622300D01*
X2831406Y1892994D02*
X3162300Y1562100D01*
X2831406Y1892994D02*
Y3111500D01*
Y3221500D01*
X2794000Y3258906D02*
Y3263900D01*
Y3258906D02*
X2831406Y3221500D01*
D14*
X4376700Y1037737D02*
D03*
X1296700D02*
D03*
D15*
X5241700Y1002737D02*
D03*
Y4712737D02*
D03*
X431700Y1002737D02*
D03*
Y4712737D02*
D03*
D16*
X6874600Y2030600D02*
D03*
Y1530600D02*
D03*
X8124600D02*
D03*
Y2030600D02*
D03*
X5924600Y2480600D02*
D03*
X6424600D02*
D03*
Y3730600D02*
D03*
X5924600D02*
D03*
X8574600Y2480600D02*
D03*
X9074600D02*
D03*
Y3730600D02*
D03*
X8574600D02*
D03*
X6874600Y4680600D02*
D03*
Y4180600D02*
D03*
X8124600D02*
D03*
Y4680600D02*
D03*
D17*
X7499600Y2230600D02*
D03*
Y1330600D02*
D03*
X5724600Y3105600D02*
D03*
X6624600D02*
D03*
X8374600D02*
D03*
X9274600D02*
D03*
X7499600Y4880600D02*
D03*
Y3980600D02*
D03*
D18*
X300000Y300000D02*
D03*
X9700000D02*
D03*
Y5200000D02*
D03*
X300000D02*
D03*
D19*
X203200Y2087034D02*
D03*
Y2840567D02*
D03*
Y3594100D02*
D03*
Y4347633D02*
D03*
X2048934Y4572000D02*
D03*
X2802467D02*
D03*
X3556000D02*
D03*
X4309533D02*
D03*
X3382434Y2070100D02*
D03*
X4135967D02*
D03*
X4889500D02*
D03*
X5643033D02*
D03*
X6722534Y914400D02*
D03*
X7476067D02*
D03*
X8229600D02*
D03*
X8983133D02*
D03*
X8962721Y314032D02*
D03*
X8209188D02*
D03*
X7455654D02*
D03*
X6702121D02*
D03*
X6997700Y2438400D02*
D03*
X5372100Y279400D02*
D03*
X5029200Y177800D02*
D03*
X6527800Y1625600D02*
D03*
X6235700D02*
D03*
X6375400D02*
D03*
X6083300D02*
D03*
X6692900D02*
D03*
X4279900Y622300D02*
D03*
X2692400Y3263900D02*
D03*
X2794000D02*
D03*
X3478309Y2985991D02*
D03*
X3886200Y3886200D02*
D03*
X3390900D02*
D03*
X3225800D02*
D03*
X2908300Y2946400D02*
D03*
X3517900Y3238500D02*
D03*
X3721100Y3886200D02*
D03*
X3556000D02*
D03*
X2501900Y3898900D02*
D03*
D20*
X1133093Y4035807D02*
D03*
X1301099Y5006851D02*
D03*
X1305307Y3393693D02*
D03*
X4064000Y749300D02*
D03*
X5461000Y317500D02*
D03*
X1295400Y2730500D02*
D03*
X863600Y5016500D02*
D03*
X1292607Y4536693D02*
D03*
X889000Y4546600D02*
D03*
X3746500Y444500D02*
D03*
X876300Y2781300D02*
D03*
X2022204Y5278585D02*
D03*
X2921000Y5283200D02*
D03*
X889000Y3378200D02*
D03*
Y4038600D02*
D03*
X685800Y5118100D02*
D03*
X635000Y5232400D02*
D03*
X571500Y5283200D02*
D03*
D21*
X6692900Y1497724D02*
D03*
Y1347076D02*
D03*
X6527800Y1498600D02*
D03*
Y1347953D02*
D03*
X6375400Y1497724D02*
D03*
Y1347076D02*
D03*
X6235700Y1497724D02*
D03*
Y1347076D02*
D03*
D22*
X2231407Y3111500D02*
D03*
X2181420D02*
D03*
X2131407D02*
D03*
X2481419D02*
D03*
X2331407D02*
D03*
X2281420D02*
D03*
X2531406D02*
D03*
X2381419D02*
D03*
X2581419D02*
D03*
X2431407D02*
D03*
X3231405D02*
D03*
X3131405D02*
D03*
X3181418D02*
D03*
X3081418D02*
D03*
X3031405D02*
D03*
X2981418D02*
D03*
X2881418D02*
D03*
X2831406D02*
D03*
X2781419D02*
D03*
X2731406D02*
D03*
X2931406D02*
D03*
X2681419D02*
D03*
X2631406D02*
D03*
X3281418D02*
D03*
X3481417D02*
D03*
X3431405D02*
D03*
X3381417D02*
D03*
X3331405D02*
D03*
X3531404D02*
D03*
X3581417D02*
D03*
D23*
X1966424Y2876512D02*
D03*
X3746428D02*
D03*
D24*
X1430924Y3937000D02*
D03*
X1210676Y4032001D02*
D03*
Y3841999D02*
D03*
X1430924Y3302000D02*
D03*
X1210676Y3397001D02*
D03*
Y3206999D02*
D03*
X1430924Y2692400D02*
D03*
X1210676Y2787401D02*
D03*
Y2597399D02*
D03*
X1215903Y4819899D02*
D03*
Y5009901D02*
D03*
X1436152Y4914900D02*
D03*
X1210676Y4349999D02*
D03*
Y4540001D02*
D03*
X1430924Y4445000D02*
D03*
D25*
X3933698Y543677D02*
D03*
X3743696D02*
D03*
X3838697Y763925D02*
D03*
D26*
X4064000Y586537D02*
D03*
Y673100D02*
D03*
X4178300Y586537D02*
D03*
Y673100D02*
D03*
D27*
X4406001Y154150D02*
D03*
X5593999Y150647D02*
D03*
D28*
X4575007Y408148D02*
D03*
X4625020D02*
D03*
X4675007D02*
D03*
X4725020D02*
D03*
X4775007D02*
D03*
X4825019D02*
D03*
X5424995Y408153D02*
D03*
X5375008D02*
D03*
X5324995D02*
D03*
X5275008D02*
D03*
X5224996D02*
D03*
X5175008D02*
D03*
X5124996D02*
D03*
X5075009D02*
D03*
X5024996D02*
D03*
X4975009D02*
D03*
X4924996D02*
D03*
X4875009D02*
D03*
D29*
X3225800Y3778390D02*
D03*
Y3638410D02*
D03*
X3886200D02*
D03*
Y3778390D02*
D03*
X3721100Y3638410D02*
D03*
Y3778390D02*
D03*
X3556000Y3638410D02*
D03*
Y3778390D02*
D03*
X3390900Y3638410D02*
D03*
Y3778390D02*
D03*
X3053810Y3773729D02*
D03*
Y3633749D02*
D03*
X2869660Y3773729D02*
D03*
Y3633749D02*
D03*
X2685510Y3773729D02*
D03*
Y3633749D02*
D03*
X2501902Y3632200D02*
D03*
Y3772179D02*
D03*
%TF.MD5,b8c6c4f5cac893453a01d0d0ad3b4c3e*%
M02*
