%TF.GenerationSoftware,Altium Limited,Altium Designer,22.5.1 (42)*%
G04 Layer_Color=128*
%FSLAX45Y45*%
%MOMM*%
%TF.SameCoordinates,ADDB7551-072C-4BAF-947E-D85C9ED3ECA7*%
%TF.FilePolarity,Positive*%
%TF.FileFunction,Paste,Bot*%
%TF.Part,Single*%
G01*
G75*
%TA.AperFunction,SMDPad,CuDef*%
%ADD22R,0.30000X1.30000*%
%ADD23R,2.00000X2.99999*%
%ADD24R,1.03749X0.53200*%
%ADD25R,0.53200X1.03749*%
%TA.AperFunction,ConnectorPad*%
%ADD27R,2.00000X2.50000*%
%ADD28R,0.30000X1.25001*%
%TA.AperFunction,SMDPad,CuDef*%
%ADD29R,0.90000X0.80000*%
G36*
X1049465Y5039500D02*
Y4993500D01*
X1045464Y4989500D01*
X995401D01*
X991400Y4993500D01*
Y5039500D01*
X995401Y5043500D01*
X1045464D01*
X1049465Y5039500D01*
D02*
G37*
G36*
X964400D02*
Y4993500D01*
X960399Y4989500D01*
X910336D01*
X906335Y4993500D01*
Y5039500D01*
X910336Y5043500D01*
X960399D01*
X964400Y5039500D01*
D02*
G37*
G36*
X1049465Y4849000D02*
Y4803000D01*
X1045464Y4799000D01*
X995401D01*
X991400Y4803000D01*
Y4849000D01*
X995401Y4853000D01*
X1045464D01*
X1049465Y4849000D01*
D02*
G37*
G36*
X964400D02*
Y4803000D01*
X960399Y4799000D01*
X910336D01*
X906335Y4803000D01*
Y4849000D01*
X910336Y4853000D01*
X960399D01*
X964400Y4849000D01*
D02*
G37*
G36*
X1074864Y4569600D02*
Y4523600D01*
X1070864Y4519600D01*
X1020801D01*
X1016800Y4523600D01*
Y4569600D01*
X1020801Y4573600D01*
X1070864D01*
X1074864Y4569600D01*
D02*
G37*
G36*
X989800D02*
Y4523600D01*
X985799Y4519600D01*
X935736D01*
X931736Y4523600D01*
Y4569600D01*
X935736Y4573600D01*
X985799D01*
X989800Y4569600D01*
D02*
G37*
G36*
X1067346Y4379100D02*
Y4333100D01*
X1063346Y4329100D01*
X1013282D01*
X1009282Y4333100D01*
Y4379100D01*
X1013282Y4383100D01*
X1063346D01*
X1067346Y4379100D01*
D02*
G37*
G36*
X982282D02*
Y4333100D01*
X978281Y4329100D01*
X928218D01*
X924217Y4333100D01*
Y4379100D01*
X928218Y4383100D01*
X978281D01*
X982282Y4379100D01*
D02*
G37*
G36*
X1067346Y4061600D02*
Y4015600D01*
X1063346Y4011600D01*
X1013282D01*
X1009282Y4015600D01*
Y4061600D01*
X1013282Y4065600D01*
X1063346D01*
X1067346Y4061600D01*
D02*
G37*
G36*
X982282D02*
Y4015600D01*
X978281Y4011600D01*
X928218D01*
X924217Y4015600D01*
Y4061600D01*
X928218Y4065600D01*
X978281D01*
X982282Y4061600D01*
D02*
G37*
G36*
X1067346Y3871100D02*
Y3825100D01*
X1063346Y3821100D01*
X1013282D01*
X1009282Y3825100D01*
Y3871100D01*
X1013282Y3875100D01*
X1063346D01*
X1067346Y3871100D01*
D02*
G37*
G36*
X982282D02*
Y3825100D01*
X978281Y3821100D01*
X928218D01*
X924217Y3825100D01*
Y3871100D01*
X928218Y3875100D01*
X978281D01*
X982282Y3871100D01*
D02*
G37*
G36*
X1067346Y3401200D02*
Y3355200D01*
X1063346Y3351200D01*
X1013282D01*
X1009282Y3355200D01*
Y3401200D01*
X1013282Y3405200D01*
X1063346D01*
X1067346Y3401200D01*
D02*
G37*
G36*
X982282D02*
Y3355200D01*
X978281Y3351200D01*
X928218D01*
X924217Y3355200D01*
Y3401200D01*
X928218Y3405200D01*
X978281D01*
X982282Y3401200D01*
D02*
G37*
G36*
X1067346Y3223400D02*
Y3177400D01*
X1063346Y3173400D01*
X1013282D01*
X1009282Y3177400D01*
Y3223400D01*
X1013282Y3227400D01*
X1063346D01*
X1067346Y3223400D01*
D02*
G37*
G36*
X982282D02*
Y3177400D01*
X978281Y3173400D01*
X928218D01*
X924217Y3177400D01*
Y3223400D01*
X928218Y3227400D01*
X978281D01*
X982282Y3223400D01*
D02*
G37*
G36*
X1067346Y2804300D02*
Y2758300D01*
X1063346Y2754300D01*
X1013282D01*
X1009282Y2758300D01*
Y2804300D01*
X1013282Y2808300D01*
X1063346D01*
X1067346Y2804300D01*
D02*
G37*
G36*
X982282D02*
Y2758300D01*
X978281Y2754300D01*
X928218D01*
X924217Y2758300D01*
Y2804300D01*
X928218Y2808300D01*
X978281D01*
X982282Y2804300D01*
D02*
G37*
G36*
X1067346Y2626500D02*
Y2580500D01*
X1063346Y2576500D01*
X1013282D01*
X1009282Y2580500D01*
Y2626500D01*
X1013282Y2630500D01*
X1063346D01*
X1067346Y2626500D01*
D02*
G37*
G36*
X982282D02*
Y2580500D01*
X978281Y2576500D01*
X928218D01*
X924217Y2580500D01*
Y2626500D01*
X928218Y2630500D01*
X978281D01*
X982282Y2626500D01*
D02*
G37*
G36*
X6572801Y1542773D02*
Y1463774D01*
X6567802Y1458775D01*
X6543599D01*
Y1496774D01*
X6510599D01*
Y1458775D01*
X6487803D01*
X6482801Y1463774D01*
Y1542773D01*
X6487803Y1547774D01*
X6567802D01*
X6572801Y1542773D01*
D02*
G37*
G36*
X6737901Y1541897D02*
Y1462898D01*
X6732902Y1457899D01*
X6708699D01*
Y1495897D01*
X6675699D01*
Y1457899D01*
X6652903D01*
X6647901Y1462898D01*
Y1541897D01*
X6652903Y1546898D01*
X6732902D01*
X6737901Y1541897D01*
D02*
G37*
G36*
X6420401D02*
Y1462898D01*
X6415402Y1457899D01*
X6391199D01*
Y1495897D01*
X6358199D01*
Y1457899D01*
X6335403D01*
X6330401Y1462898D01*
Y1541897D01*
X6335403Y1546898D01*
X6415402D01*
X6420401Y1541897D01*
D02*
G37*
G36*
X6280701D02*
Y1462898D01*
X6275702Y1457899D01*
X6251499D01*
Y1495897D01*
X6218499D01*
Y1457899D01*
X6195703D01*
X6190701Y1462898D01*
Y1541897D01*
X6195703Y1546898D01*
X6275702D01*
X6280701Y1541897D01*
D02*
G37*
G36*
X6572801Y1383774D02*
Y1303774D01*
X6567802Y1298776D01*
X6487803D01*
X6482801Y1303774D01*
Y1383774D01*
X6487803Y1388775D01*
X6510599D01*
Y1351775D01*
X6543599D01*
Y1388775D01*
X6567802D01*
X6572801Y1383774D01*
D02*
G37*
G36*
X6737901Y1382898D02*
Y1302898D01*
X6732902Y1297899D01*
X6652903D01*
X6647901Y1302898D01*
Y1382898D01*
X6652903Y1387899D01*
X6675699D01*
Y1350899D01*
X6708699D01*
Y1387899D01*
X6732902D01*
X6737901Y1382898D01*
D02*
G37*
G36*
X6420401D02*
Y1302898D01*
X6415402Y1297899D01*
X6335403D01*
X6330401Y1302898D01*
Y1382898D01*
X6335403Y1387899D01*
X6358199D01*
Y1350899D01*
X6391199D01*
Y1387899D01*
X6415402D01*
X6420401Y1382898D01*
D02*
G37*
G36*
X6280701D02*
Y1302898D01*
X6275702Y1297899D01*
X6195703D01*
X6190701Y1302898D01*
Y1382898D01*
X6195703Y1387899D01*
X6218499D01*
Y1350899D01*
X6251499D01*
Y1387899D01*
X6275702D01*
X6280701Y1382898D01*
D02*
G37*
G36*
X4160965Y1064400D02*
Y1018400D01*
X4156964Y1014400D01*
X4106901D01*
X4102900Y1018400D01*
Y1064400D01*
X4106901Y1068400D01*
X4156964D01*
X4160965Y1064400D01*
D02*
G37*
G36*
X4075900D02*
Y1018400D01*
X4071899Y1014400D01*
X4021836D01*
X4017835Y1018400D01*
Y1064400D01*
X4021836Y1068400D01*
X4071899D01*
X4075900Y1064400D01*
D02*
G37*
G36*
X4205300Y697382D02*
Y647319D01*
X4201300Y643318D01*
X4155300D01*
X4151300Y647319D01*
Y697382D01*
X4155300Y701383D01*
X4201300D01*
X4205300Y697382D01*
D02*
G37*
G36*
X4091000D02*
Y647319D01*
X4087000Y643318D01*
X4041000D01*
X4037000Y647319D01*
Y697382D01*
X4041000Y701383D01*
X4087000D01*
X4091000Y697382D01*
D02*
G37*
G36*
X4205300Y612318D02*
Y562254D01*
X4201300Y558254D01*
X4155300D01*
X4151300Y562254D01*
Y612318D01*
X4155300Y616318D01*
X4201300D01*
X4205300Y612318D01*
D02*
G37*
G36*
X4091000D02*
Y562254D01*
X4087000Y558254D01*
X4041000D01*
X4037000Y562254D01*
Y612318D01*
X4041000Y616318D01*
X4087000D01*
X4091000Y612318D01*
D02*
G37*
D22*
X2231407Y3111500D02*
D03*
X2181420D02*
D03*
X2131407D02*
D03*
X2481419D02*
D03*
X2331407D02*
D03*
X2281420D02*
D03*
X2531406D02*
D03*
X2381419D02*
D03*
X2581419D02*
D03*
X2431407D02*
D03*
X3231405D02*
D03*
X3131405D02*
D03*
X3181418D02*
D03*
X3081418D02*
D03*
X3031405D02*
D03*
X2981418D02*
D03*
X2881418D02*
D03*
X2831406D02*
D03*
X2781419D02*
D03*
X2731406D02*
D03*
X2931406D02*
D03*
X2681419D02*
D03*
X2631406D02*
D03*
X3281418D02*
D03*
X3481417D02*
D03*
X3431405D02*
D03*
X3381417D02*
D03*
X3331405D02*
D03*
X3531404D02*
D03*
X3581417D02*
D03*
D23*
X1966424Y2876512D02*
D03*
X3746428D02*
D03*
D24*
X1430924Y3937000D02*
D03*
X1210676Y4032001D02*
D03*
Y3841999D02*
D03*
X1430924Y3302000D02*
D03*
X1210676Y3397001D02*
D03*
Y3206999D02*
D03*
X1430924Y2692400D02*
D03*
X1210676Y2787401D02*
D03*
Y2597399D02*
D03*
X1215903Y4819899D02*
D03*
Y5009901D02*
D03*
X1436152Y4914900D02*
D03*
X1210676Y4349999D02*
D03*
Y4540001D02*
D03*
X1430924Y4445000D02*
D03*
D25*
X3933698Y543677D02*
D03*
X3743696D02*
D03*
X3838697Y763925D02*
D03*
D27*
X4406001Y154150D02*
D03*
X5593999Y150647D02*
D03*
D28*
X4575007Y408148D02*
D03*
X4625020D02*
D03*
X4675007D02*
D03*
X4725020D02*
D03*
X4775007D02*
D03*
X4825019D02*
D03*
X5424995Y408153D02*
D03*
X5375008D02*
D03*
X5324995D02*
D03*
X5275008D02*
D03*
X5224996D02*
D03*
X5175008D02*
D03*
X5124996D02*
D03*
X5075009D02*
D03*
X5024996D02*
D03*
X4975009D02*
D03*
X4924996D02*
D03*
X4875009D02*
D03*
D29*
X3225800Y3778390D02*
D03*
Y3638410D02*
D03*
X3886200D02*
D03*
Y3778390D02*
D03*
X3721100Y3638410D02*
D03*
Y3778390D02*
D03*
X3556000Y3638410D02*
D03*
Y3778390D02*
D03*
X3390900Y3638410D02*
D03*
Y3778390D02*
D03*
X3053810Y3773729D02*
D03*
Y3633749D02*
D03*
X2869660Y3773729D02*
D03*
Y3633749D02*
D03*
X2685510Y3773729D02*
D03*
Y3633749D02*
D03*
X2501902Y3632200D02*
D03*
Y3772179D02*
D03*
%TF.MD5,02fe4ea21fb860219002eda77ec9abb6*%
M02*
