%TF.GenerationSoftware,Altium Limited,Altium Designer,22.5.1 (42)*%
G04 Layer_Physical_Order=1*
G04 Layer_Color=255*
%FSLAX45Y45*%
%MOMM*%
%TF.SameCoordinates,ADDB7551-072C-4BAF-947E-D85C9ED3ECA7*%
%TF.FilePolarity,Positive*%
%TF.FileFunction,Copper,L1,Top,Signal*%
%TF.Part,Single*%
G01*
G75*
%TA.AperFunction,SMDPad,CuDef*%
%ADD10R,0.56566X0.54000*%
%ADD11R,0.50000X0.40000*%
%TA.AperFunction,Conductor*%
%ADD12C,0.25400*%
%ADD13C,0.30000*%
%TA.AperFunction,ComponentPad*%
G04:AMPARAMS|DCode=14|XSize=3mm|YSize=2mm|CornerRadius=0.5mm|HoleSize=0mm|Usage=FLASHONLY|Rotation=0.000|XOffset=0mm|YOffset=0mm|HoleType=Round|Shape=RoundedRectangle|*
%AMROUNDEDRECTD14*
21,1,3.00000,1.00000,0,0,0.0*
21,1,2.00000,2.00000,0,0,0.0*
1,1,1.00000,1.00000,-0.50000*
1,1,1.00000,-1.00000,-0.50000*
1,1,1.00000,-1.00000,0.50000*
1,1,1.00000,1.00000,0.50000*
%
%ADD14ROUNDEDRECTD14*%
%ADD15C,1.70000*%
%ADD16C,1.70790*%
%ADD17C,1.80000*%
%TA.AperFunction,ViaPad*%
%ADD18C,4.00000*%
%ADD19C,0.60000*%
%ADD20C,0.40000*%
G36*
X9758526Y5494235D02*
X9814804Y5477164D01*
X9866670Y5449441D01*
X9912131Y5412132D01*
X9949440Y5366671D01*
X9977163Y5314805D01*
X9994235Y5258527D01*
X9999998Y5200000D01*
X9999999Y299999D01*
X9994235Y241473D01*
X9977163Y185194D01*
X9949440Y133329D01*
X9912132Y87868D01*
X9866671Y50559D01*
X9814804Y22836D01*
X9758527Y5764D01*
X9699999Y0D01*
X300000Y-1D01*
X241472Y5764D01*
X185194Y22835D01*
X133328Y50558D01*
X87867Y87867D01*
X50559Y133328D01*
X22835Y185194D01*
X5764Y241472D01*
X-1Y299999D01*
X-1Y5199999D01*
X5764Y5258526D01*
X22835Y5314804D01*
X50558Y5366670D01*
X87867Y5412131D01*
X133328Y5449440D01*
X185193Y5477163D01*
X241472Y5494234D01*
X299999Y5499999D01*
X9699999Y5500000D01*
X9758526Y5494235D01*
D02*
G37*
%LPC*%
G36*
X924764Y5376000D02*
X751636D01*
Y5362243D01*
X622301D01*
X622300Y5362243D01*
X611492Y5360093D01*
X602329Y5353971D01*
X602329Y5353970D01*
X566558Y5318200D01*
X564538D01*
X551674Y5312872D01*
X541828Y5303026D01*
X536500Y5290162D01*
Y5276238D01*
X541828Y5263374D01*
X551674Y5253528D01*
X564538Y5248200D01*
X578462D01*
X591326Y5253528D01*
X592684Y5254887D01*
X603451Y5247693D01*
X600000Y5239362D01*
Y5225438D01*
X605328Y5212574D01*
X615174Y5202728D01*
X628038Y5197400D01*
X641962D01*
X654826Y5202728D01*
X656255Y5204157D01*
X751636D01*
Y5190400D01*
X924764D01*
Y5204157D01*
X1082255D01*
X1087516Y5191457D01*
X1055101Y5159043D01*
X924764D01*
Y5172800D01*
X751636D01*
Y5159043D01*
X702452D01*
X702451Y5159043D01*
X691643Y5156893D01*
X685966Y5153100D01*
X678838D01*
X665974Y5147772D01*
X656128Y5137926D01*
X650800Y5125062D01*
Y5111138D01*
X656128Y5098274D01*
X665974Y5088428D01*
X678838Y5083100D01*
X692762D01*
X705626Y5088428D01*
X715472Y5098274D01*
X717246Y5102557D01*
X751636D01*
Y5088800D01*
X924764D01*
Y5102557D01*
X1066799D01*
X1066800Y5102557D01*
X1077608Y5104707D01*
X1086771Y5110829D01*
X1129298Y5153357D01*
X1193432D01*
X1204360Y5142429D01*
X1204361Y5142428D01*
X1213524Y5136306D01*
X1224332Y5134156D01*
X1328094D01*
X1328095Y5134156D01*
X1338903Y5136306D01*
X1348066Y5142428D01*
X1380736Y5175099D01*
X1420795D01*
X1420795Y5245098D01*
X1431666Y5249514D01*
X1921883D01*
X2041854Y5129543D01*
Y5088800D01*
X2068027D01*
X2070160Y5078075D01*
X2076791Y5068151D01*
X2111971Y5032972D01*
X2111971Y5032971D01*
X2121895Y5026341D01*
X2133600Y5024012D01*
X2133601Y5024012D01*
X2914534D01*
X2914536Y5024012D01*
X2926241Y5026341D01*
X2936165Y5032971D01*
X2949697Y5046504D01*
X2961431Y5041644D01*
Y3474588D01*
X2795742Y3308900D01*
X2785049D01*
X2768510Y3302049D01*
X2755851Y3289390D01*
X2749000Y3272851D01*
Y3254949D01*
X2755851Y3238410D01*
X2768510Y3225751D01*
X2785049Y3218900D01*
X2802951D01*
X2819490Y3225751D01*
X2832149Y3238410D01*
X2839000Y3254949D01*
Y3265642D01*
X3013647Y3440290D01*
X3020278Y3450213D01*
X3022606Y3461918D01*
X3022606Y3461920D01*
Y5088800D01*
X3121864D01*
Y5172800D01*
X3106824D01*
Y5241200D01*
X3121864D01*
Y5325200D01*
X2948736D01*
Y5322295D01*
X2947621Y5320968D01*
X2936035Y5314856D01*
X2927962Y5318200D01*
X2914038D01*
X2901174Y5312872D01*
X2891328Y5303026D01*
X2886000Y5290162D01*
Y5276238D01*
X2891328Y5263374D01*
X2901174Y5253528D01*
X2914038Y5248200D01*
X2927962D01*
X2936035Y5251544D01*
X2947621Y5245432D01*
X2948736Y5244105D01*
Y5241200D01*
X3050339D01*
Y5172800D01*
X2948736D01*
Y5132058D01*
X2901866Y5085188D01*
X2226187D01*
X2214983Y5088800D01*
Y5172800D01*
X2199943D01*
Y5241200D01*
X2214983D01*
Y5325200D01*
X2041854D01*
Y5322076D01*
X2029165Y5313585D01*
X2015242D01*
X2002378Y5308257D01*
X1992532Y5298411D01*
X1988118Y5287754D01*
X1979959Y5284327D01*
X1974504Y5283408D01*
X1956182Y5301730D01*
X1946258Y5308360D01*
X1934553Y5310689D01*
X1934552Y5310689D01*
X1420795D01*
Y5315101D01*
X1340795D01*
X1340795Y5245101D01*
X1340795Y5232401D01*
Y5215040D01*
X1316396Y5190642D01*
X1300805D01*
Y5232401D01*
X1300805Y5245098D01*
X1300806D01*
Y5245102D01*
X1300805D01*
Y5315101D01*
X1220805D01*
Y5308344D01*
X1145098D01*
X1099471Y5353971D01*
X1090308Y5360093D01*
X1079500Y5362243D01*
X1079499Y5362243D01*
X924764D01*
Y5376000D01*
D02*
G37*
G36*
X9721176Y5415000D02*
X9678824D01*
X9637287Y5406738D01*
X9598159Y5390530D01*
X9562946Y5367001D01*
X9532998Y5337054D01*
X9509469Y5301841D01*
X9493262Y5262713D01*
X9485000Y5221176D01*
Y5178824D01*
X9493262Y5137287D01*
X9509469Y5098159D01*
X9532998Y5062946D01*
X9562946Y5032999D01*
X9598159Y5009470D01*
X9637287Y4993262D01*
X9678824Y4985000D01*
X9721176D01*
X9762713Y4993262D01*
X9801840Y5009470D01*
X9837054Y5032999D01*
X9867001Y5062946D01*
X9890530Y5098159D01*
X9906738Y5137287D01*
X9915000Y5178824D01*
Y5221176D01*
X9906738Y5262713D01*
X9890530Y5301841D01*
X9867001Y5337054D01*
X9837054Y5367001D01*
X9801840Y5390530D01*
X9762713Y5406738D01*
X9721176Y5415000D01*
D02*
G37*
G36*
X321176D02*
X278824D01*
X237287Y5406738D01*
X198159Y5390530D01*
X162946Y5367001D01*
X132998Y5337054D01*
X109469Y5301841D01*
X93262Y5262713D01*
X85000Y5221176D01*
Y5178824D01*
X93262Y5137287D01*
X109469Y5098159D01*
X132998Y5062946D01*
X162946Y5032999D01*
X198159Y5009470D01*
X237287Y4993262D01*
X278824Y4985000D01*
X321176D01*
X362713Y4993262D01*
X401840Y5009470D01*
X437054Y5032999D01*
X467001Y5062946D01*
X490530Y5098159D01*
X506738Y5137287D01*
X515000Y5178824D01*
Y5221176D01*
X506738Y5262713D01*
X490530Y5301841D01*
X467001Y5337054D01*
X437054Y5367001D01*
X401840Y5390530D01*
X362713Y5406738D01*
X321176Y5415000D01*
D02*
G37*
G36*
X7513423Y4985600D02*
X7485776D01*
X7459071Y4978444D01*
X7435129Y4964621D01*
X7415579Y4945072D01*
X7401756Y4921129D01*
X7394600Y4894424D01*
Y4866777D01*
X7401756Y4840072D01*
X7415579Y4816129D01*
X7435129Y4796580D01*
X7459071Y4782756D01*
X7485776Y4775601D01*
X7513423D01*
X7540128Y4782756D01*
X7564071Y4796580D01*
X7583621Y4816129D01*
X7597444Y4840072D01*
X7604600Y4866777D01*
Y4894424D01*
X7597444Y4921129D01*
X7583621Y4945072D01*
X7564071Y4964621D01*
X7540128Y4978444D01*
X7513423Y4985600D01*
D02*
G37*
G36*
X5254865Y4812737D02*
X5228535D01*
X5203102Y4805922D01*
X5180299Y4792756D01*
X5161680Y4774138D01*
X5148515Y4751335D01*
X5141700Y4725902D01*
Y4699571D01*
X5148515Y4674138D01*
X5161680Y4651336D01*
X5180299Y4632717D01*
X5203102Y4619552D01*
X5228535Y4612737D01*
X5254865D01*
X5280298Y4619552D01*
X5303101Y4632717D01*
X5321720Y4651336D01*
X5334885Y4674138D01*
X5341700Y4699571D01*
Y4725902D01*
X5334885Y4751335D01*
X5321720Y4774138D01*
X5303101Y4792756D01*
X5280298Y4805922D01*
X5254865Y4812737D01*
D02*
G37*
G36*
X444865D02*
X418535D01*
X393102Y4805922D01*
X370299Y4792756D01*
X351680Y4774138D01*
X338515Y4751335D01*
X331700Y4725902D01*
Y4699571D01*
X338515Y4674138D01*
X351680Y4651336D01*
X370299Y4632717D01*
X393102Y4619552D01*
X418535Y4612737D01*
X444865D01*
X470298Y4619552D01*
X493101Y4632717D01*
X511720Y4651336D01*
X524885Y4674138D01*
X531700Y4699571D01*
Y4725902D01*
X524885Y4751335D01*
X511720Y4774138D01*
X493101Y4792756D01*
X470298Y4805922D01*
X444865Y4812737D01*
D02*
G37*
G36*
X8137817Y4780995D02*
X8111383D01*
X8085849Y4774153D01*
X8062956Y4760936D01*
X8044264Y4742244D01*
X8031047Y4719351D01*
X8024205Y4693817D01*
Y4667383D01*
X8031047Y4641849D01*
X8044264Y4618956D01*
X8062956Y4600264D01*
X8085849Y4587047D01*
X8111383Y4580205D01*
X8137817D01*
X8163351Y4587047D01*
X8186244Y4600264D01*
X8204936Y4618956D01*
X8218153Y4641849D01*
X8224995Y4667383D01*
Y4693817D01*
X8218153Y4719351D01*
X8204936Y4742244D01*
X8186244Y4760936D01*
X8163351Y4774153D01*
X8137817Y4780995D01*
D02*
G37*
G36*
Y4280995D02*
X8111383D01*
X8085849Y4274153D01*
X8062956Y4260936D01*
X8044264Y4242244D01*
X8031047Y4219351D01*
X8024205Y4193817D01*
Y4167383D01*
X8031047Y4141849D01*
X8044264Y4118956D01*
X8062956Y4100264D01*
X8085849Y4087047D01*
X8111383Y4080205D01*
X8137817D01*
X8163351Y4087047D01*
X8186244Y4100264D01*
X8204936Y4118956D01*
X8218153Y4141849D01*
X8224995Y4167383D01*
Y4193817D01*
X8218153Y4219351D01*
X8204936Y4242244D01*
X8186244Y4260936D01*
X8163351Y4274153D01*
X8137817Y4280995D01*
D02*
G37*
G36*
X7513423Y4085599D02*
X7485776D01*
X7459071Y4078444D01*
X7435129Y4064620D01*
X7415579Y4045071D01*
X7401756Y4021128D01*
X7394600Y3994423D01*
Y3966776D01*
X7401756Y3940071D01*
X7415579Y3916128D01*
X7435129Y3896579D01*
X7459071Y3882756D01*
X7485776Y3875600D01*
X7513423D01*
X7540128Y3882756D01*
X7564071Y3896579D01*
X7583621Y3916128D01*
X7597444Y3940071D01*
X7604600Y3966776D01*
Y3994423D01*
X7597444Y4021128D01*
X7583621Y4045071D01*
X7564071Y4064620D01*
X7540128Y4078444D01*
X7513423Y4085599D01*
D02*
G37*
G36*
X9087817Y3830995D02*
X9061383D01*
X9035849Y3824153D01*
X9012956Y3810936D01*
X8994264Y3792244D01*
X8981047Y3769351D01*
X8974205Y3743817D01*
Y3717383D01*
X8981047Y3691849D01*
X8994264Y3668956D01*
X9012956Y3650264D01*
X9035849Y3637047D01*
X9061383Y3630205D01*
X9087817D01*
X9113351Y3637047D01*
X9136244Y3650264D01*
X9154936Y3668956D01*
X9168153Y3691849D01*
X9174995Y3717383D01*
Y3743817D01*
X9168153Y3769351D01*
X9154936Y3792244D01*
X9136244Y3810936D01*
X9113351Y3824153D01*
X9087817Y3830995D01*
D02*
G37*
G36*
X8587817D02*
X8561383D01*
X8535849Y3824153D01*
X8512956Y3810936D01*
X8494264Y3792244D01*
X8481047Y3769351D01*
X8474205Y3743817D01*
Y3717383D01*
X8481047Y3691849D01*
X8494264Y3668956D01*
X8512956Y3650264D01*
X8535849Y3637047D01*
X8561383Y3630205D01*
X8587817D01*
X8613351Y3637047D01*
X8636244Y3650264D01*
X8654936Y3668956D01*
X8668153Y3691849D01*
X8674995Y3717383D01*
Y3743817D01*
X8668153Y3769351D01*
X8654936Y3792244D01*
X8636244Y3810936D01*
X8613351Y3824153D01*
X8587817Y3830995D01*
D02*
G37*
G36*
X6437817D02*
X6411383D01*
X6385849Y3824153D01*
X6362956Y3810936D01*
X6344264Y3792244D01*
X6331047Y3769351D01*
X6324205Y3743817D01*
Y3717383D01*
X6331047Y3691849D01*
X6344264Y3668956D01*
X6362956Y3650264D01*
X6385849Y3637047D01*
X6411383Y3630205D01*
X6437817D01*
X6463351Y3637047D01*
X6486244Y3650264D01*
X6504936Y3668956D01*
X6518153Y3691849D01*
X6524995Y3717383D01*
Y3743817D01*
X6518153Y3769351D01*
X6504936Y3792244D01*
X6486244Y3810936D01*
X6463351Y3824153D01*
X6437817Y3830995D01*
D02*
G37*
G36*
X5937817D02*
X5911383D01*
X5885849Y3824153D01*
X5862956Y3810936D01*
X5844264Y3792244D01*
X5831047Y3769351D01*
X5824205Y3743817D01*
Y3717383D01*
X5831047Y3691849D01*
X5844264Y3668956D01*
X5862956Y3650264D01*
X5885849Y3637047D01*
X5911383Y3630205D01*
X5937817D01*
X5963351Y3637047D01*
X5986244Y3650264D01*
X6004936Y3668956D01*
X6018153Y3691849D01*
X6024995Y3717383D01*
Y3743817D01*
X6018153Y3769351D01*
X6004936Y3792244D01*
X5986244Y3810936D01*
X5963351Y3824153D01*
X5937817Y3830995D01*
D02*
G37*
G36*
X9288424Y3210600D02*
X9260777D01*
X9234072Y3203444D01*
X9210129Y3189621D01*
X9190580Y3170071D01*
X9176756Y3146129D01*
X9169600Y3119424D01*
Y3091777D01*
X9176756Y3065072D01*
X9190580Y3041129D01*
X9210129Y3021579D01*
X9234072Y3007756D01*
X9260777Y3000600D01*
X9288424D01*
X9315129Y3007756D01*
X9339071Y3021579D01*
X9358621Y3041129D01*
X9372444Y3065072D01*
X9379600Y3091777D01*
Y3119424D01*
X9372444Y3146129D01*
X9358621Y3170071D01*
X9339071Y3189621D01*
X9315129Y3203444D01*
X9288424Y3210600D01*
D02*
G37*
G36*
X8388423D02*
X8360777D01*
X8334071Y3203444D01*
X8310129Y3189621D01*
X8290579Y3170071D01*
X8276756Y3146129D01*
X8269600Y3119424D01*
Y3091777D01*
X8276756Y3065072D01*
X8290579Y3041129D01*
X8310129Y3021579D01*
X8334071Y3007756D01*
X8360777Y3000600D01*
X8388423D01*
X8415128Y3007756D01*
X8439071Y3021579D01*
X8458621Y3041129D01*
X8472444Y3065072D01*
X8479600Y3091777D01*
Y3119424D01*
X8472444Y3146129D01*
X8458621Y3170071D01*
X8439071Y3189621D01*
X8415128Y3203444D01*
X8388423Y3210600D01*
D02*
G37*
G36*
X6638424D02*
X6610777D01*
X6584072Y3203444D01*
X6560129Y3189621D01*
X6540580Y3170071D01*
X6526756Y3146129D01*
X6519600Y3119424D01*
Y3091777D01*
X6526756Y3065072D01*
X6540580Y3041129D01*
X6560129Y3021579D01*
X6584072Y3007756D01*
X6610777Y3000600D01*
X6638424D01*
X6665129Y3007756D01*
X6689071Y3021579D01*
X6708621Y3041129D01*
X6722444Y3065072D01*
X6729600Y3091777D01*
Y3119424D01*
X6722444Y3146129D01*
X6708621Y3170071D01*
X6689071Y3189621D01*
X6665129Y3203444D01*
X6638424Y3210600D01*
D02*
G37*
G36*
X5738423D02*
X5710776D01*
X5684071Y3203444D01*
X5660129Y3189621D01*
X5640579Y3170071D01*
X5626756Y3146129D01*
X5619600Y3119424D01*
Y3091777D01*
X5626756Y3065072D01*
X5640579Y3041129D01*
X5660129Y3021579D01*
X5684071Y3007756D01*
X5710776Y3000600D01*
X5738423D01*
X5765128Y3007756D01*
X5789071Y3021579D01*
X5808621Y3041129D01*
X5822444Y3065072D01*
X5829600Y3091777D01*
Y3119424D01*
X5822444Y3146129D01*
X5808621Y3170071D01*
X5789071Y3189621D01*
X5765128Y3203444D01*
X5738423Y3210600D01*
D02*
G37*
G36*
X6887817Y4780995D02*
X6861383D01*
X6835849Y4774153D01*
X6812956Y4760936D01*
X6794264Y4742244D01*
X6781047Y4719351D01*
X6774205Y4693817D01*
Y4667383D01*
X6781047Y4641849D01*
X6794264Y4618956D01*
X6812956Y4600264D01*
X6835849Y4587047D01*
X6861383Y4580205D01*
X6887817D01*
X6913351Y4587047D01*
X6922772Y4592486D01*
X6969457Y4545801D01*
Y2473797D01*
X6959551Y2463890D01*
X6952700Y2447351D01*
Y2429449D01*
X6959551Y2412910D01*
X6972210Y2400251D01*
X6988749Y2393400D01*
X7006651D01*
X7023190Y2400251D01*
X7035849Y2412910D01*
X7042700Y2429449D01*
Y2447351D01*
X7035849Y2463890D01*
X7025943Y2473797D01*
Y4557499D01*
X7025943Y4557500D01*
X7023793Y4568308D01*
X7017671Y4577471D01*
X6962714Y4632428D01*
X6968153Y4641849D01*
X6974995Y4667383D01*
Y4693817D01*
X6968153Y4719351D01*
X6954936Y4742244D01*
X6936244Y4760936D01*
X6913351Y4774153D01*
X6887817Y4780995D01*
D02*
G37*
G36*
X8587817Y2580995D02*
X8561383D01*
X8535849Y2574153D01*
X8512956Y2560936D01*
X8494264Y2542244D01*
X8481047Y2519351D01*
X8474205Y2493817D01*
Y2467383D01*
X8481047Y2441849D01*
X8494264Y2418956D01*
X8512956Y2400264D01*
X8535849Y2387047D01*
X8561383Y2380205D01*
X8587817D01*
X8613351Y2387047D01*
X8636244Y2400264D01*
X8654936Y2418956D01*
X8668153Y2441849D01*
X8674995Y2467383D01*
Y2493817D01*
X8668153Y2519351D01*
X8654936Y2542244D01*
X8636244Y2560936D01*
X8613351Y2574153D01*
X8587817Y2580995D01*
D02*
G37*
G36*
X5937817D02*
X5911383D01*
X5885849Y2574153D01*
X5862956Y2560936D01*
X5844264Y2542244D01*
X5831047Y2519351D01*
X5824205Y2493817D01*
Y2467383D01*
X5831047Y2441849D01*
X5844264Y2418956D01*
X5862956Y2400264D01*
X5885849Y2387047D01*
X5911383Y2380205D01*
X5937817D01*
X5963351Y2387047D01*
X5986244Y2400264D01*
X6004936Y2418956D01*
X6018153Y2441849D01*
X6024995Y2467383D01*
Y2493817D01*
X6018153Y2519351D01*
X6004936Y2542244D01*
X5986244Y2560936D01*
X5963351Y2574153D01*
X5937817Y2580995D01*
D02*
G37*
G36*
X7513423Y2335600D02*
X7485776D01*
X7459071Y2328444D01*
X7435129Y2314621D01*
X7415579Y2295071D01*
X7401756Y2271129D01*
X7394600Y2244424D01*
Y2216777D01*
X7401756Y2190072D01*
X7415579Y2166129D01*
X7435129Y2146579D01*
X7459071Y2132756D01*
X7485776Y2125600D01*
X7513423D01*
X7540128Y2132756D01*
X7564071Y2146579D01*
X7583621Y2166129D01*
X7597444Y2190072D01*
X7604600Y2216777D01*
Y2244424D01*
X7597444Y2271129D01*
X7583621Y2295071D01*
X7564071Y2314621D01*
X7540128Y2328444D01*
X7513423Y2335600D01*
D02*
G37*
G36*
X8137817Y2130995D02*
X8111383D01*
X8085849Y2124153D01*
X8062956Y2110936D01*
X8044264Y2092244D01*
X8031047Y2069351D01*
X8024205Y2043817D01*
Y2017383D01*
X8031047Y1991849D01*
X8044264Y1968956D01*
X8062956Y1950264D01*
X8085849Y1937047D01*
X8111383Y1930205D01*
X8137817D01*
X8163351Y1937047D01*
X8186244Y1950264D01*
X8204936Y1968956D01*
X8218153Y1991849D01*
X8224995Y2017383D01*
Y2043817D01*
X8218153Y2069351D01*
X8204936Y2092244D01*
X8186244Y2110936D01*
X8163351Y2124153D01*
X8137817Y2130995D01*
D02*
G37*
G36*
X6887817D02*
X6861383D01*
X6835849Y2124153D01*
X6812956Y2110936D01*
X6794264Y2092244D01*
X6781047Y2069351D01*
X6774205Y2043817D01*
Y2017383D01*
X6781047Y1991849D01*
X6794264Y1968956D01*
X6812956Y1950264D01*
X6835849Y1937047D01*
X6861383Y1930205D01*
X6887817D01*
X6913351Y1937047D01*
X6936244Y1950264D01*
X6954936Y1968956D01*
X6968153Y1991849D01*
X6974995Y2017383D01*
Y2043817D01*
X6968153Y2069351D01*
X6954936Y2092244D01*
X6936244Y2110936D01*
X6913351Y2124153D01*
X6887817Y2130995D01*
D02*
G37*
G36*
X8137817Y1630995D02*
X8111383D01*
X8085849Y1624153D01*
X8062956Y1610936D01*
X8044264Y1592244D01*
X8031047Y1569351D01*
X8024205Y1543817D01*
Y1517383D01*
X8031047Y1491849D01*
X8044264Y1468956D01*
X8062956Y1450264D01*
X8085849Y1437047D01*
X8111383Y1430205D01*
X8137817D01*
X8163351Y1437047D01*
X8186244Y1450264D01*
X8204936Y1468956D01*
X8218153Y1491849D01*
X8224995Y1517383D01*
Y1543817D01*
X8218153Y1569351D01*
X8204936Y1592244D01*
X8186244Y1610936D01*
X8163351Y1624153D01*
X8137817Y1630995D01*
D02*
G37*
G36*
X7513423Y1435600D02*
X7485776D01*
X7459071Y1428444D01*
X7435129Y1414620D01*
X7415579Y1395071D01*
X7401756Y1371128D01*
X7394600Y1344423D01*
Y1316776D01*
X7401756Y1290071D01*
X7415579Y1266129D01*
X7435129Y1246579D01*
X7459071Y1232756D01*
X7485776Y1225600D01*
X7513423D01*
X7540128Y1232756D01*
X7564071Y1246579D01*
X7583621Y1266129D01*
X7597444Y1290071D01*
X7604600Y1316776D01*
Y1344423D01*
X7597444Y1371128D01*
X7583621Y1395071D01*
X7564071Y1414620D01*
X7540128Y1428444D01*
X7513423Y1435600D01*
D02*
G37*
G36*
X4476700Y1153298D02*
X4276700D01*
X4259731Y1151064D01*
X4243919Y1144514D01*
X4230342Y1134096D01*
X4219923Y1120517D01*
X4213373Y1104706D01*
X4211139Y1087737D01*
Y987737D01*
X4213373Y970768D01*
X4219923Y954957D01*
X4230342Y941379D01*
X4243919Y930960D01*
X4259731Y924410D01*
X4276700Y922176D01*
X4476700D01*
X4493668Y924410D01*
X4509480Y930960D01*
X4523058Y941379D01*
X4533477Y954957D01*
X4540027Y970768D01*
X4542261Y987737D01*
Y1087737D01*
X4540027Y1104706D01*
X4533477Y1120517D01*
X4523058Y1134096D01*
X4509480Y1144514D01*
X4493668Y1151064D01*
X4476700Y1153298D01*
D02*
G37*
G36*
X1396700D02*
X1196700D01*
X1179731Y1151064D01*
X1163919Y1144514D01*
X1150342Y1134096D01*
X1139923Y1120517D01*
X1133373Y1104706D01*
X1131139Y1087737D01*
Y987737D01*
X1133373Y970768D01*
X1139923Y954957D01*
X1150342Y941379D01*
X1163919Y930960D01*
X1179731Y924410D01*
X1196700Y922176D01*
X1396700D01*
X1413668Y924410D01*
X1429481Y930960D01*
X1443058Y941379D01*
X1453477Y954957D01*
X1460027Y970768D01*
X1462261Y987737D01*
Y1087737D01*
X1460027Y1104706D01*
X1453477Y1120517D01*
X1443058Y1134096D01*
X1429481Y1144514D01*
X1413668Y1151064D01*
X1396700Y1153298D01*
D02*
G37*
G36*
X5254865Y1102737D02*
X5228535D01*
X5203102Y1095922D01*
X5180299Y1082757D01*
X5161680Y1064138D01*
X5148515Y1041335D01*
X5141700Y1015902D01*
Y989572D01*
X5148515Y964139D01*
X5161680Y941336D01*
X5180299Y922717D01*
X5203102Y909552D01*
X5228535Y902737D01*
X5254865D01*
X5280298Y909552D01*
X5303101Y922717D01*
X5321720Y941336D01*
X5334885Y964139D01*
X5341700Y989572D01*
Y1015902D01*
X5334885Y1041335D01*
X5321720Y1064138D01*
X5303101Y1082757D01*
X5280298Y1095922D01*
X5254865Y1102737D01*
D02*
G37*
G36*
X444865D02*
X418535D01*
X393102Y1095922D01*
X370299Y1082757D01*
X351680Y1064138D01*
X338515Y1041335D01*
X331700Y1015902D01*
Y989572D01*
X338515Y964139D01*
X351680Y941336D01*
X370299Y922717D01*
X393102Y909552D01*
X418535Y902737D01*
X444865D01*
X470298Y909552D01*
X493101Y922717D01*
X511720Y941336D01*
X524885Y964139D01*
X531700Y989572D01*
Y1015902D01*
X524885Y1041335D01*
X511720Y1064138D01*
X493101Y1082757D01*
X470298Y1095922D01*
X444865Y1102737D01*
D02*
G37*
G36*
X3638804Y750466D02*
X1790700D01*
X1779219Y745711D01*
X1774464Y734230D01*
Y469900D01*
X1779219Y458419D01*
X1790700Y453664D01*
X3641855D01*
X3641948Y453703D01*
X3642042Y453665D01*
X3647667Y456072D01*
X3653335Y458419D01*
X3653374Y458513D01*
X3653467Y458553D01*
X3655747Y464243D01*
X3658090Y469900D01*
X3658052Y469993D01*
X3658089Y470087D01*
X3655039Y734418D01*
X3652628Y740052D01*
X3650284Y745711D01*
X3650191Y745750D01*
X3650151Y745843D01*
X3644461Y748123D01*
X3638804Y750466D01*
D02*
G37*
G36*
X4288851Y667300D02*
X4270949D01*
X4254410Y660449D01*
X4241751Y647790D01*
X4234900Y631251D01*
Y613349D01*
X4241751Y596810D01*
X4254410Y584151D01*
X4270949Y577300D01*
X4284958D01*
X4602829Y259430D01*
X4602829Y259429D01*
X4611992Y253307D01*
X4622800Y251157D01*
X5336703D01*
X5346610Y241251D01*
X5363149Y234400D01*
X5381051D01*
X5397590Y241251D01*
X5410249Y253910D01*
X5417100Y270449D01*
Y288351D01*
X5410249Y304890D01*
X5397590Y317549D01*
X5381051Y324400D01*
X5363149D01*
X5346610Y317549D01*
X5336703Y307643D01*
X4634498D01*
X4324900Y617242D01*
Y631251D01*
X4318049Y647790D01*
X4305390Y660449D01*
X4288851Y667300D01*
D02*
G37*
G36*
X6705600Y1718036D02*
X6007100D01*
X5995619Y1713281D01*
X5970219Y1687880D01*
X5965464Y1676400D01*
Y1536700D01*
X5970219Y1525219D01*
X5970220Y1525219D01*
X5989212Y1506227D01*
Y749270D01*
X5448330Y208388D01*
X5062252D01*
X5054690Y215949D01*
X5038151Y222800D01*
X5020249D01*
X5003710Y215949D01*
X4991051Y203290D01*
X4984200Y186751D01*
Y168849D01*
X4991051Y152310D01*
X5003710Y139651D01*
X5020249Y132800D01*
X5038151D01*
X5054690Y139651D01*
X5062252Y147212D01*
X5460999D01*
X5461000Y147212D01*
X5472705Y149541D01*
X5482629Y156171D01*
X6041429Y714971D01*
X6048059Y724895D01*
X6050388Y736600D01*
X6050388Y736601D01*
Y1495064D01*
X6718300D01*
X6729780Y1499819D01*
X6755181Y1525219D01*
X6759936Y1536699D01*
Y1663700D01*
X6755181Y1675180D01*
X6717081Y1713281D01*
X6705600Y1718036D01*
D02*
G37*
G36*
X9721176Y515000D02*
X9678824D01*
X9637287Y506738D01*
X9598159Y490530D01*
X9562946Y467001D01*
X9532998Y437054D01*
X9509469Y401840D01*
X9493262Y362713D01*
X9485000Y321176D01*
Y278824D01*
X9493262Y237287D01*
X9509469Y198159D01*
X9532998Y162946D01*
X9562946Y132998D01*
X9598159Y109469D01*
X9637287Y93262D01*
X9678824Y85000D01*
X9721176D01*
X9762713Y93262D01*
X9801840Y109469D01*
X9837054Y132998D01*
X9867001Y162946D01*
X9890530Y198159D01*
X9906738Y237287D01*
X9915000Y278824D01*
Y321176D01*
X9906738Y362713D01*
X9890530Y401840D01*
X9867001Y437054D01*
X9837054Y467001D01*
X9801840Y490530D01*
X9762713Y506738D01*
X9721176Y515000D01*
D02*
G37*
G36*
X321176D02*
X278824D01*
X237287Y506738D01*
X198159Y490530D01*
X162946Y467001D01*
X132998Y437054D01*
X109469Y401840D01*
X93262Y362713D01*
X85000Y321176D01*
Y278824D01*
X93262Y237287D01*
X109469Y198159D01*
X132998Y162946D01*
X162946Y132998D01*
X198159Y109469D01*
X237287Y93262D01*
X278824Y85000D01*
X321176D01*
X362713Y93262D01*
X401840Y109469D01*
X437054Y132998D01*
X467001Y162946D01*
X490530Y198159D01*
X506738Y237287D01*
X515000Y278824D01*
Y321176D01*
X506738Y362713D01*
X490530Y401840D01*
X467001Y437054D01*
X437054Y467001D01*
X401840Y490530D01*
X362713Y506738D01*
X321176Y515000D01*
D02*
G37*
%LPD*%
G36*
X1101182Y5272376D02*
X1096322Y5260643D01*
X924764D01*
Y5274400D01*
X751636D01*
Y5260643D01*
X656255D01*
X654826Y5262072D01*
X641962Y5267400D01*
X628038D01*
X618541Y5263466D01*
X608868Y5269084D01*
X606853Y5271325D01*
X607272Y5279031D01*
X633998Y5305757D01*
X751636D01*
Y5292000D01*
X924764D01*
Y5305757D01*
X1067801D01*
X1101182Y5272376D01*
D02*
G37*
G36*
X6743700Y1663700D02*
Y1536700D01*
X6718300Y1511300D01*
X6007100D01*
X5981700Y1536700D01*
Y1676400D01*
X6007100Y1701800D01*
X6705600D01*
X6743700Y1663700D01*
D02*
G37*
D10*
X2992018Y5283200D02*
D03*
X3078582D02*
D03*
Y5130800D02*
D03*
X2992018D02*
D03*
X881482D02*
D03*
X794918D02*
D03*
X881482Y5232400D02*
D03*
X794918D02*
D03*
X881482Y5334000D02*
D03*
X794918D02*
D03*
X2085137Y5130800D02*
D03*
X2171700D02*
D03*
Y5283200D02*
D03*
X2085137D02*
D03*
D11*
X1380795Y5280101D02*
D03*
Y5210099D02*
D03*
X1260805D02*
D03*
Y5280101D02*
D03*
D12*
X6874600Y4680600D02*
X6997700Y4557500D01*
Y2438400D02*
Y4557500D01*
X4279900Y622300D02*
X4622800Y279400D01*
X5372100D01*
X2022204Y5278585D02*
X2024511Y5280893D01*
X2074744D01*
X2075065Y5280572D01*
X3078582Y5130800D02*
Y5283200D01*
X2171700Y5130800D02*
Y5283200D01*
X2921000D02*
X2992018D01*
X702451Y5130800D02*
X794918D01*
X685800Y5118100D02*
X689751D01*
X702451Y5130800D01*
X635000Y5232400D02*
X794918D01*
X571500Y5283200D02*
X622300Y5334000D01*
X794918D01*
X1205130Y5181600D02*
X1224332Y5162399D01*
X1117600Y5181600D02*
X1205130D01*
X1066800Y5130800D02*
X1117600Y5181600D01*
X1224332Y5162399D02*
X1328095D01*
X1375795Y5210099D02*
X1380795D01*
X1328095Y5162399D02*
X1375795Y5210099D01*
X881482Y5130800D02*
X1066800D01*
X881482Y5232400D02*
X1233504D01*
X1255805Y5210099D01*
X1260805D01*
X1079500Y5334000D02*
X1133399Y5280101D01*
X1260805D01*
X881482Y5334000D02*
X1079500D01*
D13*
X5461000Y177800D02*
X6019800Y736600D01*
Y1562100D02*
X6083300Y1625600D01*
X6019800Y736600D02*
Y1562100D01*
X2098420Y5089780D02*
Y5118800D01*
X2133600Y5054600D02*
X2914536D01*
X2098420Y5089780D02*
X2133600Y5054600D01*
X2085137Y5130800D02*
X2086419D01*
X2098420Y5118800D01*
X5029200Y177800D02*
X5461000D01*
X2992018Y3461918D02*
Y5130800D01*
X2794000Y3263900D02*
X2992018Y3461918D01*
X2914536Y5054600D02*
X2990736Y5130800D01*
X2083854D02*
X2086419D01*
X2990736D02*
X2992018D01*
X1934553Y5280101D02*
X2083854Y5130800D01*
X1380795Y5280101D02*
X1934553D01*
D14*
X4376700Y1037737D02*
D03*
X1296700D02*
D03*
D15*
X5241700Y1002737D02*
D03*
Y4712737D02*
D03*
X431700Y1002737D02*
D03*
Y4712737D02*
D03*
D16*
X6874600Y2030600D02*
D03*
Y1530600D02*
D03*
X8124600D02*
D03*
Y2030600D02*
D03*
X5924600Y2480600D02*
D03*
X6424600D02*
D03*
Y3730600D02*
D03*
X5924600D02*
D03*
X8574600Y2480600D02*
D03*
X9074600D02*
D03*
Y3730600D02*
D03*
X8574600D02*
D03*
X6874600Y4680600D02*
D03*
Y4180600D02*
D03*
X8124600D02*
D03*
Y4680600D02*
D03*
D17*
X7499600Y2230600D02*
D03*
Y1330600D02*
D03*
X5724600Y3105600D02*
D03*
X6624600D02*
D03*
X8374600D02*
D03*
X9274600D02*
D03*
X7499600Y4880600D02*
D03*
Y3980600D02*
D03*
D18*
X300000Y300000D02*
D03*
X9700000D02*
D03*
Y5200000D02*
D03*
X300000D02*
D03*
D19*
X203200Y2087034D02*
D03*
Y2840567D02*
D03*
Y3594100D02*
D03*
Y4347633D02*
D03*
X2048934Y4572000D02*
D03*
X2802467D02*
D03*
X3556000D02*
D03*
X4309533D02*
D03*
X3382434Y2070100D02*
D03*
X4135967D02*
D03*
X4889500D02*
D03*
X5643033D02*
D03*
X6722534Y914400D02*
D03*
X7476067D02*
D03*
X8229600D02*
D03*
X8983133D02*
D03*
X8962721Y314032D02*
D03*
X8209188D02*
D03*
X7455654D02*
D03*
X6702121D02*
D03*
X6997700Y2438400D02*
D03*
X5372100Y279400D02*
D03*
X5029200Y177800D02*
D03*
X6527800Y1625600D02*
D03*
X6235700D02*
D03*
X6375400D02*
D03*
X6083300D02*
D03*
X6692900D02*
D03*
X4279900Y622300D02*
D03*
X2692400Y3263900D02*
D03*
X2794000D02*
D03*
X3478309Y2985991D02*
D03*
X3886200Y3886200D02*
D03*
X3390900D02*
D03*
X3225800D02*
D03*
X2908300Y2946400D02*
D03*
X3517900Y3238500D02*
D03*
X3721100Y3886200D02*
D03*
X3556000D02*
D03*
X2501900Y3898900D02*
D03*
D20*
X1133093Y4035807D02*
D03*
X1301099Y5006851D02*
D03*
X1305307Y3393693D02*
D03*
X4064000Y749300D02*
D03*
X5461000Y317500D02*
D03*
X1295400Y2730500D02*
D03*
X863600Y5016500D02*
D03*
X1292607Y4536693D02*
D03*
X889000Y4546600D02*
D03*
X3746500Y444500D02*
D03*
X876300Y2781300D02*
D03*
X2022204Y5278585D02*
D03*
X2921000Y5283200D02*
D03*
X889000Y3378200D02*
D03*
Y4038600D02*
D03*
X685800Y5118100D02*
D03*
X635000Y5232400D02*
D03*
X571500Y5283200D02*
D03*
%TF.MD5,6f434850a770ead2441fc77334831fb5*%
M02*
