%TF.GenerationSoftware,Altium Limited,Altium Designer,22.5.1 (42)*%
G04 Layer_Color=16711935*
%FSLAX45Y45*%
%MOMM*%
%TF.SameCoordinates,ADDB7551-072C-4BAF-947E-D85C9ED3ECA7*%
%TF.FilePolarity,Positive*%
%TF.FileFunction,Other,Mechanical_13*%
%TF.Part,Single*%
G01*
G75*
%TA.AperFunction,NonConductor*%
%ADD30C,0.25400*%
%ADD53C,0.00000*%
%ADD54C,0.02540*%
D30*
X7014300Y2030600D02*
G03*
X7014300Y2030600I-12700J0D01*
G01*
X5937300Y2607600D02*
G03*
X5937300Y2607600I-12700J0D01*
G01*
X8587300D02*
G03*
X8587300Y2607600I-12700J0D01*
G01*
X7014300Y4680600D02*
G03*
X7014300Y4680600I-12700J0D01*
G01*
D53*
X7854600Y1780600D02*
G03*
X7854600Y1780600I-355000J0D01*
G01*
X6529600Y3105600D02*
G03*
X6529600Y3105600I-355000J0D01*
G01*
X9179600D02*
G03*
X9179600Y3105600I-355000J0D01*
G01*
X7854600Y4430600D02*
G03*
X7854600Y4430600I-355000J0D01*
G01*
D54*
X6899600Y1970600D02*
Y2090600D01*
X6814600D02*
X6899600D01*
X6814600Y1970600D02*
Y2090600D01*
Y1970600D02*
X6899600D01*
Y1470600D02*
Y1590600D01*
X6814600D02*
X6899600D01*
X6814600Y1470600D02*
Y1590600D01*
Y1470600D02*
X6899600D01*
X8099600D02*
Y1590600D01*
Y1470600D02*
X8184600D01*
Y1590600D01*
X8099600D02*
X8184600D01*
X8099600Y1970600D02*
Y2090600D01*
Y1970600D02*
X8184600D01*
Y2090600D01*
X8099600D02*
X8184600D01*
X6899600Y1180600D02*
X8099600D01*
Y2380600D01*
X6899600D02*
X8099600D01*
X6899600Y1180600D02*
Y2380600D01*
X5864600Y2505600D02*
X5984600D01*
X5864600Y2420600D02*
Y2505600D01*
Y2420600D02*
X5984600D01*
Y2505600D01*
X6364600D02*
X6484600D01*
X6364600Y2420600D02*
Y2505600D01*
Y2420600D02*
X6484600D01*
Y2505600D01*
X6364600Y3705600D02*
X6484600D01*
Y3790600D01*
X6364600D02*
X6484600D01*
X6364600Y3705600D02*
Y3790600D01*
X5864600Y3705600D02*
X5984600D01*
Y3790600D01*
X5864600D02*
X5984600D01*
X5864600Y3705600D02*
Y3790600D01*
X6774600Y2505600D02*
Y3705600D01*
X5574600D02*
X6774600D01*
X5574600Y2505600D02*
Y3705600D01*
Y2505600D02*
X6774600D01*
X8514600D02*
X8634600D01*
X8514600Y2420600D02*
Y2505600D01*
Y2420600D02*
X8634600D01*
Y2505600D01*
X9014600D02*
X9134600D01*
X9014600Y2420600D02*
Y2505600D01*
Y2420600D02*
X9134600D01*
Y2505600D01*
X9014600Y3705600D02*
X9134600D01*
Y3790600D01*
X9014600D02*
X9134600D01*
X9014600Y3705600D02*
Y3790600D01*
X8514600Y3705600D02*
X8634600D01*
Y3790600D01*
X8514600D02*
X8634600D01*
X8514600Y3705600D02*
Y3790600D01*
X9424600Y2505600D02*
Y3705600D01*
X8224600D02*
X9424600D01*
X8224600Y2505600D02*
Y3705600D01*
Y2505600D02*
X9424600D01*
X6899600Y4620600D02*
X6899600Y4740600D01*
X6814600D02*
X6899600D01*
X6814600D02*
X6814600Y4620600D01*
X6899600D01*
Y4240600D02*
X6899600Y4120600D01*
X6814600Y4240600D02*
X6899600D01*
X6814600Y4120600D02*
X6814600Y4240600D01*
X6814600Y4120600D02*
X6899600D01*
X8099599D02*
X8099600Y4240600D01*
X8099599Y4120600D02*
X8184600D01*
X8184600Y4240600D02*
X8184600Y4120600D01*
X8099600Y4240600D02*
X8184600D01*
X8099599Y4740600D02*
X8099600Y4620600D01*
X8184600D01*
X8184600Y4740600D01*
X8099599D02*
X8184600D01*
X6899600Y3830600D02*
X8099600D01*
Y5030600D01*
X6899600D02*
X8099600D01*
X6899600Y3830600D02*
Y5030600D01*
%TF.MD5,4a14c87020016e349ed3b4466a224fe9*%
M02*
