%TF.GenerationSoftware,Altium Limited,Altium Designer,22.5.1 (42)*%
G04 Layer_Color=65535*
%FSLAX45Y45*%
%MOMM*%
%TF.SameCoordinates,ADDB7551-072C-4BAF-947E-D85C9ED3ECA7*%
%TF.FilePolarity,Positive*%
%TF.FileFunction,Legend,Top*%
%TF.Part,Single*%
G01*
G75*
%TA.AperFunction,NonConductor*%
%ADD30C,0.25400*%
%ADD31C,0.15240*%
%ADD32C,0.12700*%
%ADD48C,0.30000*%
%ADD49C,0.08001*%
%ADD50C,0.20000*%
%ADD51C,0.10000*%
G36*
X1436736Y5288595D02*
X1452174D01*
Y5278595D01*
X1436736D01*
Y5264084D01*
X1426736D01*
Y5278595D01*
X1412174D01*
Y5288595D01*
X1426736D01*
Y5304084D01*
X1436736D01*
Y5288595D01*
D02*
G37*
G36*
X2949888Y5243475D02*
X2964450D01*
Y5233475D01*
X2949888D01*
Y5217986D01*
X2939888D01*
Y5233475D01*
X2924450D01*
Y5243475D01*
X2939888D01*
Y5257986D01*
X2949888D01*
Y5243475D01*
D02*
G37*
G36*
X2043007D02*
X2057569D01*
Y5233475D01*
X2043007D01*
Y5217986D01*
X2033007D01*
Y5233475D01*
X2017569D01*
Y5243475D01*
X2033007D01*
Y5257986D01*
X2043007D01*
Y5243475D01*
D02*
G37*
D30*
X6887300Y2538600D02*
G03*
X6887300Y2538600I-12700J0D01*
G01*
X5429300Y2480600D02*
G03*
X5429300Y2480600I-12700J0D01*
G01*
X8079300D02*
G03*
X8079300Y2480600I-12700J0D01*
G01*
X6887300Y5188600D02*
G03*
X6887300Y5188600I-12700J0D01*
G01*
X3892415Y2562001D02*
Y2612001D01*
X1814418Y2555999D02*
X3895412D01*
X1814418Y2645997D02*
X3892412D01*
X1814418Y3075996D02*
X2085415D01*
X1814418Y2645997D02*
Y3075996D01*
Y2555999D02*
Y2605999D01*
X3892412Y2645997D02*
Y3057997D01*
X3615412D02*
X3892412D01*
X81079Y1629360D02*
X233430D01*
Y1705535D01*
X208038Y1730927D01*
X182646D01*
X157254Y1705535D01*
Y1629360D01*
Y1705535D01*
X131863Y1730927D01*
X106471D01*
X81079Y1705535D01*
Y1629360D01*
Y1781710D02*
X208038D01*
X233430Y1807102D01*
Y1857886D01*
X208038Y1883278D01*
X81079D01*
Y2035628D02*
Y1934061D01*
X233430D01*
Y2035628D01*
X157254Y1934061D02*
Y1984845D01*
X81079Y2086412D02*
Y2187979D01*
Y2137195D01*
X233430D01*
X106471Y2492681D02*
X81079Y2467289D01*
Y2416505D01*
X106471Y2391113D01*
X208038D01*
X233430Y2416505D01*
Y2467289D01*
X208038Y2492681D01*
X106471Y2645031D02*
X81079Y2619639D01*
Y2568856D01*
X106471Y2543464D01*
X208038D01*
X233430Y2568856D01*
Y2619639D01*
X208038Y2645031D01*
X233430Y2695815D02*
X81079D01*
X131863Y2746598D01*
X81079Y2797382D01*
X233430D01*
X106471Y2949733D02*
X81079Y2924341D01*
Y2873557D01*
X106471Y2848165D01*
X131863D01*
X157254Y2873557D01*
Y2924341D01*
X182646Y2949733D01*
X208038D01*
X233430Y2924341D01*
Y2873557D01*
X208038Y2848165D01*
X81079Y3152867D02*
X182646D01*
X233430Y3203650D01*
X182646Y3254434D01*
X81079D01*
X106471Y3305218D02*
X81079Y3330610D01*
Y3381393D01*
X106471Y3406785D01*
X208038D01*
X233430Y3381393D01*
Y3330610D01*
X208038Y3305218D01*
X106471D01*
X233430Y3457568D02*
X208038D01*
Y3482960D01*
X233430D01*
Y3457568D01*
X106471Y3584527D02*
X81079Y3609919D01*
Y3660703D01*
X106471Y3686094D01*
X208038D01*
X233430Y3660703D01*
Y3609919D01*
X208038Y3584527D01*
X106471D01*
X233430Y3736878D02*
Y3787661D01*
Y3762270D01*
X81079D01*
X106471Y3736878D01*
D31*
X2940875Y5080940D02*
X3012679D01*
X2940875D02*
Y5180660D01*
X3012679D01*
X3057921Y5080940D02*
X3129725D01*
Y5180660D01*
X3057921D02*
X3129725D01*
X743776Y5080940D02*
X815579D01*
X743776D02*
Y5180660D01*
X815579D01*
X860821Y5080940D02*
X932625D01*
Y5180660D01*
X860821D02*
X932625D01*
X743776Y5182540D02*
X815579D01*
X743776D02*
Y5282260D01*
X815579D01*
X860821Y5182540D02*
X932625D01*
Y5282260D01*
X860821D02*
X932625D01*
X743776Y5284140D02*
X815579D01*
X743776D02*
Y5383860D01*
X815579D01*
X860821Y5284140D02*
X932625D01*
Y5383860D01*
X860821D02*
X932625D01*
X6886900Y1167900D02*
X8112300D01*
Y1412570D01*
X6886900Y2393300D02*
X8112300D01*
X6886900Y2148629D02*
Y2393300D01*
Y1648629D02*
Y1912570D01*
Y1167900D02*
Y1412570D01*
X8112300Y1648629D02*
Y1912570D01*
Y2148629D02*
Y2393300D01*
X6787300Y2492900D02*
Y3718300D01*
X6542630D02*
X6787300D01*
X5561900Y2492900D02*
Y3718300D01*
Y2492900D02*
X5806571D01*
X6042630D02*
X6306571D01*
X6542630D02*
X6787300D01*
X6042630Y3718300D02*
X6306571D01*
X5561900D02*
X5806571D01*
X9437300Y2492900D02*
Y3718300D01*
X9192630D02*
X9437300D01*
X8211900Y2492900D02*
Y3718300D01*
Y2492900D02*
X8456571D01*
X8692630D02*
X8956571D01*
X9192630D02*
X9437300D01*
X8692630Y3718300D02*
X8956571D01*
X8211900D02*
X8456571D01*
X6886900Y3817900D02*
X8112300D01*
Y4062570D01*
X6886900Y5043300D02*
X8112300D01*
X6886900Y4798629D02*
Y5043300D01*
Y4298629D02*
Y4562570D01*
Y3817900D02*
Y4062570D01*
X8112300Y4298629D02*
Y4562570D01*
Y4798629D02*
Y5043300D01*
X2151040Y5180660D02*
X2222843D01*
Y5080940D02*
Y5180660D01*
X2151040Y5080940D02*
X2222843D01*
X2033994Y5180660D02*
X2105797D01*
X2033994Y5080940D02*
Y5180660D01*
Y5080940D02*
X2105797D01*
D32*
X567543Y5100810D02*
Y5160790D01*
X597533D01*
X607530Y5150793D01*
Y5130800D01*
X597533Y5120803D01*
X567543D01*
X587537D02*
X607530Y5100810D01*
X627524D02*
X647517D01*
X637520D01*
Y5160790D01*
X627524Y5150793D01*
X677507Y5160790D02*
X717494D01*
Y5150793D01*
X677507Y5110806D01*
Y5100810D01*
X554843Y5202410D02*
Y5262390D01*
X584833D01*
X594830Y5252393D01*
Y5232400D01*
X584833Y5222403D01*
X554843D01*
X574837D02*
X594830Y5202410D01*
X614824D02*
X634817D01*
X624820D01*
Y5262390D01*
X614824Y5252393D01*
X704794Y5262390D02*
X684801Y5252393D01*
X664807Y5232400D01*
Y5212406D01*
X674804Y5202410D01*
X694797D01*
X704794Y5212406D01*
Y5222403D01*
X694797Y5232400D01*
X664807D01*
X547325Y5304010D02*
Y5363990D01*
X577315D01*
X587311Y5353993D01*
Y5334000D01*
X577315Y5324003D01*
X547325D01*
X567318D02*
X587311Y5304010D01*
X607305D02*
X627299D01*
X617302D01*
Y5363990D01*
X607305Y5353993D01*
X697276Y5363990D02*
X657289D01*
Y5334000D01*
X677282Y5343997D01*
X687279D01*
X697276Y5334000D01*
Y5314006D01*
X687279Y5304010D01*
X667285D01*
X657289Y5314006D01*
X1220832Y5148090D02*
Y5088110D01*
X1250823D01*
X1260819Y5098106D01*
Y5108103D01*
X1250823Y5118100D01*
X1220832D01*
X1250823D01*
X1260819Y5128097D01*
Y5138093D01*
X1250823Y5148090D01*
X1220832D01*
X1280813Y5088110D02*
Y5128097D01*
X1300807Y5148090D01*
X1320800Y5128097D01*
Y5088110D01*
Y5118100D01*
X1280813D01*
X1340794Y5148090D02*
X1380781D01*
X1360787D01*
Y5088110D01*
X1400774D02*
X1420768D01*
X1410771D01*
Y5148090D01*
X1400774Y5138093D01*
X8786007Y3060413D02*
X8776010Y3050417D01*
Y3030423D01*
X8786007Y3020426D01*
X8796003D01*
X8806000Y3030423D01*
Y3050417D01*
X8815997Y3060413D01*
X8825994D01*
X8835990Y3050417D01*
Y3030423D01*
X8825994Y3020426D01*
X8776010Y3080407D02*
X8835990D01*
X8815997Y3100400D01*
X8835990Y3120394D01*
X8776010D01*
X8835990Y3170378D02*
X8776010D01*
X8806000Y3140387D01*
Y3180374D01*
X6148707Y3025113D02*
X6138710Y3015116D01*
Y2995123D01*
X6148707Y2985126D01*
X6158703D01*
X6168700Y2995123D01*
Y3015116D01*
X6178697Y3025113D01*
X6188693D01*
X6198690Y3015116D01*
Y2995123D01*
X6188693Y2985126D01*
X6138710Y3045106D02*
X6198690D01*
X6178697Y3065100D01*
X6198690Y3085093D01*
X6138710D01*
X6148707Y3105087D02*
X6138710Y3115084D01*
Y3135077D01*
X6148707Y3145074D01*
X6158703D01*
X6168700Y3135077D01*
Y3125081D01*
Y3135077D01*
X6178697Y3145074D01*
X6188693D01*
X6198690Y3135077D01*
Y3115084D01*
X6188693Y3105087D01*
X7443113Y4481893D02*
X7433116Y4491890D01*
X7413123D01*
X7403126Y4481893D01*
Y4471897D01*
X7413123Y4461900D01*
X7433116D01*
X7443113Y4451903D01*
Y4441906D01*
X7433116Y4431910D01*
X7413123D01*
X7403126Y4441906D01*
X7463106Y4491890D02*
Y4431910D01*
X7483100Y4451903D01*
X7503093Y4431910D01*
Y4491890D01*
X7563074Y4431910D02*
X7523087D01*
X7563074Y4471897D01*
Y4481893D01*
X7553077Y4491890D01*
X7533084D01*
X7523087Y4481893D01*
X7456910Y1813293D02*
X7446913Y1823290D01*
X7426919D01*
X7416923Y1813293D01*
Y1803297D01*
X7426919Y1793300D01*
X7446913D01*
X7456910Y1783303D01*
Y1773306D01*
X7446913Y1763310D01*
X7426919D01*
X7416923Y1773306D01*
X7476903Y1823290D02*
Y1763310D01*
X7496897Y1783303D01*
X7516890Y1763310D01*
Y1823290D01*
X7536884Y1763310D02*
X7556877D01*
X7546881D01*
Y1823290D01*
X7536884Y1813293D01*
X5524517Y4741690D02*
X5504524D01*
X5514520D01*
Y4691706D01*
X5504524Y4681710D01*
X5494527D01*
X5484530Y4691706D01*
X5544511Y4681710D02*
X5564504D01*
X5554507D01*
Y4741690D01*
X5544511Y4731693D01*
X2245872Y5313190D02*
Y5253210D01*
X2285859D01*
X2345839Y5313190D02*
X2305852D01*
Y5253210D01*
X2345839D01*
X2305852Y5283200D02*
X2325846D01*
X2365833Y5313190D02*
Y5253210D01*
X2395823D01*
X2405820Y5263206D01*
Y5303193D01*
X2395823Y5313190D01*
X2365833D01*
X2465800Y5253210D02*
X2425813D01*
X2465800Y5293197D01*
Y5303193D01*
X2455804Y5313190D01*
X2435810D01*
X2425813Y5303193D01*
X3176632Y5313190D02*
Y5253210D01*
X3216619D01*
X3276600Y5313190D02*
X3236613D01*
Y5253210D01*
X3276600D01*
X3236613Y5283200D02*
X3256607D01*
X3296594Y5313190D02*
Y5253210D01*
X3326584D01*
X3336581Y5263206D01*
Y5303193D01*
X3326584Y5313190D01*
X3296594D01*
X3356574Y5253210D02*
X3376568D01*
X3366571D01*
Y5313190D01*
X3356574Y5303193D01*
X2251053Y5100810D02*
Y5160790D01*
X2281043D01*
X2291040Y5150793D01*
Y5130800D01*
X2281043Y5120803D01*
X2251053D01*
X2271047D02*
X2291040Y5100810D01*
X2311034Y5160790D02*
X2351021D01*
Y5150793D01*
X2311034Y5110806D01*
Y5100810D01*
X3180998Y5113510D02*
Y5173490D01*
X3210988D01*
X3220985Y5163493D01*
Y5143500D01*
X3210988Y5133503D01*
X3180998D01*
X3200992D02*
X3220985Y5113510D01*
X3280965Y5173490D02*
X3260972Y5163493D01*
X3240979Y5143500D01*
Y5123506D01*
X3250975Y5113510D01*
X3270969D01*
X3280965Y5123506D01*
Y5133503D01*
X3270969Y5143500D01*
X3240979D01*
D48*
X2079731Y3137405D02*
G03*
X2079731Y3137405I-15011J0D01*
G01*
D49*
X1380236Y5245075D02*
G03*
X1380236Y5245075I-5004J0D01*
G01*
D50*
X323170Y906807D02*
X5343170D01*
Y4826807D01*
X323170D02*
X5343170D01*
X323170Y906807D02*
Y4826807D01*
D51*
X1300800Y5205100D02*
X1340800D01*
X1300800Y5285100D02*
X1340800D01*
%TF.MD5,b6a93208b925fd38b2c631022718742b*%
M02*
