%TF.GenerationSoftware,Altium Limited,Altium Designer,22.5.1 (42)*%
G04 Layer_Color=255*
%FSLAX45Y45*%
%MOMM*%
%TF.SameCoordinates,ADDB7551-072C-4BAF-947E-D85C9ED3ECA7*%
%TF.FilePolarity,Positive*%
%TF.FileFunction,Pads,Bot*%
%TF.Part,Single*%
G01*
G75*
%TA.AperFunction,SMDPad,CuDef*%
%ADD10R,0.56566X0.54000*%
%TA.AperFunction,ComponentPad*%
G04:AMPARAMS|DCode=14|XSize=3mm|YSize=2mm|CornerRadius=0.5mm|HoleSize=0mm|Usage=FLASHONLY|Rotation=0.000|XOffset=0mm|YOffset=0mm|HoleType=Round|Shape=RoundedRectangle|*
%AMROUNDEDRECTD14*
21,1,3.00000,1.00000,0,0,0.0*
21,1,2.00000,2.00000,0,0,0.0*
1,1,1.00000,1.00000,-0.50000*
1,1,1.00000,-1.00000,-0.50000*
1,1,1.00000,-1.00000,0.50000*
1,1,1.00000,1.00000,0.50000*
%
%ADD14ROUNDEDRECTD14*%
%ADD15C,1.70000*%
%ADD16C,1.70790*%
%ADD17C,1.80000*%
%TA.AperFunction,ViaPad*%
%ADD18C,4.00000*%
%TA.AperFunction,SMDPad,CuDef*%
%ADD21R,0.86401X0.80648*%
%ADD22R,0.30000X1.30000*%
%ADD23R,2.00000X2.99999*%
%ADD24R,1.03749X0.53200*%
%ADD25R,0.53200X1.03749*%
%ADD26R,0.54000X0.56566*%
%TA.AperFunction,ConnectorPad*%
%ADD27R,2.00000X2.50000*%
%ADD28R,0.30000X1.25001*%
%TA.AperFunction,SMDPad,CuDef*%
%ADD29R,0.90000X0.80000*%
D10*
X952500Y4038600D02*
D03*
X1039063D02*
D03*
X952500Y3378200D02*
D03*
X1039063D02*
D03*
X952500Y3848100D02*
D03*
X1039063D02*
D03*
X952500Y3200400D02*
D03*
X1039063D02*
D03*
X952500Y2603500D02*
D03*
X1039063D02*
D03*
X952500Y2781300D02*
D03*
X1039063D02*
D03*
X1046582Y4546600D02*
D03*
X960018D02*
D03*
X1039063Y4356100D02*
D03*
X952500D02*
D03*
X1021182Y5016500D02*
D03*
X934618D02*
D03*
X1021182Y4826000D02*
D03*
X934618D02*
D03*
X4132682Y1041400D02*
D03*
X4046118D02*
D03*
D14*
X4376700Y1037737D02*
D03*
X1296700D02*
D03*
D15*
X5241700Y1002737D02*
D03*
Y4712737D02*
D03*
X431700Y1002737D02*
D03*
Y4712737D02*
D03*
D16*
X6874600Y2030600D02*
D03*
Y1530600D02*
D03*
X8124600D02*
D03*
Y2030600D02*
D03*
X5924600Y2480600D02*
D03*
X6424600D02*
D03*
Y3730600D02*
D03*
X5924600D02*
D03*
X8574600Y2480600D02*
D03*
X9074600D02*
D03*
Y3730600D02*
D03*
X8574600D02*
D03*
X6874600Y4680600D02*
D03*
Y4180600D02*
D03*
X8124600D02*
D03*
Y4680600D02*
D03*
D17*
X7499600Y2230600D02*
D03*
Y1330600D02*
D03*
X5724600Y3105600D02*
D03*
X6624600D02*
D03*
X8374600D02*
D03*
X9274600D02*
D03*
X7499600Y4880600D02*
D03*
Y3980600D02*
D03*
D18*
X300000Y300000D02*
D03*
X9700000D02*
D03*
Y5200000D02*
D03*
X300000D02*
D03*
D21*
X6692900Y1497724D02*
D03*
Y1347076D02*
D03*
X6527800Y1498600D02*
D03*
Y1347953D02*
D03*
X6375400Y1497724D02*
D03*
Y1347076D02*
D03*
X6235700Y1497724D02*
D03*
Y1347076D02*
D03*
D22*
X2231407Y3111500D02*
D03*
X2181420D02*
D03*
X2131407D02*
D03*
X2481419D02*
D03*
X2331407D02*
D03*
X2281420D02*
D03*
X2531406D02*
D03*
X2381419D02*
D03*
X2581419D02*
D03*
X2431407D02*
D03*
X3231405D02*
D03*
X3131405D02*
D03*
X3181418D02*
D03*
X3081418D02*
D03*
X3031405D02*
D03*
X2981418D02*
D03*
X2881418D02*
D03*
X2831406D02*
D03*
X2781419D02*
D03*
X2731406D02*
D03*
X2931406D02*
D03*
X2681419D02*
D03*
X2631406D02*
D03*
X3281418D02*
D03*
X3481417D02*
D03*
X3431405D02*
D03*
X3381417D02*
D03*
X3331405D02*
D03*
X3531404D02*
D03*
X3581417D02*
D03*
D23*
X1966424Y2876512D02*
D03*
X3746428D02*
D03*
D24*
X1430924Y3937000D02*
D03*
X1210676Y4032001D02*
D03*
Y3841999D02*
D03*
X1430924Y3302000D02*
D03*
X1210676Y3397001D02*
D03*
Y3206999D02*
D03*
X1430924Y2692400D02*
D03*
X1210676Y2787401D02*
D03*
Y2597399D02*
D03*
X1215903Y4819899D02*
D03*
Y5009901D02*
D03*
X1436152Y4914900D02*
D03*
X1210676Y4349999D02*
D03*
Y4540001D02*
D03*
X1430924Y4445000D02*
D03*
D25*
X3933698Y543677D02*
D03*
X3743696D02*
D03*
X3838697Y763925D02*
D03*
D26*
X4064000Y586537D02*
D03*
Y673100D02*
D03*
X4178300Y586537D02*
D03*
Y673100D02*
D03*
D27*
X4406001Y154150D02*
D03*
X5593999Y150647D02*
D03*
D28*
X4575007Y408148D02*
D03*
X4625020D02*
D03*
X4675007D02*
D03*
X4725020D02*
D03*
X4775007D02*
D03*
X4825019D02*
D03*
X5424995Y408153D02*
D03*
X5375008D02*
D03*
X5324995D02*
D03*
X5275008D02*
D03*
X5224996D02*
D03*
X5175008D02*
D03*
X5124996D02*
D03*
X5075009D02*
D03*
X5024996D02*
D03*
X4975009D02*
D03*
X4924996D02*
D03*
X4875009D02*
D03*
D29*
X3225800Y3778390D02*
D03*
Y3638410D02*
D03*
X3886200D02*
D03*
Y3778390D02*
D03*
X3721100Y3638410D02*
D03*
Y3778390D02*
D03*
X3556000Y3638410D02*
D03*
Y3778390D02*
D03*
X3390900Y3638410D02*
D03*
Y3778390D02*
D03*
X3053810Y3773729D02*
D03*
Y3633749D02*
D03*
X2869660Y3773729D02*
D03*
Y3633749D02*
D03*
X2685510Y3773729D02*
D03*
Y3633749D02*
D03*
X2501902Y3632200D02*
D03*
Y3772179D02*
D03*
%TF.MD5,68305e4ba3e0469e2ffe42305767e526*%
M02*
